<svg xmlns="http://www.w3.org/2000/svg" version="1.1" x="0px" y="0px" viewBox="0 0 72 72"
    style="enable-background:new 0 0 72 72;" xml:space="preserve"><style type="text/css">
	.st0{fill-rule:evenodd;clip-rule:evenodd;}
</style>
    <path
        d="M59.66,42.19c0.32-2.01-0.95-3.81-2.96-4.13c-1.91-0.32-3.7,0.95-4.02,2.86c-0.32,1.91,0.95,3.81,2.86,4.13  C57.44,45.37,59.34,44.1,59.66,42.19L59.66,42.19z M61.46,42.51c-0.53,2.86-3.28,4.87-6.25,4.34c-2.96-0.53-4.87-3.28-4.45-6.25  c0.53-2.96,3.39-4.87,6.25-4.45C59.98,36.69,61.99,39.55,61.46,42.51L61.46,42.51z M44.31,57.75c-0.11,1.48-0.11,2.96-0.11,4.55  c2.86-1.06,8.26-4.13,8.36-7.83C49.71,55.95,46.96,57.01,44.31,57.75L44.31,57.75z M42.72,40.6c-3.49-1.16-8.15,2.86-10.16,5.29  c1.48,0.53,2.96,0.95,4.45,1.38C38.49,45.05,40.39,42.72,42.72,40.6L42.72,40.6z M64.21,32.24l3.39,4.76  c0.53-1.38,0.74-2.75,0.85-4.13C67.07,32.45,65.69,32.24,64.21,32.24L64.21,32.24z M40.08,54.79l7.73-5.5  c1.69-1.16-0.11-3.7-1.69-2.54l-7.83,5.5C36.69,53.31,38.38,55.95,40.08,54.79L40.08,54.79z M44.84,53.73L42.93,55l0.74,0.95  c0.74-0.21,1.48-0.42,2.33-0.64L44.84,53.73z M42.4,47.06l2.54-1.8c3.7-2.65,7.62,2.96,4.02,5.5l-2.54,1.8l1.38,2.01  C55,51.72,63.26,46,66.75,39.02l-4.66-6.67c-7.83,0.95-15.88,6.77-21.07,12.7L42.4,47.06z M39.02,49.5l1.91-1.38l-1.16-1.59  c-0.42,0.64-0.95,1.38-1.38,2.01L39.02,49.5z M45.58,26.63c2.65-3.18,14.4-17.68,11.11-21.17c-1.48-1.48-6.35,0.53-8.05,1.38  c1.69,0.53,2.54,1.69,2.75,3.39C52.14,14.99,47.91,22.72,45.58,26.63L45.58,26.63z M48.86,15.62c-1.38-1.69-2.96-3.28-4.76-4.45  c-5.72-4.02-12.7-5.4-19.37-3.81C12.34,10.22,4.4,22.29,6.52,34.89c1.69,9.63,9,17.25,18.52,19.37c4.76-1.48,9.1-3.49,11.54-4.98  l-0.11-0.21l0,0c-1.91-0.53-3.81-1.16-5.72-1.8c-0.64-0.21-0.85-0.95-0.42-1.48c2.65-3.81,9-9.21,13.87-6.56  c2.96-2.54,6.46-4.87,9.95-6.46c0.64-3.39-0.53-8.36-1.91-11.64c-5.4,7.3-12.39,14.4-14.71,16.62c-0.85,0.74-2.12-0.42-1.27-1.27  C39.44,32.56,46.53,22.82,48.86,15.62L48.86,15.62z M33.62,10.12c-1.91,0-3.39,1.48-3.39,3.28c0,1.91,1.48,3.39,3.39,3.39  c1.8,0,3.28-1.48,3.28-3.39C36.9,11.6,35.42,10.12,33.62,10.12L33.62,10.12z M33.62,8.21c2.86,0,5.19,2.33,5.19,5.19  c0,2.96-2.33,5.29-5.19,5.29c-2.86,0-5.29-2.33-5.29-5.29C28.33,10.54,30.76,8.21,33.62,8.21L33.62,8.21z M40.6,18.9  c-0.85,0-1.59,0.74-1.59,1.59c0,0.95,0.74,1.59,1.59,1.59c0.85,0,1.59-0.74,1.59-1.59C42.19,19.65,41.56,18.9,40.6,18.9L40.6,18.9z   M40.6,17c1.91,0,3.49,1.59,3.49,3.49c0,1.91-1.59,3.49-3.49,3.49c-1.91,0-3.39-1.59-3.39-3.49C37.22,18.59,38.7,17,40.6,17L40.6,17  z M28.96,21.34c-1.27,0-2.22,0.95-2.22,2.12c0,1.16,0.95,2.12,2.22,2.12c1.16,0,2.12-0.95,2.12-2.12  C31.08,22.29,30.12,21.34,28.96,21.34L28.96,21.34z M28.96,19.43c2.12,0,3.92,1.8,3.92,4.02s-1.8,4.02-3.92,4.02  c-2.22,0-4.02-1.8-4.02-4.02S26.74,19.43,28.96,19.43L28.96,19.43z M18.06,46.22c0.95,0.74-0.21,2.22-1.16,1.48  c-4.13-3.39-6.99-8.05-7.83-13.23c-0.21-1.27,1.59-1.59,1.8-0.32C11.71,38.91,14.25,43.15,18.06,46.22L18.06,46.22z M22.61,48.86  c1.16,0.53,0.42,2.22-0.74,1.69c-0.74-0.32-1.38-0.64-2.12-0.95c-1.06-0.64-0.11-2.22,0.95-1.69  C21.34,48.33,21.97,48.65,22.61,48.86L22.61,48.86z M12.66,5.67c0-1.27,1.91-1.27,1.91,0C14.56,6.94,12.66,6.94,12.66,5.67  L12.66,5.67z M4.08,14.99c0-1.27,1.91-1.27,1.91,0S4.08,16.26,4.08,14.99L4.08,14.99z M66.01,51.19c0-1.27,1.91-1.27,1.91,0  C67.92,52.46,66.01,52.46,66.01,51.19L66.01,51.19z M44.63,67.28c0-1.27,1.91-1.27,1.91,0C46.53,68.45,44.63,68.45,44.63,67.28  L44.63,67.28z M66.86,67.39c0-1.27,1.91-1.27,1.91,0S66.86,68.66,66.86,67.39L66.86,67.39z M57.33,21.44c0-1.16,1.91-1.16,1.91,0  C59.24,22.72,57.33,22.72,57.33,21.44L57.33,21.44z M64.95,4.61c0-1.16,1.91-1.16,1.91,0C66.86,5.88,64.95,5.88,64.95,4.61  L64.95,4.61z M37.01,56.06c-7.3,3.28-21.91,7.73-29.22,4.87c-2.33-0.85-3.7-2.12-4.34-3.7c0.42,4.55,4.66,6.35,10.9,6.35  c8.57,0,19.9-3.39,27.31-7.2l-0.21-0.32l-0.32,0.21C39.65,57.44,37.96,57.01,37.01,56.06L37.01,56.06z M4.61,53.73  c0,2.33,1.06,4.45,3.81,5.5c6.67,2.54,20.75-1.69,27.52-4.76c-0.32-0.95-0.21-2.01,0.42-2.86c-4.66,2.43-13.23,5.72-20.22,6.56  C11.92,58.6,6.1,58.39,4.61,53.73L4.61,53.73z M57.33,64.21c1.06,0,1.91,0.85,1.91,1.8c0,1.06-0.85,1.91-1.91,1.91  c-0.95,0-1.8-0.85-1.8-1.91C55.53,65.06,56.38,64.21,57.33,64.21L57.33,64.21z M5.99,3.66c1.59,0,2.86,1.27,2.86,2.75  c0,1.59-1.27,2.86-2.86,2.86C4.4,9.27,3.24,8,3.24,6.41C3.24,4.93,4.4,3.66,5.99,3.66L5.99,3.66z M63.26,14.46  c1.06,0,1.91,0.85,1.91,1.91c0,0.95-0.85,1.8-1.91,1.8c-1.06,0-1.91-0.85-1.91-1.8C61.35,15.31,62.2,14.46,63.26,14.46L63.26,14.46z   M62.52,55.32c1.59,0,2.86,1.27,2.86,2.75c0,1.59-1.27,2.86-2.86,2.86c-1.48,0-2.75-1.27-2.75-2.86  C59.76,56.59,61.04,55.32,62.52,55.32L62.52,55.32z" />
</svg>