<svg xmlns:i="http://ns.adobe.com/AdobeIllustrator/10.0/" xmlns="http://www.w3.org/2000/svg"
    version="1.1" x="0px" y="0px" viewBox="0 0 100 100" style="enable-background:new 0 0 100 100;"
    xml:space="preserve"><g><path d="M5273.1,2400.1v-2c0-2.8-5-4-9.7-4s-9.7,1.3-9.7,4v2c0,1.8,0.7,3.6,2,4.9l5,4.9c0.3,0.3,0.4,0.6,0.4,1v6.4     c0,0.4,0.2,0.7,0.6,0.8l2.9,0.9c0.5,0.1,1-0.2,1-0.8v-7.2c0-0.4,0.2-0.7,0.4-1l5.1-5C5272.4,2403.7,5273.1,2401.9,5273.1,2400.1z      M5263.4,2400c-4.8,0-7.4-1.3-7.5-1.8v0c0.1-0.5,2.7-1.8,7.5-1.8c4.8,0,7.3,1.3,7.5,1.8C5270.7,2398.7,5268.2,2400,5263.4,2400z"/><path
    d="M5268.4,2410.3c-0.6,0-1,0.4-1,1c0,0.6,0.4,1,1,1h4.3c0.6,0,1-0.4,1-1c0-0.6-0.4-1-1-1H5268.4z" /><path
    d="M5272.7,2413.7h-4.3c-0.6,0-1,0.4-1,1c0,0.6,0.4,1,1,1h4.3c0.6,0,1-0.4,1-1C5273.7,2414.1,5273.3,2413.7,5272.7,2413.7z" /><path
    d="M5272.7,2417h-4.3c-0.6,0-1,0.4-1,1c0,0.6,0.4,1,1,1h4.3c0.6,0,1-0.4,1-1C5273.7,2417.5,5273.3,2417,5272.7,2417z" /></g>
    <g><path d="M97.3,82.4l-8.9-23.6c-0.6-1.5-2.2-2.3-3.7-1.9l-26.2,7.6l-12.7-2.7v6.3l12.2,2.7c0.5,0.1,1,0.1,1.5,0l24.2-7.1l6.7,18     l-19,6.6H16.8L9.5,75.5l13.6-12.2l6,1.3v-6.3l-6.3-1.4c-0.9-0.2-1.9,0.1-2.7,0.7l-16.6,15c-1.1,0.9-1.3,2.6-0.6,3.8l9.5,16.5     c0.6,0.9,1.6,1.5,2.7,1.5h56.8c0.3,0,0.7,0,1-0.1l22.5-7.8c0.8-0.3,1.4-0.9,1.8-1.6C97.6,84,97.6,83.2,97.3,82.4z"/>
        <path
            d="M37.4,75c1.7,0,3.1-1.4,3.1-3.1V43.4h29.6c1.7,0,3.1-1.4,3.1-3.1V14.8c0-1.7-1.4-3.1-3.1-3.1H40.5v-3     c0-1.7-1.4-3.1-3.1-3.1c-1.7,0-3.1,1.4-3.1,3.1v63.2C34.4,73.6,35.7,75,37.4,75z M67.1,17.9v19.3H40.5V17.9H67.1z" /></g>
</svg>