<svg xmlns="http://www.w3.org/2000/svg" version="1.1" x="0px" y="0px" viewBox="0 0 100 100"
    enable-background="new 0 0 100 100" xml:space="preserve"><path d="M54.666,49.756c-7.186,0-13.032,5.846-13.032,13.032s5.847,13.031,13.032,13.031s13.031-5.846,13.031-13.031  S61.852,49.756,54.666,49.756z M54.666,72.819c-5.532,0-10.032-4.5-10.032-10.031c0-5.532,4.5-10.032,10.032-10.032  c5.531,0,10.031,4.5,10.031,10.032C64.697,68.319,60.197,72.819,54.666,72.819z"/>
    <path
        d="M34.375,30.514c-3.786,0-6.867,3.081-6.867,6.867s3.081,6.867,6.867,6.867s6.866-3.081,6.866-6.867  S38.161,30.514,34.375,30.514z M34.375,41.248c-2.133,0-3.867-1.734-3.867-3.867s1.734-3.867,3.867-3.867  c2.132,0,3.866,1.734,3.866,3.867S36.507,41.248,34.375,41.248z" />
    <circle cx="33.587" cy="61.151" r="5.367" />
    <circle cx="42.15" cy="46.04" r="2.409" />
    <circle cx="50.465" cy="31.021" r="3.114" />
    <circle cx="61.841" cy="41.909" r="4.497" />
</svg>