<svg xmlns="http://www.w3.org/2000/svg" version="1.1" x="0px" y="0px" viewBox="0 0 100 100"
    style="enable-background:new 0 0 100 100;" xml:space="preserve"><g><circle cx="25.6" cy="1.2" r="1.2"/><circle
    cx="22.1" cy="4.7" r="1.2" /><circle cx="25.6" cy="4.7" r="1.2" /><circle cx="18.6" cy="8.2"
    r="1.2" /><circle cx="25.6" cy="15.2" r="1.2" /><circle cx="29.1" cy="15.2" r="1.2" /><circle
    cx="32.6" cy="15.2" r="1.2" /><circle cx="36.1" cy="15.2" r="1.2" /><circle cx="22.1" cy="18.6"
    r="1.2" /><circle cx="25.6" cy="18.6" r="1.2" /><circle cx="29.1" cy="18.6" r="1.2" /><circle
    cx="15.2" cy="22.1" r="1.2" /><circle cx="18.6" cy="22.1" r="1.2" /><circle cx="22.1" cy="22.1"
    r="1.2" /><circle cx="25.6" cy="22.1" r="1.2" /><circle cx="29.1" cy="22.1" r="1.2" /><circle
    cx="32.6" cy="22.1" r="1.2" /><circle cx="36.1" cy="22.1" r="1.2" /><circle cx="8.2" cy="25.6"
    r="1.2" /><circle cx="11.7" cy="25.6" r="1.2" /><circle cx="15.2" cy="25.6" r="1.2" /><circle
    cx="18.6" cy="25.6" r="1.2" /><circle cx="22.1" cy="25.6" r="1.2" /><circle cx="25.6" cy="25.6"
    r="1.2" /><circle cx="29.1" cy="25.6" r="1.2" /><circle cx="32.6" cy="25.6" r="1.2" /><circle
    cx="36.1" cy="25.6" r="1.2" /><circle cx="39.5" cy="25.6" r="1.2" /><circle cx="50" cy="25.6"
    r="1.2" /><circle cx="53.5" cy="25.6" r="1.2" /><circle cx="57" cy="25.6" r="1.2" /><circle
    cx="60.5" cy="25.6" r="1.2" /><circle cx="63.9" cy="25.6" r="1.2" /><circle cx="11.7" cy="29.1"
    r="1.2" /><circle cx="15.2" cy="29.1" r="1.2" /><circle cx="18.6" cy="29.1" r="1.2" /><circle
    cx="22.1" cy="29.1" r="1.2" /><circle cx="25.6" cy="29.1" r="1.2" /><circle cx="29.1" cy="29.1"
    r="1.2" /><circle cx="32.6" cy="29.1" r="1.2" /><circle cx="36.1" cy="29.1" r="1.2" /><circle
    cx="39.5" cy="29.1" r="1.2" /><circle cx="43" cy="29.1" r="1.2" /><circle cx="46.5" cy="29.1"
    r="1.2" /><circle cx="50" cy="29.1" r="1.2" /><circle cx="53.5" cy="29.1" r="1.2" /><circle
    cx="57" cy="29.1" r="1.2" /><circle cx="60.5" cy="29.1" r="1.2" /><circle cx="63.9" cy="29.1"
    r="1.2" /><circle cx="67.4" cy="29.1" r="1.2" /><circle cx="70.9" cy="29.1" r="1.2" /><circle
    cx="18.6" cy="32.6" r="1.2" /><circle cx="22.1" cy="32.6" r="1.2" /><circle cx="25.6" cy="32.6"
    r="1.2" /><circle cx="29.1" cy="32.6" r="1.2" /><circle cx="32.6" cy="32.6" r="1.2" /><circle
    cx="36.1" cy="32.6" r="1.2" /><circle cx="39.5" cy="32.6" r="1.2" /><circle cx="43" cy="32.6"
    r="1.2" /><circle cx="46.5" cy="32.6" r="1.2" /><circle cx="50" cy="32.6" r="1.2" /><circle
    cx="53.5" cy="32.6" r="1.2" /><circle cx="57" cy="32.6" r="1.2" /><circle cx="60.5" cy="32.6"
    r="1.2" /><circle cx="63.9" cy="32.6" r="1.2" /><circle cx="67.4" cy="32.6" r="1.2" /><circle
    cx="70.9" cy="32.6" r="1.2" /><circle cx="74.4" cy="32.6" r="1.2" /><circle cx="25.6" cy="36.1"
    r="1.2" /><circle cx="29.1" cy="36.1" r="1.2" /><circle cx="32.6" cy="36.1" r="1.2" /><circle
    cx="36.1" cy="36.1" r="1.2" /><circle cx="39.5" cy="36.1" r="1.2" /><circle cx="43" cy="36.1"
    r="1.2" /><circle cx="46.5" cy="36.1" r="1.2" /><circle cx="50" cy="36.1" r="1.2" /><circle
    cx="53.5" cy="36.1" r="1.2" /><circle cx="57" cy="36.1" r="1.2" /><circle cx="77.9" cy="36.1"
    r="1.2" /><circle cx="32.6" cy="39.5" r="1.2" /><circle cx="36.1" cy="39.5" r="1.2" /><circle
    cx="39.5" cy="39.5" r="1.2" /><circle cx="43" cy="39.5" r="1.2" /><circle cx="46.5" cy="39.5"
    r="1.2" /><circle cx="63.9" cy="39.5" r="1.2" /><circle cx="67.4" cy="39.5" r="1.2" /><circle
    cx="70.9" cy="39.5" r="1.2" /><circle cx="36.1" cy="43" r="1.2" /><circle cx="39.5" cy="43"
    r="1.2" /><circle cx="63.9" cy="43" r="1.2" /><circle cx="67.4" cy="43" r="1.2" /><circle
    cx="70.9" cy="43" r="1.2" /><circle cx="74.4" cy="43" r="1.2" /><circle cx="36.1" cy="46.5"
    r="1.2" /><circle cx="60.5" cy="46.5" r="1.2" /><circle cx="63.9" cy="46.5" r="1.2" /><circle
    cx="67.4" cy="46.5" r="1.2" /><circle cx="70.9" cy="46.5" r="1.2" /><circle cx="74.4" cy="46.5"
    r="1.2" /><circle cx="77.9" cy="46.5" r="1.2" /><circle cx="81.4" cy="46.5" r="1.2" /><circle
    cx="53.5" cy="50" r="1.2" /><circle cx="57" cy="50" r="1.2" /><circle cx="60.5" cy="50"
    r="1.2" /><circle cx="63.9" cy="50" r="1.2" /><circle cx="67.4" cy="50" r="1.2" /><circle
    cx="70.9" cy="50" r="1.2" /><circle cx="74.4" cy="50" r="1.2" /><circle cx="77.9" cy="50"
    r="1.2" /><circle cx="81.4" cy="50" r="1.2" /><circle cx="53.5" cy="53.5" r="1.2" /><circle
    cx="57" cy="53.5" r="1.2" /><circle cx="60.5" cy="53.5" r="1.2" /><circle cx="63.9" cy="53.5"
    r="1.2" /><circle cx="67.4" cy="53.5" r="1.2" /><circle cx="70.9" cy="53.5" r="1.2" /><circle
    cx="74.4" cy="53.5" r="1.2" /><circle cx="77.9" cy="53.5" r="1.2" /><circle cx="81.4" cy="53.5"
    r="1.2" /><circle cx="53.5" cy="57" r="1.2" /><circle cx="57" cy="57" r="1.2" /><circle
    cx="60.5" cy="57" r="1.2" /><circle cx="63.9" cy="57" r="1.2" /><circle cx="67.4" cy="57"
    r="1.2" /><circle cx="70.9" cy="57" r="1.2" /><circle cx="74.4" cy="57" r="1.2" /><circle
    cx="77.9" cy="57" r="1.2" /><circle cx="81.4" cy="57" r="1.2" /><circle cx="50" cy="60.5"
    r="1.2" /><circle cx="53.5" cy="60.5" r="1.2" /><circle cx="57" cy="60.5" r="1.2" /><circle
    cx="60.5" cy="60.5" r="1.2" /><circle cx="63.9" cy="60.5" r="1.2" /><circle cx="67.4" cy="60.5"
    r="1.2" /><circle cx="70.9" cy="60.5" r="1.2" /><circle cx="74.4" cy="60.5" r="1.2" /><circle
    cx="77.9" cy="60.5" r="1.2" /><circle cx="81.4" cy="60.5" r="1.2" /><circle cx="50" cy="63.9"
    r="1.2" /><circle cx="53.5" cy="63.9" r="1.2" /><circle cx="57" cy="63.9" r="1.2" /><circle
    cx="60.5" cy="63.9" r="1.2" /><circle cx="63.9" cy="63.9" r="1.2" /><circle cx="67.4" cy="63.9"
    r="1.2" /><circle cx="70.9" cy="63.9" r="1.2" /><circle cx="74.4" cy="63.9" r="1.2" /><circle
    cx="77.9" cy="63.9" r="1.2" /><circle cx="84.8" cy="63.9" r="1.2" /><circle cx="50" cy="67.4"
    r="1.2" /><circle cx="53.5" cy="67.4" r="1.2" /><circle cx="57" cy="67.4" r="1.2" /><circle
    cx="60.5" cy="67.4" r="1.2" /><circle cx="63.9" cy="67.4" r="1.2" /><circle cx="67.4" cy="67.4"
    r="1.2" /><circle cx="70.9" cy="67.4" r="1.2" /><circle cx="74.4" cy="67.4" r="1.2" /><circle
    cx="81.4" cy="67.4" r="1.2" /><circle cx="84.8" cy="67.4" r="1.2" /><circle cx="88.3" cy="67.4"
    r="1.2" /><circle cx="50" cy="70.9" r="1.2" /><circle cx="53.5" cy="70.9" r="1.2" /><circle
    cx="57" cy="70.9" r="1.2" /><circle cx="60.5" cy="70.9" r="1.2" /><circle cx="63.9" cy="70.9"
    r="1.2" /><circle cx="67.4" cy="70.9" r="1.2" /><circle cx="70.9" cy="70.9" r="1.2" /><circle
    cx="74.4" cy="70.9" r="1.2" /><circle cx="77.9" cy="70.9" r="1.2" /><circle cx="81.4" cy="70.9"
    r="1.2" /><circle cx="84.8" cy="70.9" r="1.2" /><circle cx="88.3" cy="70.9" r="1.2" /><circle
    cx="50" cy="74.4" r="1.2" /><circle cx="53.5" cy="74.4" r="1.2" /><circle cx="57" cy="74.4"
    r="1.2" /><circle cx="60.5" cy="74.4" r="1.2" /><circle cx="63.9" cy="74.4" r="1.2" /><circle
    cx="67.4" cy="74.4" r="1.2" /><circle cx="70.9" cy="74.4" r="1.2" /><circle cx="74.4" cy="74.4"
    r="1.2" /><circle cx="77.9" cy="74.4" r="1.2" /><circle cx="81.4" cy="74.4" r="1.2" /><circle
    cx="84.8" cy="74.4" r="1.2" /><circle cx="88.3" cy="74.4" r="1.2" /><circle cx="53.5" cy="77.9"
    r="1.2" /><circle cx="57" cy="77.9" r="1.2" /><circle cx="60.5" cy="77.9" r="1.2" /><circle
    cx="63.9" cy="77.9" r="1.2" /><circle cx="67.4" cy="77.9" r="1.2" /><circle cx="70.9" cy="77.9"
    r="1.2" /><circle cx="74.4" cy="77.9" r="1.2" /><circle cx="77.9" cy="77.9" r="1.2" /><circle
    cx="81.4" cy="77.9" r="1.2" /><circle cx="84.8" cy="77.9" r="1.2" /><circle cx="88.3" cy="77.9"
    r="1.2" /><circle cx="91.8" cy="77.9" r="1.2" /><circle cx="53.5" cy="81.4" r="1.2" /><circle
    cx="57" cy="81.4" r="1.2" /><circle cx="60.5" cy="81.4" r="1.2" /><circle cx="63.9" cy="81.4"
    r="1.2" /><circle cx="67.4" cy="81.4" r="1.2" /><circle cx="70.9" cy="81.4" r="1.2" /><circle
    cx="74.4" cy="81.4" r="1.2" /><circle cx="77.9" cy="81.4" r="1.2" /><circle cx="81.4" cy="81.4"
    r="1.2" /><circle cx="84.8" cy="81.4" r="1.2" /><circle cx="88.3" cy="81.4" r="1.2" /><circle
    cx="91.8" cy="81.4" r="1.2" /><circle cx="53.5" cy="84.8" r="1.2" /><circle cx="57" cy="84.8"
    r="1.2" /><circle cx="60.5" cy="84.8" r="1.2" /><circle cx="63.9" cy="84.8" r="1.2" /><circle
    cx="67.4" cy="84.8" r="1.2" /><circle cx="70.9" cy="84.8" r="1.2" /><circle cx="74.4" cy="84.8"
    r="1.2" /><circle cx="77.9" cy="84.8" r="1.2" /><circle cx="81.4" cy="84.8" r="1.2" /><circle
    cx="84.8" cy="84.8" r="1.2" /><circle cx="88.3" cy="84.8" r="1.2" /><circle cx="91.8" cy="84.8"
    r="1.2" /><circle cx="50" cy="88.3" r="1.2" /><circle cx="53.5" cy="88.3" r="1.2" /><circle
    cx="57" cy="88.3" r="1.2" /><circle cx="60.5" cy="88.3" r="1.2" /><circle cx="63.9" cy="88.3"
    r="1.2" /><circle cx="67.4" cy="88.3" r="1.2" /><circle cx="70.9" cy="88.3" r="1.2" /><circle
    cx="74.4" cy="88.3" r="1.2" /><circle cx="77.9" cy="88.3" r="1.2" /><circle cx="81.4" cy="88.3"
    r="1.2" /><circle cx="84.8" cy="88.3" r="1.2" /><circle cx="88.3" cy="88.3" r="1.2" /><circle
    cx="50" cy="91.8" r="1.2" /><circle cx="53.5" cy="91.8" r="1.2" /><circle cx="57" cy="91.8"
    r="1.2" /><circle cx="60.5" cy="91.8" r="1.2" /><circle cx="63.9" cy="91.8" r="1.2" /><circle
    cx="67.4" cy="91.8" r="1.2" /><circle cx="70.9" cy="91.8" r="1.2" /><circle cx="74.4" cy="91.8"
    r="1.2" /><circle cx="77.9" cy="91.8" r="1.2" /><circle cx="81.4" cy="91.8" r="1.2" /><circle
    cx="84.8" cy="91.8" r="1.2" /><circle cx="46.5" cy="95.3" r="1.2" /><circle cx="50" cy="95.3"
    r="1.2" /><circle cx="53.5" cy="95.3" r="1.2" /><circle cx="57" cy="95.3" r="1.2" /><circle
    cx="60.5" cy="95.3" r="1.2" /><circle cx="63.9" cy="95.3" r="1.2" /><circle cx="67.4" cy="95.3"
    r="1.2" /><circle cx="70.9" cy="95.3" r="1.2" /><circle cx="74.4" cy="95.3" r="1.2" /><circle
    cx="77.9" cy="95.3" r="1.2" /><circle cx="81.4" cy="95.3" r="1.2" /><circle cx="67.4" cy="98.8"
    r="1.2" /><circle cx="70.9" cy="98.8" r="1.2" /><circle cx="74.4" cy="98.8" r="1.2" /><circle
    cx="77.9" cy="98.8" r="1.2" /><circle cx="81.4" cy="98.8" r="1.2" /></g>
</svg>