<svg xmlns="http://www.w3.org/2000/svg" version="1.1" x="0px" y="0px" viewBox="0 0 72 72"
    style="enable-background:new 0 0 72 72;" xml:space="preserve"><path d="M22.2,54.7C13.76,51.75,7.46,44.43,5.94,35.39C3.7,22.38,12.04,9.88,24.84,6.94c6.91-1.52,14.12-0.2,19.92,3.96  c1.52,1.02,2.95,2.24,4.17,3.66c0.2-1.02,0.2-1.93,0.1-2.85c-0.3-2.44-2.74-2.03-4.57-1.52c-1.12,0.1-1.52-1.02-0.71-1.63  c2.85-1.63,10.47-5.89,13.41-2.85c2.54,2.74-0.2,8.54-4.37,14.53c1.52,3.35,2.85,8.23,2.54,12.09c4.37-1.63,8.94-2.13,13.01-0.61  c0.51,0.1,0.61,0.41,0.61,0.81c0,8.43-7.32,15.95-15.34,20.53c0.81,5.28-6.2,9.25-10.47,10.47c-0.91,0.3-1.12-0.3-1.12-0.91  c0-1.73,0-3.45,0.1-5.18c-7.21,3.66-18.39,7.01-26.93,7.01c-21.54,0-7.82-20.22-7.82-20.22c0.51-1.02,1.93-0.2,1.52,0.81  c-3.76,8.54-0.61,11.58,7.82,10.67C18.44,55.51,20.37,55.21,22.2,54.7L22.2,54.7z M5.84,53.27c0,2.24,1.02,4.17,3.66,5.18  c6.4,2.44,19.92-1.63,26.42-4.57c-0.3-0.81-0.2-1.83,0.41-2.74c-4.37,2.44-12.7,5.59-19.41,6.4C12.85,57.95,7.26,57.75,5.84,53.27  L5.84,53.27z M36.93,55.41c-7.01,3.25-21.03,7.42-28.05,4.78c-2.24-0.81-3.56-2.03-4.17-3.56c0.41,4.37,4.47,6.1,10.47,6.1  c8.23,0,19.21-3.25,26.22-6.91l-0.2-0.3l-0.2,0.2C39.47,56.73,37.95,56.42,36.93,55.41L36.93,55.41z M63.76,6.12  c0-1.22,1.83-1.22,1.83,0S63.76,7.34,63.76,6.12L63.76,6.12z M56.44,22.28c0-1.22,1.83-1.22,1.83,0  C58.27,23.5,56.44,23.5,56.44,22.28L56.44,22.28z M62.13,14.76c1.42,0,2.54,1.22,2.54,2.54c0,1.42-1.12,2.64-2.54,2.64  s-2.54-1.22-2.54-2.64C59.59,15.98,60.71,14.76,62.13,14.76L62.13,14.76z M62.13,16.59c-0.41,0-0.71,0.3-0.71,0.71  c0,0.51,0.3,0.81,0.71,0.81c0.41,0,0.81-0.3,0.81-0.81C62.95,16.9,62.54,16.59,62.13,16.59L62.13,16.59z M65.59,66.38  c0-1.22,1.83-1.22,1.83,0C67.42,67.5,65.59,67.5,65.59,66.38L65.59,66.38z M44.25,66.18c0-1.12,1.83-1.12,1.83,0  C46.08,67.4,44.25,67.4,44.25,66.18L44.25,66.18z M56.44,62.52c1.42,0,2.64,1.12,2.64,2.54c0,1.42-1.22,2.54-2.64,2.54  c-1.32,0-2.54-1.12-2.54-2.54C53.9,63.64,55.02,62.52,56.44,62.52L56.44,62.52z M56.44,64.25c-0.41,0-0.71,0.41-0.71,0.81  c0,0.41,0.3,0.81,0.71,0.81c0.51,0,0.81-0.41,0.81-0.81C57.26,64.66,56.95,64.25,56.44,64.25L56.44,64.25z M64.88,50.84  c0-1.22,1.73-1.22,1.73,0C66.6,51.95,64.88,51.95,64.88,50.84L64.88,50.84z M5.33,16.08c0-1.22,1.83-1.22,1.83,0  C7.16,17.2,5.33,17.2,5.33,16.08L5.33,16.08z M13.56,7.14c0-1.22,1.83-1.22,1.83,0C15.39,8.36,13.56,8.36,13.56,7.14L13.56,7.14z   M7.16,4.4c1.93,0,3.45,1.63,3.45,3.46c0,1.93-1.52,3.45-3.45,3.45S3.7,9.78,3.7,7.85C3.7,6.02,5.23,4.4,7.16,4.4L7.16,4.4z   M7.16,6.23c-0.91,0-1.63,0.71-1.63,1.63c0,0.91,0.71,1.73,1.63,1.73s1.63-0.81,1.63-1.73C8.79,6.94,8.07,6.23,7.16,6.23L7.16,6.23z   M61.52,53.99c1.83,0,3.35,1.52,3.35,3.46c0,1.93-1.52,3.45-3.35,3.45c-1.93,0-3.45-1.52-3.45-3.45  C58.07,55.51,59.59,53.99,61.52,53.99L61.52,53.99z M61.52,55.82c-1.02,0-1.73,0.71-1.73,1.63c0,0.91,0.71,1.63,1.73,1.63  c0.91,0,1.63-0.71,1.63-1.63C63.15,56.53,62.44,55.82,61.52,55.82L61.52,55.82z M23.11,48.6c1.12,0.41,0.41,2.13-0.71,1.63  c-0.71-0.3-1.32-0.61-2.03-1.02c-1.02-0.51-0.1-2.13,0.91-1.52C21.89,47.99,22.5,48.3,23.11,48.6L23.11,48.6z M18.74,45.96  c0.91,0.81-0.2,2.13-1.12,1.42c-3.96-3.15-6.71-7.62-7.52-12.7c-0.2-1.12,1.52-1.42,1.73-0.3C12.65,38.95,15.09,43.11,18.74,45.96  L18.74,45.96z M29.21,20.35c2.13,0,3.76,1.73,3.76,3.86c0,2.03-1.63,3.76-3.76,3.76s-3.86-1.73-3.86-3.76  C25.35,22.08,27.08,20.35,29.21,20.35L29.21,20.35z M29.21,22.08c-1.12,0-2.13,0.91-2.13,2.13c0,1.12,1.02,2.03,2.13,2.03  c1.12,0,2.03-0.91,2.03-2.03C31.24,22.99,30.33,22.08,29.21,22.08L29.21,22.08z M40.39,18.01c1.83,0,3.35,1.52,3.35,3.35  c0,1.83-1.52,3.35-3.35,3.35c-1.83,0-3.25-1.52-3.25-3.35C37.14,19.54,38.56,18.01,40.39,18.01L40.39,18.01z M40.39,19.84  c-0.81,0-1.52,0.61-1.52,1.52c0,0.81,0.71,1.52,1.52,1.52c0.81,0,1.52-0.71,1.52-1.52C41.91,20.55,41.3,19.84,40.39,19.84  L40.39,19.84z M33.68,9.58c2.74,0,4.98,2.24,4.98,4.98s-2.24,4.98-4.98,4.98c-2.74,0-4.98-2.24-4.98-4.98S30.94,9.58,33.68,9.58  L33.68,9.58z M33.68,11.31c-1.83,0-3.25,1.52-3.25,3.25c0,1.83,1.42,3.25,3.25,3.25c1.73,0,3.25-1.42,3.25-3.25  C36.93,12.83,35.41,11.31,33.68,11.31L33.68,11.31z M48.31,16.69c-1.32-1.73-2.85-3.15-4.57-4.37c-5.49-3.86-12.19-5.08-18.6-3.56  C13.26,11.51,5.64,23.09,7.67,35.19c1.63,9.25,8.64,16.56,17.78,18.6c4.57-1.42,8.84-3.35,11.08-4.78l-0.1-0.2l0,0  c-1.83-0.51-3.66-1.12-5.49-1.73c-0.61-0.2-0.81-1.02-0.41-1.42c2.54-3.66,8.64-8.84,13.31-6.3c2.85-2.44,6.2-4.67,9.55-6.2  c0.61-3.25-0.51-8.13-1.83-11.28c-5.18,7.01-11.89,13.92-14.12,15.95c-0.81,0.81-2.03-0.3-1.22-1.22  C39.27,32.95,46.08,23.6,48.31,16.69L48.31,16.69z M45.16,27.16c2.54-2.95,13.82-16.87,10.67-20.22c-1.42-1.52-6.1,0.51-7.62,1.32  c1.52,0.41,2.34,1.63,2.64,3.25C51.46,15.98,47.4,23.5,45.16,27.16L45.16,27.16z M38.86,49.11l1.83-1.22l-1.02-1.52  c-0.51,0.61-1.02,1.22-1.42,1.83L38.86,49.11z M42.12,46.87l2.44-1.73c3.56-2.54,7.32,2.85,3.86,5.28l-2.44,1.73l1.32,1.93  c7.01-2.74,14.84-8.23,18.19-14.94l-4.47-6.4c-7.52,0.91-15.24,6.5-20.22,12.19L42.12,46.87z M44.45,53.17l-1.83,1.32l0.71,0.91  c0.71-0.2,1.42-0.41,2.24-0.71L44.45,53.17z M39.88,54.19l7.42-5.18c1.63-1.12-0.1-3.56-1.63-2.44l-7.42,5.28  C36.63,52.87,38.25,55.41,39.88,54.19L39.88,54.19z M63.15,32.65l3.15,4.57c0.51-1.32,0.81-2.64,0.81-4.06  C65.79,32.85,64.47,32.65,63.15,32.65L63.15,32.65z M42.42,40.67c-3.35-1.12-7.82,2.74-9.76,5.08c1.42,0.41,2.85,0.91,4.27,1.32  C38.36,44.94,40.18,42.71,42.42,40.67L42.42,40.67z M43.94,57.03c-0.1,1.52-0.1,2.95-0.1,4.47c2.74-1.02,7.93-3.96,8.03-7.52  C49.13,55.41,46.48,56.42,43.94,57.03L43.94,57.03z M60.41,42.4c-0.51,2.85-3.15,4.78-6,4.27s-4.67-3.15-4.27-6  c0.51-2.85,3.25-4.78,6-4.27C58.98,36.91,60.91,39.56,60.41,42.4L60.41,42.4z M58.68,42.1c0.3-1.83-0.91-3.56-2.85-3.86  c-1.83-0.41-3.56,0.91-3.86,2.74c-0.3,1.83,0.91,3.66,2.74,3.96C56.54,45.25,58.37,44.03,58.68,42.1L58.68,42.1z"/>
</svg>