<svg xmlns="http://www.w3.org/2000/svg" version="1.1" x="0px" y="0px" viewBox="0 0 100 100"
    style="enable-background:new 0 0 100 100;" xml:space="preserve"><g><path d="M50.0013161,97.3935699c-1.646698,0-2.9799156-1.3332214-2.9799156-2.9799194   c0-1.6476059,1.3332176-2.9799194,2.9799156-2.9799194c10.630661,0,19.6135902-18.973999,19.6135902-41.4332809   c0-22.4601803-8.9829292-41.4341812-19.6135902-41.4341812c-1.646698,0-2.9799156-1.3323154-2.9799156-2.9799175   c0-1.6467018,1.3332176-2.9799175,2.9799156-2.9799175c26.1328316,0,47.3931847,21.2611885,47.3931847,47.3940163   C97.3945007,76.1323776,76.1341476,97.3935699,50.0013161,97.3935699z M65.0054016,11.3777313   c6.443573,8.5235729,10.5693359,22.5151291,10.5693359,38.6227188c0,16.1066895-4.1257629,30.0982437-10.5693359,38.6218185   c15.4499893-6.0237961,26.4291992-21.065712,26.4291992-38.6218185   C91.4346008,32.4434395,80.4553909,17.4015236,65.0054016,11.3777313z"/><path
    d="M50.0013161,97.3935699c-26.1355305,0-47.3958168-21.2611923-47.3958168-47.3931198   c0-26.1328297,21.2602863-47.3940163,47.3958168-47.3940163c1.6476059,0,2.9799194,1.3332157,2.9799194,2.9799175   c0,1.6476021-1.3323135,2.9799175-2.9799194,2.9799175c-10.6332932,0-19.6162853,18.9740028-19.6162853,41.4341812   c0,22.4592819,8.9829922,41.4332809,19.6162853,41.4332809c1.6476059,0,2.9799194,1.3323135,2.9799194,2.9799194   C52.9812355,96.0603485,51.648922,97.3935699,50.0013161,97.3935699z M34.9972343,11.3777313   c-15.4526882,6.0237923-26.4319,21.0657082-26.4319,38.6227188c0,17.5561066,10.9792118,32.5980225,26.4319,38.6218185   c-6.4453754-8.5235748-10.5720387-22.5151291-10.5720387-38.6218185   C24.4251957,33.8928604,28.5518589,19.9013042,34.9972343,11.3777313z" /><path
    d="M50.0013161,97.3935699c-14.3410759,0-25.5761204-20.8188858-25.5761204-47.3931198   c0-26.5751324,11.2350445-47.3940163,25.5761204-47.3940163c1.6476059,0,2.9799194,1.3332157,2.9799194,2.9799175v88.827301   C52.9812355,96.0603485,51.648922,97.3935699,50.0013161,97.3935699z M47.0214005,9.0671244   c-9.280262,3.1366606-16.6363697,20.6089935-16.6363697,40.9333267c0,20.3234329,7.3561077,37.7957687,16.6363697,40.9324265   V9.0671244z" /><path
    d="M50.0013161,97.3935699c-1.646698,0-2.9799156-1.3332214-2.9799156-2.9799194V5.5863504   c0-1.6467018,1.3332176-2.9799175,2.9799156-2.9799175c14.3410759,0,25.5734215,20.8188858,25.5734215,47.3940163   C75.5747375,76.5746841,64.342392,97.3935699,50.0013161,97.3935699z M52.9812355,9.0671244v81.8657532   c9.2775612-3.1366577,16.6336708-20.6089935,16.6336708-40.9324265   C69.6149063,29.6761169,62.2587967,12.2037849,52.9812355,9.0671244z" /><path
    d="M94.4145203,52.9794655H5.6205487c-1.6476026,0-2.9799175-1.3323135-2.9799175-2.9790154   c0-1.6476021,1.332315-2.9799156,2.9799175-2.9799156h88.7939682c1.6475983,0,2.9799805,1.3323135,2.9799805,2.9799156   C97.3945007,51.6471519,96.0621185,52.9794655,94.4145203,52.9794655z" /></g></svg>