<svg xmlns="http://www.w3.org/2000/svg" version="1.1" x="0px" y="0px" viewBox="0 0 2000 2000"
    style="enable-background:new 0 0 2000 2000;" xml:space="preserve"><g><g><g><g><g><path d="M583.5,1224.6c-126.2,0-228.8-102.7-228.8-228.8S457.4,767,583.5,767s228.8,102.7,228.8,228.8       S709.7,1224.6,583.5,1224.6z M583.5,789.4c-113.8,0-206.3,92.6-206.3,206.3S469.8,1202,583.5,1202s206.3-92.6,206.3-206.3       S697.3,789.4,583.5,789.4z"/></g><g><g><path d="M583.5,1038.5c-43.1,0-78.2-35.1-78.2-78.2v-64.8c0-43.1,35.1-78.2,78.2-78.2c43.1,0,78.2,35.1,78.2,78.2v64.8        C661.7,1003.4,626.7,1038.5,583.5,1038.5z M583.5,839.8c-30.7,0-55.7,25-55.7,55.7v64.8c0,30.7,25,55.7,55.7,55.7        s55.7-25,55.7-55.7v-64.8C639.3,864.8,614.3,839.8,583.5,839.8z"/></g>
    <g><path d="M456.6,1130.9c-6.2,0-11.2-5-11.2-11.2V1101c0-25.2,8-49.2,23.1-69.4c14.6-19.5,35.4-34.3,58.5-41.5        c5.9-1.9,12.2,1.4,14.1,7.4c1.9,5.9-1.4,12.2-7.4,14.1c-38.8,12.2-65.9,49-65.9,89.5v18.7        C467.8,1125.9,462.8,1130.9,456.6,1130.9z"/></g>
    <g><path d="M710.5,1130.9c-6.2,0-11.2-5-11.2-11.2V1101c0-40.5-27.1-77.3-65.9-89.5c-5.9-1.9-9.2-8.2-7.4-14.1        c1.9-5.9,8.2-9.2,14.1-7.4c23.1,7.2,43.9,22,58.5,41.5c15.1,20.2,23.1,44.2,23.1,69.4v18.7        C721.7,1125.9,716.7,1130.9,710.5,1130.9z"/></g></g><g><path d="M583.5,1190.3c-19.6,0-35.6-16-35.6-35.6v-69.3c0-19.6,16-35.6,35.6-35.6s35.6,16,35.6,35.6v69.3       C619.1,1174.3,603.2,1190.3,583.5,1190.3z M583.5,1072.3c-7.2,0-13.1,5.9-13.1,13.1v69.3c0,7.2,5.9,13.1,13.1,13.1       s13.1-5.9,13.1-13.1v-69.3C596.7,1078.2,590.8,1072.3,583.5,1072.3z"/></g></g><g><g><path d="M1421.7,809.9c-126.2,0-228.8-102.7-228.8-228.8s102.7-228.8,228.8-228.8c126.2,0,228.8,102.7,228.8,228.8       S1547.8,809.9,1421.7,809.9z M1421.7,374.7c-113.8,0-206.3,92.6-206.3,206.3s92.6,206.3,206.3,206.3S1628,694.8,1628,581       S1535.4,374.7,1421.7,374.7z"/></g>
    <g><g><path d="M1421.7,623.8c-43.1,0-78.2-35.1-78.2-78.2v-64.8c0-43.1,35.1-78.2,78.2-78.2s78.2,35.1,78.2,78.2v64.8        C1499.9,588.7,1464.8,623.8,1421.7,623.8z M1421.7,425.1c-30.7,0-55.7,25-55.7,55.7v64.8c0,30.7,25,55.7,55.7,55.7        s55.7-25,55.7-55.7v-64.8C1477.4,450.1,1452.4,425.1,1421.7,425.1z"/></g>
        <g><path d="M1294.7,716.2c-6.2,0-11.2-5-11.2-11.2v-18.7c0-25.2,8-49.2,23.2-69.4c14.6-19.5,35.4-34.3,58.5-41.5        c5.9-1.9,12.2,1.4,14.1,7.4c1.9,5.9-1.4,12.2-7.4,14.1c-38.8,12.2-65.9,49-65.9,89.5V705        C1305.9,711.2,1300.9,716.2,1294.7,716.2z"/></g>
        <g><path d="M1548.6,716.2c-6.2,0-11.2-5-11.2-11.2v-18.7c0-40.5-27.1-77.3-65.9-89.5c-5.9-1.9-9.2-8.2-7.4-14.1        c1.9-5.9,8.2-9.2,14.1-7.4c23.1,7.2,43.9,22,58.5,41.5c15.1,20.2,23.1,44.2,23.1,69.4V705        C1559.9,711.2,1554.8,716.2,1548.6,716.2z"/></g></g>
    <g><path d="M1421.7,775.6c-19.6,0-35.6-16-35.6-35.6v-69.3c0-19.6,16-35.6,35.6-35.6s35.6,16,35.6,35.6V740       C1457.3,759.6,1441.3,775.6,1421.7,775.6z M1421.7,657.6c-7.2,0-13.1,5.9-13.1,13.1V740c0,7.2,5.9,13.1,13.1,13.1       s13.1-5.9,13.1-13.1v-69.3C1434.8,663.5,1428.9,657.6,1421.7,657.6z"/></g></g><g><g><path d="M1335.4,1645.2c-126.2,0-228.8-102.7-228.8-228.8s102.7-228.8,228.8-228.8s228.8,102.7,228.8,228.8       S1461.6,1645.2,1335.4,1645.2z M1335.4,1210c-113.8,0-206.3,92.6-206.3,206.3s92.6,206.3,206.3,206.3s206.3-92.6,206.3-206.3       C1541.7,1302.6,1449.2,1210,1335.4,1210z"/></g>
    <g><g><path d="M1335.4,1459.1c-43.1,0-78.2-35.1-78.2-78.2v-64.8c0-43.1,35.1-78.2,78.2-78.2s78.2,35.1,78.2,78.2v64.8        C1413.6,1424,1378.5,1459.1,1335.4,1459.1z M1335.4,1260.4c-30.7,0-55.7,25-55.7,55.7v64.8c0,30.7,25,55.7,55.7,55.7        s55.7-25,55.7-55.7v-64.8C1391.1,1285.4,1366.1,1260.4,1335.4,1260.4z"/></g>
        <g><path d="M1208.4,1551.5c-6.2,0-11.2-5-11.2-11.2v-18.7c0-25.2,8-49.2,23.1-69.4c14.6-19.5,35.4-34.3,58.5-41.5        c5.9-1.9,12.2,1.4,14.1,7.4c1.9,5.9-1.4,12.2-7.4,14.1c-38.8,12.2-65.9,49-65.9,89.5v18.7        C1219.7,1546.5,1214.6,1551.5,1208.4,1551.5z"/></g>
        <g><path d="M1462.4,1551.5c-6.2,0-11.2-5-11.2-11.2v-18.7c0-40.5-27.1-77.3-65.9-89.5c-5.9-1.9-9.2-8.2-7.4-14.1        c1.9-5.9,8.2-9.2,14.1-7.4c23.1,7.2,43.9,22,58.5,41.5c15.1,20.2,23.1,44.2,23.1,69.4v18.7        C1473.6,1546.5,1468.6,1551.5,1462.4,1551.5z"/></g></g>
    <g><path d="M1335.4,1610.9c-19.6,0-35.6-16-35.6-35.6V1506c0-19.6,16-35.6,35.6-35.6s35.6,16,35.6,35.6v69.3       C1371,1594.9,1355,1610.9,1335.4,1610.9z M1335.4,1492.9c-7.2,0-13.1,5.9-13.1,13.1v69.3c0,7.2,5.9,13.1,13.1,13.1       s13.1-5.9,13.1-13.1V1506C1348.5,1498.8,1342.6,1492.9,1335.4,1492.9z"/></g></g></g><g><g><path d="M1190.8,476.9H1175c-23.3,0-45.7-11-60-29.5l-39.1-50.8c-10.6-13.7-27.2-21.9-44.5-21.9h-53c-6.2,0-11.2-5-11.2-11.2      s5-11.2,11.2-11.2h53c24.2,0,47.6,11.5,62.4,30.7l39.1,50.8c10,13,25.8,20.7,42.2,20.7h15.8c6.2,0,11.2,5,11.2,11.2      S1197,476.9,1190.8,476.9z"/></g>
    <g><path d="M1592.2,1373.1c-3.1,0-6.2-1.3-8.5-3.8c-4.1-4.7-3.6-11.8,1-15.9l43.2-37.9V999.9c0-14-2.8-27.6-8.4-40.4l-66.7-150.4      c-2.5-5.7,0-12.3,5.7-14.8s12.3,0,14.8,5.7l66.7,150.5c6.8,15.7,10.3,32.3,10.3,49.4v320.7c0,3.2-1.4,6.3-3.8,8.5l-47,41.2      C1597.5,1372.2,1594.9,1373.1,1592.2,1373.1z M1639.3,1320.6L1639.3,1320.6L1639.3,1320.6z"/></g>
    <g><path d="M1188.3,1647.8L1188.3,1647.8l-66.6-0.1c-29.7,0-54.6-21.4-59.9-49.7H797c-31,0-56.2-25.2-56.2-56.2v-43.1      c0-18.6-15.1-33.7-33.7-33.7H410.3c-33.5,0-60.8-27.3-60.8-60.8c0-21,8.2-40.8,23.1-55.7c0.1-0.1,0.2-0.2,0.4-0.3l66.9-61.3      v-58.8c0-6.2,5-11.2,11.2-11.2s11.2,5,11.2,11.2v63.7c0,3.2-1.3,6.2-3.7,8.3l-70.4,64.4c-10.5,10.6-16.3,24.7-16.3,39.6      c0,21.1,17.2,38.3,38.3,38.3H707c31,0,56.2,25.2,56.2,56.2v43.1c0,18.6,15.1,33.7,33.7,33.7H1072c6.2,0,11.2,5,11.2,11.2      c0,21.2,17.2,38.4,38.4,38.4l66.6,0.1c6.2,0,11.2,5.1,11.2,11.3C1199.6,1642.8,1194.5,1647.8,1188.3,1647.8z"/></g>
    <g><path d="M930,1598c-6.2,0-11.2-5-11.2-11.2V798.6c0-6.2,5-11.2,11.2-11.2s11.2,5,11.2,11.2v788.2      C941.2,1593,936.2,1598,930,1598z"/></g>
    <g><path d="M1639.3,1114.6H930c-6.2,0-11.2-5-11.2-11.2s5-11.2,11.2-11.2h709.3c6.2,0,11.2,5,11.2,11.2      C1650.5,1109.5,1645.5,1114.6,1639.3,1114.6z"/></g></g><g><g><path d="M930.4,727.6H365.5c-6.2,0-11.2-5-11.2-11.2V363.5c0-6.2,5-11.2,11.2-11.2h564.9c6.2,0,11.2,5,11.2,11.2v352.9      C941.6,722.6,936.6,727.6,930.4,727.6z M376.8,705.1h542.4V374.7H376.8V705.1z"/></g>
    <g><path d="M654.5,586.1h-289c-6.2,0-11.2-5-11.2-11.2s5-11.2,11.2-11.2h277.7V363.5c0-6.2,5-11.2,11.2-11.2s11.2,5,11.2,11.2      v211.4C665.7,581,660.7,586.1,654.5,586.1z"/></g>
    <g><path d="M541.6,541.6c-3.8,0-7.6-0.9-11.1-2.8l-20.2-10.7c-0.3-0.2-0.7-0.2-1,0l-20.2,10.6c-8,4.2-17.6,3.5-24.9-1.9      c-7.3-5.3-10.9-14.2-9.3-23.1l3.9-22.5c0.1-0.4-0.1-0.7-0.3-1l-16.3-16c-6.5-6.3-8.7-15.6-5.9-24.2s10.1-14.7,19.1-16l22.6-3.2      c0.4-0.1,0.7-0.3,0.8-0.6l10.1-20.4c4-8.1,12.1-13.1,21.1-13.1c0,0,0,0,0.1,0c9.1,0,17.2,5.1,21.1,13.2l10,20.5      c0.2,0.3,0.5,0.6,0.8,0.6l22.6,3.3c9,1.3,16.2,7.5,19,16.1s0.5,17.9-6,24.2l-16.4,15.9c-0.3,0.3-0.4,0.6-0.3,1l3.8,22.5      c1.5,8.9-2.1,17.8-9.5,23.1C551.2,540.1,546.4,541.6,541.6,541.6z M509.8,505.5c3.8,0,7.6,0.9,11,2.7l20.2,10.7      c0.2,0.1,0.6,0.3,1.2-0.1c0.6-0.4,0.5-0.9,0.4-1.1l-3.8-22.5c-1.3-7.7,1.3-15.5,6.9-20.9l16.4-15.9c0.2-0.2,0.5-0.5,0.3-1.1      c-0.2-0.7-0.7-0.7-0.9-0.8l-22.6-3.3l0,0c-7.7-1.1-14.3-6-17.7-13l-10-20.5c-0.1-0.2-0.3-0.6-1-0.6l0,0c-0.7,0-0.9,0.4-1,0.6      L499,440.2c-3.5,7-10.1,11.8-17.8,12.9l-22.6,3.2c-0.2,0-0.7,0.1-0.9,0.8c-0.2,0.7,0.1,1,0.3,1.1l16.3,16      c5.6,5.4,8.1,13.3,6.7,20.9l-3.9,22.5c0,0.2-0.1,0.7,0.4,1.1c0.6,0.4,1,0.2,1.2,0.1l20.2-10.6      C502.3,506.4,506.1,505.5,509.8,505.5z"/></g>
    <g><path d="M930.4,447.5H654.5c-6.2,0-11.2-5-11.2-11.2s5-11.2,11.2-11.2h275.9c6.2,0,11.2,5,11.2,11.2S936.6,447.5,930.4,447.5z"/></g>
    <g><path d="M930.4,516.2H654.5c-6.2,0-11.2-5-11.2-11.2s5-11.2,11.2-11.2h275.9c6.2,0,11.2,5,11.2,11.2S936.6,516.2,930.4,516.2z"/></g>
    <g><path d="M930.4,586.1H654.5c-6.2,0-11.2-5-11.2-11.2s5-11.2,11.2-11.2h275.9c6.2,0,11.2,5,11.2,11.2      C941.6,581,936.6,586.1,930.4,586.1z"/></g>
    <g><path d="M930.4,655.9H365.5c-6.2,0-11.2-5-11.2-11.2s5-11.2,11.2-11.2h564.9c6.2,0,11.2,5,11.2,11.2      C941.6,650.9,936.6,655.9,930.4,655.9z"/></g></g></g></g>
</svg>