<svg xmlns="http://www.w3.org/2000/svg" xml:space="preserve" version="1.1"
    style="shape-rendering:geometricPrecision;text-rendering:geometricPrecision;image-rendering:optimizeQuality;"
    viewBox="0 0 700 700" x="0px" y="0px" fill-rule="evenodd" clip-rule="evenodd"><defs><style type="text/css">
   
    .fil0 {fill:black}
   
  </style></defs>
    <g><path class="fil0" d="M575 470c0,31 25,56 55,60l0 111 -80 0 0 -459 -44 -28 1 -95 -66 -32 0 -16c0,-12 -20,-16 -24,-2l0 18 -67 32 1 375c0,6 5,12 11,12 7,0 12,-6 12,-12 0,-120 1,-240 1,-360l54 -27 53 27 0 94 43 25 1 448 -154 0 0 -52c67,-16 53,-109 -12,-109 -67,0 -80,93 -12,109l0 52 -86 0 0 -538c0,-7 -3,-11 -10,-13l-122 -31 0 -12c0,-16 -24,-16 -24,0l0 220 -90 35c-4,3 -8,8 -7,15l0 127c0,15 23,15 23,0l0 -122 98 -38 0 -200 108 27c0,177 0,353 0,530l-182 0 1 -69c53,-11 46,-91 -10,-91 -56,0 -64,77 -13,90l0 70 -18 0c-21,0 -21,26 0,26l665 0c22,0 22,-26 0,-26l-30 0 0 -113c27,-5 49,-28 49,-58 0,-81 -125,-81 -125,0z"/></g>
    <g><rect class="fil0" x="386" y="81" width="33.9176" height="75.6539"/>
        <rect class="fil0" x="436" y="81" width="33.9176" height="75.6539" />
        <rect class="fil0" x="386" y="173" width="33.9176" height="75.6539" />
        <rect class="fil0" x="386" y="266" width="33.9176" height="75.6539" />
        <rect class="fil0" x="386" y="358" width="33.9176" height="75.6539" />
        <rect class="fil0" x="386" y="451" width="33.9176" height="29.7469" />
        <rect class="fil0" x="386" y="588" width="33.9176" height="30.2399" />
        <rect class="fil0" x="436" y="173" width="33.9176" height="75.6539" />
        <rect class="fil0" x="436" y="266" width="33.9176" height="75.6539" />
        <rect class="fil0" x="436" y="358" width="33.9176" height="75.6539" />
        <rect class="fil0" x="436" y="451" width="33.9176" height="75.6539" />
        <rect class="fil0" x="436" y="543" width="33.9176" height="75.6539" />
        <rect class="fil0" x="485" y="266" width="33.9176" height="75.6539" />
        <rect class="fil0" x="485" y="358" width="33.9176" height="75.6539" />
        <rect class="fil0" x="485" y="451" width="33.9176" height="75.6539" />
        <rect class="fil0" x="485" y="543" width="33.9176" height="75.6539" />
        <rect class="fil0" x="144" y="111" width="33.9176" height="45.1182" />
        <rect class="fil0" x="194" y="112" width="33.9176" height="43.8167" />
        <rect class="fil0" x="95" y="303" width="33.9176" height="37.822" />
        <rect class="fil0" x="95" y="358" width="33.9176" height="75.6539" />
        <rect class="fil0" x="95" y="451" width="33.9176" height="75.6539" />
        <rect class="fil0" x="95" y="543" width="33.9176" height="75.6539" />
        <rect class="fil0" x="144" y="173" width="33.9176" height="75.6539" />
        <rect class="fil0" x="144" y="266" width="33.9176" height="75.6539" />
        <rect class="fil0" x="144" y="358" width="33.9176" height="75.6539" />
        <rect class="fil0" x="144" y="451" width="33.9176" height="75.6539" />
        <rect class="fil0" x="144" y="543" width="33.9176" height="75.6539" />
        <rect class="fil0" x="194" y="173" width="33.9176" height="75.6539" />
        <rect class="fil0" x="194" y="266" width="33.9176" height="75.6539" />
        <rect class="fil0" x="194" y="358" width="33.9176" height="75.6539" />
        <rect class="fil0" x="194" y="451" width="33.9176" height="75.6539" />
        <rect class="fil0" x="194" y="543" width="33.9176" height="75.6539" />
        <rect class="fil0" x="485" y="195" width="33.9176" height="54.1793" />
        <rect class="fil0" x="46" y="358" width="33.9176" height="75.6539" />
        <rect class="fil0" x="46" y="450" width="33.9176" height="24.1071" />
        <rect class="fil0" x="46" y="319" width="33.9176" height="21.7703" /></g>
</svg>