<svg xmlns="http://www.w3.org/2000/svg" fill="none" viewBox="0 0 120 120" x="0px" y="0px">
    <path fill="#000" fill-rule="evenodd"
        d="M66.816 109.636C91.206 106.312 110 85.399 110 60.096c0-28.498-24.509-52.387-52.965-49.913C30.8 11.718 10 33.478 10 60.097c0 29.64 27.579 54.076 56.816 49.539ZM35.051 44.954c-2.203-6.293-2.153-15.384 3.984-20.819 9.305-8.24 27.191-7.163 37.803-3.181C88.517 26.626 89 30.797 89 31.097c0 1.386-.692 2.723-3.124 4.838-2.338 2.033-5.031 3.754-6.618 6.5-.948 1.642-1.93 4.446-.847 7.692 1.07 3.213 3.48 5.707 5.578 8.277 2.207 2.706 3.622 5.493 4.843 8.714v.001c1.298 3.42 2.518 6.637 2.48 10.717-.039 4.327-1.643 10.427-9.732 17.877-6.143 5.657-24.08 9.287-31.204 4.955-.54-3.893.506-8 1.958-13.703 2.165-8.5 4.232-17.825-1.349-25.552-3.332-4.614-7.222-7.468-9.864-9.405-2.614-1.918-4.96-3.883-6.07-7.054Zm60.212-7.682c-1.636 2.727-4.124 4.732-6.119 6.34-2.015 1.623-3.526 2.84-3.144 3.985.401 1.204 1.609 2.65 3.072 4.403 3.08 3.69 5.395 7.453 7.114 11.92 1.117 2.905 2.596 6.747 3.013 11.288A41.904 41.904 0 0 0 102 60.097a41.803 41.803 0 0 0-6.737-22.825ZM42.245 98.171c.07-4.44 1.23-8.927 2.342-13.227 1.85-7.152 3.566-13.79-.087-18.847-2.536-3.512-5.325-5.573-7.966-7.525-3.643-2.693-7.005-5.178-9.034-10.975-1.128-3.223-1.915-7.42-1.734-11.838A41.809 41.809 0 0 0 18 60.097c0 16.85 9.924 31.384 24.245 38.074Z"
        clip-rule="evenodd" />
</svg>