<svg xmlns="http://www.w3.org/2000/svg" version="1.1" x="0px" y="0px" viewBox="0 0 512 512"
    style="enable-background:new 0 0 512 512;" xml:space="preserve"><path d="M320.3,194.7c3.1,2.2,3.8,6.6,1.6,9.7c-2.3,3.1-6.6,3.8-9.8,1.6L296,194.4c-3.1-2.2-3.9-6.6-1.6-9.7  c2.2-3.1,6.6-3.9,9.7-1.6L320.3,194.7z M312.1,131.2c3.1-2.2,7.5-1.5,9.8,1.6c2.2,3.1,1.5,7.5-1.6,9.8l-16.1,11.6  c-3.1,2.2-7.5,1.5-9.7-1.6c-2.3-3.1-1.6-7.5,1.6-9.7L312.1,131.2z M319.9,161.6c3.9,0,7,3.1,7,7c0,3.9-3.1,7-7,7h-19.9  c-3.9,0-7-3.1-7-7c0-3.9,3.1-7,7-7H319.9z M229.7,139.8h4.6l46.5-29.9c4.7-3,10.8,0.4,10.7,5.9h0v105.6c0,5.4-6,9.2-11.2,5.6  l-46.1-29.7h-2.7v24.3c0,12.1-14.8,18.5-23.5,9.8c-2.5-2.5-4-6-4-9.8v-26.1c-19.6-7.1-25.6-32.4-10.5-47.4  c5.2-5.2,12.4-8.4,20.4-8.4H229.7z M236.7,183.4c1.2,0.1,2.4,0.4,3.5,1.1l37.5,24.1v-80l-37.1,23.8c-1.1,0.8-2.4,1.3-3.9,1.4V183.4z   M222.7,153.8h-8.8c-13,0-19.9,15.8-10.5,25.3c2.7,2.7,6.5,4.3,10.5,4.3h8.8V153.8z M256,65.1c56.8,0,102.9,46.1,102.9,102.9  c0,56.8-46.1,102.9-102.9,102.9c-56.8,0-102.9-46.1-102.9-102.9C153.1,111.2,199.2,65.1,256,65.1L256,65.1z M318.8,105.1  c-34.7-34.7-91-34.7-125.7,0c-34.7,34.7-34.7,91,0,125.7c34.7,34.7,91,34.7,125.7,0C353.5,196.1,353.5,139.8,318.8,105.1  L318.8,105.1z M256,24c92.8,0,160.8,86.9,139.4,176.7c-3.1,13-8.7,27.3-15.8,39.1l-42.1,77.1h98.6c3.6,0,6.6,2.7,7,6.3l28.7,156.1  c1.1,4.9-2.4,8.8-6.8,8.8H47.1c-4.4,0-7.9-3.9-6.7-8.8l28.7-156.6c0.6-3.3,3.5-5.7,6.9-5.7v0h98.6l-42.3-77.4l0,0  c-32.7-56-23.6-127.4,22.5-173.5C180.6,40,216.4,24,256,24L256,24z M329.8,330.8l-67.7,123.8c-2.7,4.9-9.6,4.8-12.3,0l-67.7-123.8  H81.7l-7.3,39.8c30.7-7.5,61.7,3.1,82.9,26.2c18.3,20,28,47.8,25.5,77.2h146.4c-2.4-29.4,7.2-57.2,25.5-77.2  c21.1-23.1,52.1-33.7,82.9-26.2l-7.3-39.8H329.8z M347.4,75.9c-50.5-50.5-132.4-50.5-182.9,0c-31.3,31.3-45,77.1-34.3,121.6  c3,12.5,7.7,24.1,14,35h0l0.1,0.2l47.8,87.3c0.2,0.3,0.4,0.7,0.6,1.1L256,436.8L319.3,321c0.2-0.4,0.4-0.7,0.6-1.1l47.5-86.9  l3.9-7.2C396.6,175.6,387.1,115.5,347.4,75.9L347.4,75.9z M418,382.2c-20.7,0-39.4,9.2-53,24c-16,17.5-24.3,42.1-21.8,67.8h113.3  l-16.2-88C433.2,383.5,425.7,382.2,418,382.2L418,382.2z M147,406.2C127.6,385,98.6,376.7,71.6,386l-16.2,88h113.3  C171.2,448.3,163,423.7,147,406.2L147,406.2z"/>
</svg>