<svg xmlns="http://www.w3.org/2000/svg" data-name="Layer 1" viewBox="0 0 48 48" x="0px" y="0px">
    <path
        d="M40.1865234,25.4628906c.1889648-.0761719,.3134766-.2587891,.3134766-.4628906V6.7333984c0-.1279297-.0493164-.2519531-.1376953-.3447266-.1318359-.1376953-3.2949219-3.3789062-9.4604492-2.1455078-2.4204102,.484375-3.9814453,1.6640625-5.3583984,2.7060547-1.6201172,1.2255859-3.0195312,2.2841797-5.543457,2.2841797-4.1220703,0-6.8557129-2.1558838-7.5-2.7203369v-1.0130615c0-1.1025391-.8969727-2-2-2s-2,.8974609-2,2V44c0,.2763672,.2236328,.5,.5,.5h3c.2763672,0,.5-.2236328,.5-.5V26.0626221c1.2578125,.9291992,3.8569336,2.4373779,7.5,2.4373779,2.859375,0,4.5307617-1.2636719,6.1469727-2.4863281,1.3544922-1.0244141,2.7548828-2.0839844,4.9511719-2.5234375,5.6000977-1.1191406,8.4228516,1.7324219,8.5405273,1.8554688,.140625,.1464844,.3579102,.1933594,.5478516,.1171875ZM11.5,43.5h-2V5.5c0-.5517578,.4487305-1,1-1s1,.4482422,1,1V43.5Zm28-19.5517578c-1.3334961-.9228516-4.2026367-2.3173828-8.5981445-1.4384766-2.4204102,.484375-3.9814453,1.6640625-5.3583984,2.7060547-1.6201172,1.2255859-3.0195312,2.2841797-5.543457,2.2841797-4.1220703,0-6.8557129-2.1558838-7.5-2.7203369V7.7960205c1.2578125,.9291992,3.8569336,2.4373779,7.5,2.4373779,2.859375,0,4.5307617-1.2636719,6.1469727-2.4863281,1.3544922-1.0244141,2.7548828-2.0839844,4.9511719-2.5234375,4.9814453-.9931641,7.7636719,1.1503906,8.4018555,1.7236328V23.9482422Z" />
</svg>