<svg xmlns="http://www.w3.org/2000/svg" data-name="Layer 1" viewBox="0 0 64 64" x="0px" y="0px">
    <path
        d="M57.77148,43.36328A.99889.99889,0,0,0,57,42.999H54V32.7207A1.99375,1.99375,0,0,0,55,30.999v-1a2.0026,2.0026,0,0,0-2-2H42v-2a2.0026,2.0026,0,0,0,2-2v-1a2.0026,2.0026,0,0,0-2-2H40v-1a7.00849,7.00849,0,0,0-7-7V9.92285A3.83072,3.83072,0,0,1,34.70312,9.626a4.12464,4.12464,0,0,1,1.66407.55664,6.74724,6.74724,0,0,0,2.15234.75586,5.55525,5.55525,0,0,0,.81738.06054,6.80718,6.80718,0,0,0,3.1211-.82129A.999.999,0,0,0,43,9.28906V2.67188a1.001,1.001,0,0,0-1.458-.88965,4.49975,4.49975,0,0,1-2.72754.56054h-.001a4.84561,4.84561,0,0,1-1.54883-.56543,5.61663,5.61663,0,0,0-5.74317.01661A.99949.99949,0,0,0,31,2.67188V12.999a7.00849,7.00849,0,0,0-7,7v1H22a2.0026,2.0026,0,0,0-2,2v1a2.0026,2.0026,0,0,0,2,2v2H11a2.0026,2.0026,0,0,0-2,2v1a1.99375,1.99375,0,0,0,1,1.72168V42.999H7a1.00049,1.00049,0,0,0-.98145,1.19141C8.14746,55.08887,19.07422,62.999,32,62.999s23.85254-7.91015,25.98145-18.80859A.997.997,0,0,0,57.77148,43.36328ZM33,3.30176a3.7335,3.7335,0,0,1,1.70312-.29395,4.14471,4.14471,0,0,1,1.66407.55664,6.71172,6.71172,0,0,0,2.15332.75684A5.8937,5.8937,0,0,0,41,4.14258V8.64941A4.18315,4.18315,0,0,1,38.81348,8.96a4.83192,4.83192,0,0,1-1.54786-.56543,6.01526,6.01526,0,0,0-2.41308-.76269c-.13379-.00977-.26758-.01563-.40234-.01563A5.57422,5.57422,0,0,0,33,7.81152ZM53,29.999v1H42v-1Zm-18,7H29a.99943.99943,0,0,0-1,1v5H24v-17H40v17H36v-5A.99943.99943,0,0,0,35,36.999Zm-5,2h4v4H30Zm3,12.023a54.81161,54.81161,0,0,1,9.77289.99549A17.81314,17.81314,0,0,1,39.04541,56.939,30.26129,30.26129,0,0,0,33,56.18353Zm0-1.99994V44.999H44.8905A20.26208,20.26208,0,0,1,43.623,50.15826c-.13947-.02929-.27039-.06549-.41108-.09381A56.77357,56.77357,0,0,0,33,49.02209ZM42,42.999v-10H52v10Zm-16-23a5.00589,5.00589,0,0,1,5-5h2a5.00589,5.00589,0,0,1,5,5v1H26Zm-4,3H42l.002,1H22Zm9,22v4.02619a56.49129,56.49129,0,0,0-10.68829,1.16058A20.42775,20.42775,0,0,1,19.0329,44.999Zm0,6.02613v5.15838a30.17563,30.17563,0,0,0-6.117.77362A18.0554,18.0554,0,0,1,21.1673,52.055,54.72436,54.72436,0,0,1,31,51.02515ZM12,42.999v-10H22v10Zm-1-13H22v1H11Zm-2.74414,15h8.76788a22.4958,22.4958,0,0,0,1.31995,5.63825,38.29593,38.29593,0,0,0-5.94867,2.019A19.17968,19.17968,0,0,1,8.25586,44.999Zm12.23541,13.569a24.10522,24.10522,0,0,1-6.62207-4.371,37.78485,37.78485,0,0,1,5.28259-1.70257,20.29486,20.29486,0,0,0,3.53339,5.10608A15.66874,15.66874,0,0,0,20.49127,58.56805ZM32,60.999a28.42982,28.42982,0,0,1-8.89935-1.42224A26.38652,26.38652,0,0,1,32,58.1582a26.38721,26.38721,0,0,1,8.89941,1.41852A28.4305,28.4305,0,0,1,32,60.999Zm11.50873-2.431a15.7688,15.7688,0,0,0-2.25775-.98846,20.17292,20.17292,0,0,0,3.52881-5.10675,37.6456,37.6456,0,0,1,5.3449,1.72955A24.10716,24.10716,0,0,1,43.50873,58.56805Zm8.09393-5.90887a38.22588,38.22588,0,0,0-6.01086-2.05151A22.33662,22.33662,0,0,0,46.89954,44.999h8.8446A19.17971,19.17971,0,0,1,51.60266,52.65918Z" />
    <rect x="44" y="34.99902" width="2" height="2" />
    <rect x="48" y="34.99902" width="2" height="2" />
    <rect x="44" y="38.99902" width="2" height="2" />
    <rect x="48" y="38.99902" width="2" height="2" />
    <rect x="14" y="34.99902" width="2" height="2" />
    <rect x="18" y="34.99902" width="2" height="2" />
    <rect x="14" y="38.99902" width="2" height="2" />
    <rect x="18" y="38.99902" width="2" height="2" />
    <rect x="26" y="28.99902" width="12" height="2" />
    <rect x="26" y="32.99902" width="12" height="2" />
</svg>