<svg xmlns="http://www.w3.org/2000/svg" data-name="Layer 1" viewBox="0 0 128 128" x="0px" y="0px">
    <path
        d="M.40332,114.2041A1.9999,1.9999,0,0,0,2,115H126a2.00017,2.00017,0,0,0,1.92285-2.5498l-20-70A1.99985,1.99985,0,0,0,106,41H82.01575c-.00708-.00006-.014,0-.02106,0H46.458c-.01361.00018-.02728-.00049-.04083,0H41.47894c-.66229,1.36774-1.35278,2.7124-2.04126,4h4.68774l-.977,5.66016a1.99815,1.99815,0,0,0,.48438,1.67773l2.96191,3.291L44.0498,57.23828a2.00012,2.00012,0,0,0-.54,2.87793l3.71582,5.03418-4.96252,7.47083L31.97461,72.585,27.38867,66.749l-1.90039-4.19141A1.99889,1.99889,0,0,0,24.0498,61.4209l-4.9566-.96661,2.728-9.54773c-.83142-1.34943-1.79865-2.9762-2.79742-4.76947L.07715,112.4502A1.99861,1.99861,0,0,0,.40332,114.2041Zm50.873-50.30176L48.00488,59.4707l2.73145-1.72754a1.99965,1.99965,0,0,0,.417-3.02832l-3.89844-4.33105L48.18414,45h30.791l-2.71344,6.373-5.2373.81836a1.998,1.998,0,0,0-1.53516,1.20117l-2,4.76172a1.99876,1.99876,0,0,0,.65527,2.38281l3.41486,2.523a18.1065,18.1065,0,0,1,2.71942-2.96381l-2.49365-1.84241.96-2.2832,5.23047-.81738a1.99739,1.99739,0,0,0,1.53125-1.19238L83.32184,45h21.16937l10.43365,36.51727-6.16705-3.04462-4.36328-7.48047a2.005,2.005,0,0,0-1.29492-.94531l-1.58624-.351A17.75608,17.75608,0,0,1,102,73.751c0,.319-.01965.65308-.04791.99365l3.65338,6.26318a1.98816,1.98816,0,0,0,.84277.78516l9.96008,4.91626L123.34863,111H75.66718a1.99538,1.99538,0,0,0-.15643-.77539l-2.667-6.34082a2.00666,2.00666,0,0,0-.87793-.97656l-11.082-6.1084,1.61328-3.65918a1.99885,1.99885,0,0,0-.81934-2.53223l-6.27905-3.67554,9.52319-13.75024,3.08093.51318a17.76177,17.76177,0,0,1,.478-3.97583l-4.15167-.69165a1.99616,1.99616,0,0,0-1.97363.834L51.93616,84.905,50.667,84.16211V80a2.00491,2.00491,0,0,0-.58008-1.40918L45.90137,74.373,51.333,66.19629A1.99951,1.99951,0,0,0,51.27637,63.90234Zm-33.28607.412,4.28119.83508,1.57422,3.47168a1.99283,1.99283,0,0,0,.249.40918l5.333,6.78613a1.99577,1.99577,0,0,0,1.56543.76465l11.50391.041L46.667,80.82422v4.48438a2.00017,2.00017,0,0,0,.98926,1.72559l10.46094,6.124-1.63184,3.70215a2.00045,2.00045,0,0,0,.86426,2.55859l12.07617,6.65625L71.49713,111H4.65137Z" />
    <path
        d="M29,53h.02441a2.00083,2.00083,0,0,0,1.666-.93164C31.84766,50.2373,42,33.9707,42,26.751,42,19.42578,35.9248,13,29,13S16,19.42578,16,26.751c0,8.12012,10.17578,23.61816,11.33594,25.3584A2.00054,2.00054,0,0,0,29,53Zm0-36c4.79395,0,9,4.55664,9,9.751,0,4.35352-5.53809,14.58887-9.03906,20.47754C25.4668,41.57715,20,31.68945,20,26.751,20,21.55664,24.20605,17,29,17Z" />
    <path
        d="M36,26.25a7,7,0,1,0-7,7A7.00849,7.00849,0,0,0,36,26.25Zm-10,0a3,3,0,1,1,3,3A3.00328,3.00328,0,0,1,26,26.25Z" />
    <path
        d="M85,100h.02441a2.00083,2.00083,0,0,0,1.666-.93164C87.84766,97.2373,98,80.9707,98,73.751,98,66.42578,91.9248,60,85,60S72,66.42578,72,73.751c0,8.12012,10.17578,23.61816,11.33594,25.3584A2.00054,2.00054,0,0,0,85,100Zm0-36c4.79395,0,9,4.55664,9,9.751,0,4.35352-5.53809,14.58887-9.03906,20.47754C81.4668,88.57715,76,78.68945,76,73.751,76,68.55664,80.20605,64,85,64Z" />
    <path
        d="M92,73.25a7,7,0,1,0-7,7A7.00849,7.00849,0,0,0,92,73.25Zm-10,0a3,3,0,1,1,3,3A3.00328,3.00328,0,0,1,82,73.25Z" />
</svg>