<svg class="svg-icon"
    style="width: 1em; height: 1em;vertical-align: middle;fill: currentColor;overflow: hidden;"
    viewBox="0 0 1024 1024" version="1.1" xmlns="http://www.w3.org/2000/svg">
    <path
        d="M708.923077 393.846154c0-43.323077-35.446154-78.769231-78.769231-78.769231H118.153846c-43.323077 0-78.769231 35.446154-78.769231 78.769231v512c0 43.323077 35.446154 78.769231 78.769231 78.769231h512c43.323077 0 78.769231-35.446154 78.769231-78.769231V393.846154z m-157.538462 275.692308c0 9.846154-9.846154 19.692308-19.692307 19.692307h-118.153846v118.153846c0 9.846154-9.846154 19.692308-19.692308 19.692308h-39.384616c-9.846154 0-19.692308-9.846154-19.692307-19.692308v-118.153846h-118.153846c-9.846154 0-19.692308-9.846154-19.692308-19.692307v-39.384616c0-9.846154 9.846154-19.692308 19.692308-19.692308h118.153846v-118.153846c0-9.846154 9.846154-19.692308 19.692307-19.692307h39.384616c9.846154 0 19.692308 9.846154 19.692308 19.692307v118.153846h118.153846c9.846154 0 19.692308 9.846154 19.692307 19.692308v39.384616z m295.384616 157.538461h-59.076923v-118.153846h59.076923c11.815385 0 19.692308-7.876923 19.692307-19.692308V177.230769c0-11.815385-7.876923-19.692308-19.692307-19.692307H334.769231c-11.815385 0-19.692308 7.876923-19.692308 19.692307v59.076923h-118.153846V177.230769c0-76.8 61.046154-137.846154 137.846154-137.846154h512c76.8 0 137.846154 61.046154 137.846154 137.846154v512c0 76.8-61.046154 137.846154-137.846154 137.846154z" />
</svg>