<?xml version="1.0"?>
<svg width="68.879" height="68.879" xmlns="http://www.w3.org/2000/svg" fill="white">
 <g>
  <rect fill="none" height="402" width="582" y="-1" x="-1"/>
 </g>
 <g>
  <g>
   <path d="m41.380001,0c-12.728001,0 -23.401001,8.939 -26.090001,20.867001l-4.319,-5.27l-3.867,3.17l9.903999,12.083l12.083,-9.904001l-3.17,-3.866999l-5.705,4.675999c2.264,-9.591999 10.891001,-16.754999 21.164001,-16.754999c11.992001,0 21.749001,9.757 21.749001,21.749001c0,11.993 -9.757,21.75 -21.749001,21.75l-6.146999,0c-1.427002,-8.156002 -8.543001,-14.380001 -17.104002,-14.380001c-9.582,0 -17.379,7.796001 -17.379,17.380001s7.797,17.379997 17.379,17.379997c8.906,0 16.26,-6.735996 17.257002,-15.379997l5.993999,0c14.749001,0 26.748997,-12 26.748997,-26.75c0,-14.749001 -11.999996,-26.749001 -26.748997,-26.749001zm-23.251001,62.382999c-6.002,0 -10.885,-4.882 -10.885,-10.884998s4.883,-10.885002 10.885,-10.885002s10.885,4.882 10.885,10.885002s-4.882999,10.884998 -10.885,10.884998z"/>
  </g>
  <g stroke="null" id="svg_39">
   <g stroke="null" transform="matrix(1.65592 0 0 1.65592 -9.96449 -12.9617)" id="svg_22">
    <path stroke="null" id="svg_23" d="m30.793932,16.630028l0.898001,1.452999l-1.625,1.191l-0.925001,-1.495998l-1.305998,0.807999l-0.809002,-1.306999l1.308001,-0.809l0.809,1.306l1.65,-1.146zm0.082001,3.950001l-0.807001,-1.306002l-1.307999,0.808001l0.806999,1.306l1.308001,-0.807999zm7.485998,-2.831001l-0.143997,0.312c-0.260002,1.43 -1.146,2.388 -1.805,2.795c-1.426003,0.881001 -2.903,0.353001 -2.964001,0.331001c-0.958,-0.203001 -1.813999,-0.087002 -2.52,0.349998c-1.308001,0.809 -1.681,2.466999 -1.683998,2.486l-0.087002,0.407001l5.182003,8.378l-0.839005,0.520996l-9.228998,-14.919998c-0.177,0.070002 -0.383999,0.012001 -0.487999,-0.156c-0.118,-0.191 -0.059,-0.438999 0.130999,-0.556999l0.694,-0.427999c0.188,-0.118002 0.438002,-0.059 0.556,0.132c0.098,0.159 0.067001,0.354 -0.056,0.484999l0.249001,0.404001l0.006001,-0.013c0.542,-1.315001 1.231998,-2.238001 2.049999,-2.742001c1.483999,-0.917 2.84,-0.153999 2.896999,-0.121c1.160002,0.676001 1.986,0.458 2.473999,0.156c0.209003,-0.129999 0.319004,-0.255999 0.319004,-0.255999c1.145996,-1.005001 1.606998,-2.143002 1.809998,-2.559c0.202,-0.415001 0.563,0.382999 0.563,0.382999l2.884998,4.612zm-3.617996,-3.906l0.209,0.338001l0.513,-0.400002l-0.41,-0.661999c-0.084003,0.167 -0.160004,0.470999 -0.312,0.723999zm-5.607002,9.391001l-0.235001,0.146l0.111002,0.177c0.032,-0.093 0.074999,-0.205999 0.123999,-0.323zm4.249001,-2.412001l-0.18,-0.291l-0.175999,0.238001c0.116997,0.012999 0.237,0.028999 0.355999,0.052999zm1.266998,-0.875999l-0.706997,-1.142l1.432999,-1.01l-0.809002,-1.306l-1.431,1.012001l-0.838997,-1.355001c-0.168003,0.040001 -0.356001,0.064001 -0.563002,0.062l-0.941999,0.424l-0.518002,-0.834c-0.047998,-0.027 -0.094997,-0.051001 -0.143999,-0.079c-0.016001,-0.008999 -0.141001,-0.078999 -0.346001,-0.146999l-1.452999,0.899l-0.481001,-0.775c-0.083,0.039 -0.167999,0.085999 -0.254,0.139c-0.334999,0.206999 -0.644999,0.497 -0.934,0.859999l0.361,0.586l-1.146999,0.708c-0.052,0.111 -0.103001,0.221001 -0.153,0.339001l0.707001,1.125999l1.401999,-0.867001l0.926001,1.495001l-1.390999,0.861l0.816999,1.299999l1.380999,-0.854l0.351002,0.565001c0.226999,-0.264 0.496998,-0.514 0.824999,-0.718c0.132,-0.08 0.269001,-0.146999 0.407999,-0.209999l-0.275999,-0.446001l1.632002,-1.175999l-0.816002,-1.320002l1.445,-0.582998l0.806999,1.304998l-1.434998,0.598001l0.668999,1.080999l1.474998,-0.538zm3.189003,-2.361l-0.021004,-0.034l-0.501999,0.456001l-0.697998,-1.126001l0.525997,-0.409l-0.870998,-1.393999l-0.464001,0.496l-0.857998,-1.390001l-0.757,0.468c-0.132999,0.176001 -0.281002,0.349001 -0.438,0.519001l0.812,1.314999l1.243,-0.913l0.806999,1.308001l-1.241001,0.912001l0.707001,1.142l-1.396,1.072001l0.576,0.93c0.312,-0.065001 0.639,-0.182001 0.960999,-0.381001c0.205002,-0.127001 0.396999,-0.282001 0.576,-0.461l-0.716999,-1.159l1.231998,-0.928999l0.41,0.662998l0.113003,-1.084999z"/>
   </g>
   <g stroke="null" transform="matrix(1.65592 0 0 1.65592 -9.96449 -12.9617)" id="svg_24"/>
   <g stroke="null" transform="matrix(1.65592 0 0 1.65592 -9.96449 -12.9617)" id="svg_25"/>
   <g stroke="null" transform="matrix(1.65592 0 0 1.65592 -9.96449 -12.9617)" id="svg_26"/>
   <g stroke="null" transform="matrix(1.65592 0 0 1.65592 -9.96449 -12.9617)" id="svg_27"/>
   <g stroke="null" transform="matrix(1.65592 0 0 1.65592 -9.96449 -12.9617)" id="svg_28"/>
   <g stroke="null" transform="matrix(1.65592 0 0 1.65592 -9.96449 -12.9617)" id="svg_29"/>
   <g stroke="null" transform="matrix(1.65592 0 0 1.65592 -9.96449 -12.9617)" id="svg_30"/>
   <g stroke="null" transform="matrix(1.65592 0 0 1.65592 -9.96449 -12.9617)" id="svg_31"/>
   <g stroke="null" transform="matrix(1.65592 0 0 1.65592 -9.96449 -12.9617)" id="svg_32"/>
   <g stroke="null" transform="matrix(1.65592 0 0 1.65592 -9.96449 -12.9617)" id="svg_33"/>
   <g stroke="null" transform="matrix(1.65592 0 0 1.65592 -9.96449 -12.9617)" id="svg_34"/>
   <g stroke="null" transform="matrix(1.65592 0 0 1.65592 -9.96449 -12.9617)" id="svg_35"/>
   <g stroke="null" transform="matrix(1.65592 0 0 1.65592 -9.96449 -12.9617)" id="svg_36"/>
   <g stroke="null" transform="matrix(1.65592 0 0 1.65592 -9.96449 -12.9617)" id="svg_37"/>
   <g stroke="null" transform="matrix(1.65592 0 0 1.65592 -9.96449 -12.9617)" id="svg_38"/>
  </g>
 </g>
</svg>