<?xml version="1.0" encoding="UTF-8" standalone="no"?>
<svg version="1.1" xmlns="http://www.w3.org/2000/svg" xmlns:xlink="http://www.w3.org/1999/xlink"
     preserveAspectRatio="xMidYMid meet" viewBox="0 0 640 640" width="640" height="640" style="fill:white">
    <defs>
        <path d="M84.58 476.66C78.71 476.66 73.9 481.43 73.9 487.34C73.9 501.54 73.9 615.17 73.9 629.37C73.9 635.23 78.71 640 84.58 640C98.78 640 212.41 640 226.61 640C232.47 640 237.24 635.23 237.24 629.37C237.24 625.81 237.24 608.02 237.24 575.99C385.57 575.99 467.98 575.99 484.46 575.99C494.19 575.99 502.09 568.09 502.09 558.35C502.09 548.2 502.09 497.45 502.09 406.09C534.12 406.09 551.92 406.09 555.47 406.09C561.33 406.09 566.1 401.27 566.1 395.41C566.1 381.21 566.1 267.63 566.1 253.43C566.1 247.52 561.33 242.75 555.47 242.75C551.92 242.75 534.12 242.75 502.09 242.75C502.09 151.39 502.09 100.64 502.09 90.48C502.09 80.75 494.19 72.81 484.46 72.81C467.98 72.81 385.57 72.81 237.24 72.81C237.24 35.5 237.24 14.77 237.24 10.63C237.24 4.77 232.47 0 226.61 0C212.41 0 98.78 0 84.58 0C78.71 0 73.9 4.77 73.9 10.63C73.9 24.83 73.9 138.46 73.9 152.66C73.9 158.52 78.71 163.34 84.58 163.34C98.78 163.34 212.41 163.34 226.61 163.34C232.47 163.34 237.24 158.52 237.24 152.66C237.24 149.7 237.24 134.86 237.24 108.16L466.78 108.16L466.78 242.8C434.77 242.8 417 242.8 413.44 242.8C407.58 242.8 402.76 247.57 402.76 253.48C402.76 257.03 402.76 274.81 402.76 306.81L237.24 306.81C237.24 274.81 237.24 257.03 237.24 253.48C237.24 247.57 232.47 242.8 226.61 242.8C212.41 242.8 98.78 242.8 84.58 242.8C78.71 242.8 73.9 247.57 73.9 253.48C73.9 267.68 73.9 381.26 73.9 395.46C73.9 401.32 78.71 406.14 84.58 406.14C98.78 406.14 212.41 406.14 226.61 406.14C232.47 406.14 237.24 401.32 237.24 395.46C237.24 391.91 237.24 374.13 237.24 342.12L402.76 342.12C402.76 374.13 402.76 391.91 402.76 395.46C402.76 401.32 407.58 406.14 413.44 406.14C417 406.14 434.77 406.14 466.78 406.14L466.78 540.68L237.24 540.68C237.24 508.67 237.24 490.89 237.24 487.34C237.24 481.43 232.47 476.66 226.61 476.66C198.2 476.66 98.78 476.66 84.58 476.66Z"
              id="b4SrNIpeZO"></path>
    </defs>
    <g>
        <g>
            <use xlink:href="#b4SrNIpeZO" opacity="1" fill-opacity="1"></use>
            <g>
                <use xlink:href="#b4SrNIpeZO" opacity="1" fill-opacity="0" stroke="#000000" stroke-width="1"
                     stroke-opacity="0"></use>
            </g>
        </g>
    </g>
</svg>