<?xml version="1.0" encoding="utf-8"?>
<svg version="1.1" xmlns="http://www.w3.org/2000/svg" x="0px" y="0px"
     viewBox="0 0 1000 1000" xml:space="preserve" style="fill:white">
    <g><g transform="translate(0.000000,512.000000) scale(0.100000,-0.100000)">
        <path d="M4538.1,5000.7c-944.8-84.3-1935.6-494.4-2665.8-1105.8c-241.5-201.2-611.3-586.5-783.8-814.5C571,2390.4,250.9,1606.6,124.4,719.3c-32.6-226.1-32.6-981.2,0-1207.4C258.6-1423.3,617-2266.6,1176.6-2960.4c201.2-249.2,615.2-651.6,858.6-835.6c684.2-511.7,1471.9-833.7,2357.3-960.2c226.1-32.6,981.2-32.6,1207.4,0c891.2,126.5,1667.3,444.6,2363,965.9c228.1,170.6,649.7,578.8,837.5,810.7c525.1,645.9,895,1462.3,1033,2280.6c103.5,601.8,86.3,1257.2-49.8,1887.7c-141.8,668.8-517.5,1445-967.8,2002.7c-201.2,249.1-615.2,651.6-858.6,835.6C6970.1,4766.9,5768.5,5109.9,4538.1,5000.7z M5695.6,4765c1021.5-162.9,1945.2-638.2,2656.2-1366.5c369.9-377.5,620.9-732.1,858.6-1213.1c302.8-611.4,452.3-1209.3,475.3-1908.8c42.2-1301.3-415.9-2495.2-1316.6-3426.7c-678.4-701.4-1556.2-1174.8-2508.7-1351.1c-1544.7-289.4-3123.9,210.8-4220.1,1333.9c-369.9,377.6-620.9,732.1-858.6,1213.1C479-1342.9,329.5-744.9,306.5-47.3c-36.4,1128.8,283.7,2129.2,979.3,3047.2c138,182.1,498.3,555.8,684.2,711c716.8,597.9,1609.8,981.2,2518.2,1079C4735.5,4816.7,5463.7,4801.4,5695.6,4765z"/>
        <path
            d="M4770,2921.3c-145.6-72.8-251-212.7-279.8-377.5c-19.2-103.5,19.2-266.4,84.3-354.6l53.7-74.7l-109.2-34.5c-529-164.8-948.7-657.4-1034.9-1211.2c-11.5-82.4-21.1-423.5-21.1-843.3c0-387.1-9.6-768.5-19.2-845.2c-23-172.5-70.9-285.6-174.4-408.2c-65.2-76.7-90.1-93.9-139.9-93.9c-70.9,0-170.6-61.3-228.1-136.1c-93.9-126.5-46-333.5,95.8-421.6c72.8-46,72.8-46,826-51.7c412-3.8,751.3-9.6,751.3-15.3c0-3.8-13.4-28.8-28.8-53.7c-15.3-23-38.3-90.1-49.8-149.5c-42.2-207,70.9-435,268.3-536.6c197.4-103.5,471.5-55.6,607.5,105.4c153.3,180.2,170.6,402.5,49.8,630.5c-3.8,7.7,333.5,15.3,747.4,19.2c753.2,5.8,753.2,5.8,826,51.7c141.8,88.2,189.7,295.1,95.8,421.6c-51.7,67.1-155.2,136.1-207,136.1c-26.8,0-76.7,36.4-130.3,92C6558-1019,6548.5-965.3,6529.3,58.1c-15.3,885.4-17.3,919.9-118.8,1155.6c-174.4,412-528.9,737.8-939.1,866.3l-109.2,34.5l38.3,49.8c191.7,241.5,107.3,607.5-172.5,753.2C5088.1,2990.3,4913.7,2992.2,4770,2921.3z M5159,2723.9c30.7-17.2,76.7-67.1,99.7-109.2c78.6-138,46-283.6-88.2-391c-65.2-51.7-93.9-63.2-178.2-65.2c-95.8-1.9-107.3,3.8-191.7,84.3c-61.3,61.3-92,109.2-101.6,159.1C4647.3,2670.2,4921.4,2861.9,5159,2723.9z M5251,1928.6c465.7-90.1,852.8-431.2,1011.9-893.1c40.3-116.9,42.2-168.6,55.6-929.5c15.3-785.8,19.2-856.7,61.3-1054.1c21.1-99.7,115-304.7,149.5-325.8c9.6-5.8,19.2-19.2,19.2-30.7c0-9.6-592.2-17.2-1544.7-17.2H3459.1l42.2,69c151.4,243.4,157.2,283.6,172.5,1291.7c11.5,837.5,13.4,877.7,55.6,996.6c67.1,189.7,164.8,354.5,302.8,498.3C4352.2,1873,4793,2014.8,5251,1928.6z M6889.6-1544.1c53.7-38.3,57.5-132.2,5.8-161c-51.7-26.8-3746.7-26.8-3798.5,0c-51.8,28.8-47.9,122.6,5.7,161c38.3,26.8,249.1,30.7,1893.5,30.7C6640.5-1513.4,6851.3-1517.3,6889.6-1544.1z M5149.4-1977.2c95.8-65.2,138-136.1,147.6-239.6c26.8-316.2-406.3-446.5-563.5-166.7c-24.9,40.3-44.1,103.5-44.1,138c0,118.8,82.4,249.1,182.1,291.3C4948.2-1921.6,5084.3-1933.1,5149.4-1977.2z"/>
        <path
            d="M2259.4,1347.9C2008.3,989.5,1878,313,1956.6-229.4c53.7-366.1,210.8-774.3,366-952.5c63.2-70.9,65.2-72.8,118.8-44.1c74.7,42.2,76.7,99.7,7.7,207c-375.6,586.4-408.2,1508.3-76.7,2150.3c40.2,80.5,74.7,162.9,74.7,184C2447.2,1411.1,2320.7,1432.2,2259.4,1347.9z"/>
        <path
            d="M7568,1376.6c-38.3-38.3-26.8-93.9,51.8-245.3c322-622.9,302.8-1489.1-46-2092.8c-97.7-170.6-105.4-212.7-38.3-256.8c67.1-44.1,105.4-23,185.9,103.5c208.9,323.9,341.1,804.9,341.1,1240c0,415.9-147.6,965.9-325.8,1217C7692.6,1403.5,7612.1,1420.7,7568,1376.6z"/>
        <path
            d="M2631.2,1116c-387.1-613.3-383.3-1418.2,11.5-1991.2c42.2-63.2,67.1-82.4,107.3-82.4c103.5,0,132.2,92,61.3,191.6c-67.1,95.8-170.6,329.6-212.7,488.7c-32.6,118.8-42.2,208.9-42.2,402.5c-1.9,310.5,28.8,442.7,170.6,730.2c57.5,116.9,103.5,230,103.5,249.1c0,53.7-36.4,84.3-99.7,84.3C2690.6,1188.8,2667.6,1171.6,2631.2,1116z"/>
        <path
            d="M7184.7,1165.8c-40.3-40.2-26.8-92,80.5-310.5c139.9-283.6,174.4-437,172.5-739.8c-1.9-180.2-13.4-277.9-44.1-392.9c-42.1-157.1-143.7-392.9-212.7-488.7c-70.9-99.7-42.2-191.6,61.3-191.6c61.3,0,134.1,93.9,235.7,312.4c230,481,224.2,1098.1-15.3,1575.3c-103.5,208.9-141.8,258.7-201.2,258.7C7232.7,1188.8,7198.2,1179.2,7184.7,1165.8z"/>
        <path
            d="M2958.9,868.8c-74.8-120.7-151.4-341.1-176.3-502.1c-23-147.6-13.4-419.7,21.1-576.9c17.2-84.3,67.1-224.2,111.2-312.4c67.1-136.1,86.2-157.2,132.2-162.9c120.8-13.4,138,67.1,53.7,239.6c-92,184-124.6,335.4-124.6,571.1c0,237.6,30.7,381.4,124.6,580.7c74.7,153.3,63.2,220.4-34.5,230C3012.6,941.6,2999.1,932,2958.9,868.8z"/>
        <path
            d="M6858.9,916.7c-36.4-36.4-26.8-86.2,34.5-214.6C7064,343.6,7065.9-68.4,6903-419.1c-36.4-76.7-67.1-159.1-67.1-184c0-57.5,42.2-90.1,109.2-82.4c46,5.7,65.1,26.8,126.5,149.5c189.7,379.5,203.2,845.2,38.3,1251.5c-69,166.7-113.1,224.2-176.3,224.2C6904.9,939.7,6872.4,930.1,6858.9,916.7z"/></g></g>
</svg>