<?xml version="1.0" encoding="UTF-8" standalone="no"?>
<svg version="1.1" xmlns="http://www.w3.org/2000/svg" xmlns:xlink="http://www.w3.org/1999/xlink"
     preserveAspectRatio="xMidYMid meet" viewBox="0 0 640 640" width="640" height="640" style="fill:white">
    <defs>
        <path d="M331.55 6.61L337.37 6.89L343.18 7.27L348.97 7.76L354.74 8.36L360.49 9.06L366.22 9.87L371.93 10.78L377.62 11.8L383.29 12.91L388.93 14.14L394.54 15.46L400.13 16.89L405.69 18.42L411.22 20.05L416.72 21.78L422.19 23.61L427.62 25.55L433.02 27.58L438.39 29.72L443.72 31.95L449.02 34.29L454.27 36.72L459.49 39.25L464.67 41.89L469.8 44.62L474.9 47.44L479.95 50.37L484.95 53.39L489.91 56.51L494.82 59.73L499.68 63.04L504.5 66.45L509.26 69.95L510.45 70.86L511.68 71.82L512.94 72.83L514.24 73.88L515.57 74.98L516.92 76.11L518.31 77.29L519.72 78.51L521.15 79.75L522.61 81.03L524.08 82.34L525.57 83.68L527.07 85.05L528.58 86.44L530.1 87.84L531.62 89.27L533.16 90.72L534.69 92.18L536.22 93.65L537.75 95.13L539.27 96.62L540.79 98.11L542.3 99.61L543.79 101.11L545.27 102.61L546.74 104.1L548.18 105.59L549.61 107.07L551.01 108.55L552.38 110L553.73 111.45L555.05 112.88L556.33 114.29L557.58 115.67L558.79 117.04L559.96 118.38L561.09 119.69L562.18 120.97L563.22 122.22L564.21 123.43L566.36 126.13L568.5 128.89L570.61 131.69L572.7 134.54L574.77 137.43L576.82 140.37L578.85 143.34L580.85 146.36L582.82 149.41L584.77 152.5L586.69 155.62L588.58 158.77L590.45 161.95L592.28 165.15L594.08 168.38L595.85 171.64L597.59 174.92L599.29 178.21L600.95 181.52L602.58 184.85L604.18 188.19L605.73 191.54L607.25 194.91L608.73 198.27L610.16 201.65L611.56 205.03L612.91 208.41L614.22 211.79L615.48 215.16L616.7 218.54L617.87 221.9L618.99 225.26L620.07 228.61L621.09 231.95L622.07 235.27L622.99 238.58L623.86 241.87L624.68 245.13L625.44 248.38L626.15 251.6L626.79 254.63L627.4 257.67L627.98 260.71L628.54 263.75L629.06 266.8L629.56 269.85L630.02 272.91L630.46 275.97L630.87 279.03L631.25 282.09L631.61 285.15L631.93 288.21L632.23 291.28L632.49 294.34L632.73 297.41L632.94 300.47L633.12 303.53L633.28 306.59L633.4 309.65L633.49 312.7L633.56 315.75L633.6 318.79L633.61 321.84L633.59 324.87L633.54 327.9L633.46 330.93L633.35 333.95L633.22 336.96L633.05 339.97L632.86 342.96L632.64 345.95L632.39 348.94L632.11 351.91L631.8 354.87L631.46 357.82L631.09 360.76L630.7 363.69L630.27 366.61L629.82 369.52L629.34 372.42L628.65 376.34L627.9 380.27L627.1 384.19L626.25 388.11L625.34 392.03L624.38 395.94L623.36 399.84L622.3 403.74L621.18 407.63L620.01 411.5L618.79 415.37L617.51 419.23L616.19 423.07L614.82 426.9L613.4 430.71L611.93 434.51L610.41 438.3L608.85 442.06L607.23 445.81L605.57 449.53L603.87 453.24L602.11 456.92L600.31 460.58L598.47 464.22L596.58 467.84L594.65 471.42L592.68 474.98L590.66 478.52L588.6 482.02L586.49 485.49L584.35 488.94L582.16 492.35L579.93 495.73L577.66 499.07L575.35 502.38L573 505.66L570.62 508.89L568.19 512.09L565.73 515.25L563.23 518.37L562.3 519.51L561.31 520.68L560.28 521.89L559.2 523.14L558.07 524.42L556.9 525.73L555.69 527.06L554.44 528.42L553.15 529.8L551.83 531.21L550.48 532.63L549.11 534.06L547.7 535.51L546.28 536.97L544.83 538.43L543.37 539.9L541.89 541.38L540.4 542.85L538.9 544.32L537.39 545.79L535.88 547.25L534.36 548.7L532.85 550.13L531.34 551.55L529.83 552.96L528.33 554.34L526.84 555.7L525.37 557.04L523.91 558.35L522.47 559.63L521.05 560.88L519.65 562.1L518.28 563.27L516.94 564.41L515.63 565.5L514.35 566.55L513.11 567.56L511.9 568.51L510.74 569.41L509.63 570.26L506.28 572.74L502.91 575.17L499.52 577.55L496.11 579.88L492.68 582.16L489.23 584.4L485.77 586.58L482.28 588.72L478.76 590.81L475.23 592.85L471.68 594.85L468.1 596.79L464.51 598.69L460.89 600.54L457.25 602.35L453.58 604.1L449.9 605.81L446.19 607.47L442.46 609.08L438.7 610.64L434.92 612.16L431.12 613.63L427.29 615.05L423.44 616.43L419.57 617.76L415.67 619.04L411.75 620.27L407.8 621.46L403.82 622.6L399.82 623.69L395.8 624.74L391.75 625.74L387.67 626.7L383.57 627.6L379.44 628.46L375.29 629.28L371.1 630.05L366.89 630.77L362.66 631.45L358.39 632.08L357.25 632.23L355.98 632.37L354.59 632.51L353.1 632.64L351.51 632.76L349.82 632.87L348.05 632.98L346.19 633.08L344.25 633.17L342.25 633.25L340.18 633.32L338.05 633.39L335.88 633.45L333.66 633.5L331.4 633.54L329.11 633.58L326.79 633.61L324.46 633.63L322.11 633.64L319.75 633.64L317.4 633.64L315.05 633.63L312.72 633.61L310.4 633.58L308.11 633.54L305.85 633.5L303.63 633.45L301.46 633.39L299.33 633.32L297.26 633.25L295.26 633.17L293.32 633.08L291.46 632.98L289.69 632.87L288 632.76L286.41 632.64L284.92 632.51L283.54 632.37L282.27 632.23L281.12 632.08L276.88 631.45L272.67 630.77L268.48 630.04L264.31 629.27L260.16 628.46L256.04 627.59L251.95 626.68L247.87 625.72L243.82 624.72L239.8 623.66L235.8 622.57L231.82 621.42L227.87 620.23L223.93 618.99L220.03 617.71L216.15 616.38L212.29 615L208.45 613.58L204.64 612.11L200.86 610.6L197.1 609.03L193.36 607.43L189.64 605.77L185.96 604.07L182.29 602.32L178.65 600.53L175.03 598.69L171.44 596.81L167.87 594.88L164.33 592.9L160.81 590.88L157.32 588.81L153.85 586.7L150.4 584.54L146.98 582.33L143.59 580.08L140.22 577.79L136.87 575.45L133.55 573.06L130.25 570.62L129.06 569.71L127.84 568.76L126.57 567.75L125.28 566.7L123.95 565.6L122.59 564.46L121.2 563.28L119.79 562.07L118.36 560.82L116.91 559.54L115.43 558.23L113.95 556.89L112.45 555.53L110.94 554.14L109.42 552.73L107.89 551.31L106.36 549.86L104.83 548.4L103.29 546.93L101.76 545.45L100.24 543.96L98.72 542.47L97.22 540.97L95.72 539.47L94.24 537.97L92.78 536.48L91.33 534.99L89.91 533.5L88.51 532.03L87.13 530.57L85.78 529.13L84.47 527.7L83.18 526.29L81.93 524.9L80.72 523.54L79.55 522.2L78.42 520.89L77.33 519.61L76.29 518.36L75.3 517.15L72.64 513.8L70.03 510.41L67.46 506.99L64.95 503.54L62.48 500.05L60.06 496.53L57.69 492.97L55.37 489.39L53.1 485.76L50.88 482.11L48.71 478.42L46.59 474.7L44.51 470.95L42.49 467.16L40.52 463.35L38.6 459.51L36.73 455.63L34.91 451.72L33.14 447.79L31.42 443.83L29.76 439.83L28.14 435.81L26.57 431.76L25.06 427.68L23.6 423.58L22.19 419.44L20.83 415.28L19.53 411.1L18.27 406.89L17.07 402.65L15.92 398.38L14.82 394.09L13.78 389.78L12.79 385.44L11.85 381.08L10.97 376.69L10.14 372.28L9.36 367.85L8.63 363.4L7.96 358.92L7.81 357.77L7.66 356.5L7.53 355.12L7.4 353.63L7.28 352.04L7.16 350.35L7.06 348.57L6.96 346.71L6.87 344.78L6.79 342.77L6.71 340.7L6.65 338.58L6.59 336.4L6.54 334.18L6.49 331.92L6.46 329.63L6.43 327.32L6.41 324.98L6.4 322.63L6.4 320.28L6.4 317.93L6.41 315.58L6.43 313.24L6.46 310.93L6.49 308.64L6.54 306.38L6.59 304.16L6.65 301.98L6.71 299.86L6.79 297.79L6.87 295.78L6.96 293.85L7.06 291.99L7.16 290.21L7.28 288.53L7.4 286.93L7.53 285.44L7.66 284.06L7.81 282.79L7.96 281.64L8.59 277.4L9.27 273.18L9.99 268.98L10.76 264.81L11.58 260.66L12.44 256.54L13.35 252.44L14.31 248.36L15.31 244.31L16.36 240.29L17.46 236.29L18.6 232.31L19.79 228.35L21.03 224.43L22.31 220.52L23.64 216.64L25.02 212.78L26.44 208.95L27.91 205.14L29.43 201.35L30.99 197.59L32.6 193.85L34.26 190.14L35.97 186.45L37.72 182.78L39.52 179.14L41.37 175.51L43.26 171.92L45.2 168.34L47.19 164.79L49.22 161.26L51.31 157.76L53.44 154.27L55.61 150.81L57.84 147.38L60.11 143.96L62.43 140.57L64.79 137.2L67.2 133.86L69.66 130.53L70.52 129.42L71.41 128.27L72.35 127.09L73.33 125.88L74.36 124.63L75.41 123.36L76.51 122.07L77.64 120.75L78.8 119.4L79.99 118.04L81.2 116.67L82.45 115.27L83.71 113.87L85 112.45L86.31 111.02L87.64 109.59L88.98 108.15L90.34 106.71L91.71 105.27L93.09 103.83L94.48 102.39L95.87 100.96L97.27 99.53L98.67 98.12L100.07 96.71L101.47 95.32L102.87 93.94L104.26 92.59L105.65 91.25L107.02 89.93L108.38 88.64L109.73 87.37L111.07 86.13L112.39 84.92L113.69 83.74L114.96 82.6L116.22 81.49L117.45 80.42L118.65 79.39L119.83 78.41L123.36 75.5L126.96 72.63L130.62 69.82L134.33 67.06L138.1 64.35L141.92 61.69L145.79 59.09L149.71 56.54L153.68 54.04L157.7 51.6L161.76 49.21L165.86 46.88L170 44.61L174.18 42.4L178.4 40.24L182.66 38.14L186.94 36.11L191.26 34.13L195.61 32.22L199.98 30.37L204.38 28.58L208.81 26.86L213.25 25.2L217.72 23.61L222.21 22.08L226.71 20.62L231.22 19.23L235.75 17.91L240.29 16.65L244.84 15.47L249.4 14.35L253.96 13.31L258.53 12.34L263.1 11.44L267.66 10.62L272.23 9.87L276.79 9.2L281.35 8.6L285.9 8.08L290.44 7.64L296.34 7.17L302.23 6.8L308.12 6.55L313.99 6.4L319.86 6.36L325.71 6.43L331.55 6.61ZM308.11 20.27L305.98 20.29L303.91 20.32L301.89 20.36L299.93 20.41L298.05 20.47L296.23 20.53L294.5 20.61L292.85 20.69L291.3 20.79L289.84 20.89L288.49 21L287.24 21.13L282.89 21.63L278.53 22.2L274.18 22.84L269.84 23.55L265.51 24.32L261.18 25.16L256.87 26.07L252.56 27.04L248.27 28.07L243.99 29.18L239.72 30.34L235.46 31.57L231.23 32.86L227 34.22L222.8 35.64L218.61 37.12L214.44 38.66L210.3 40.26L206.17 41.93L202.06 43.65L197.98 45.44L193.92 47.28L189.89 49.18L185.88 51.15L181.9 53.17L177.95 55.25L174.03 57.38L170.13 59.57L166.27 61.82L162.44 64.13L158.64 66.49L154.88 68.91L151.15 71.38L147.45 73.91L143.79 76.49L140.17 79.12L136.59 81.81L133.04 84.55L129.54 87.34L126.08 90.18L125.17 90.95L124.21 91.77L123.23 92.64L122.2 93.56L121.14 94.51L120.06 95.51L118.94 96.54L117.81 97.61L116.64 98.71L115.46 99.84L114.26 101L113.04 102.19L111.81 103.4L110.57 104.63L109.33 105.87L108.07 107.13L106.81 108.41L105.55 109.7L104.29 110.99L103.04 112.29L101.79 113.59L100.54 114.9L99.31 116.2L98.09 117.49L96.89 118.79L95.7 120.07L94.54 121.34L93.4 122.6L92.28 123.84L91.19 125.06L90.12 126.26L89.09 127.43L88.1 128.58L87.14 129.7L86.22 130.79L85.34 131.85L84.51 132.87L83.72 133.85L82.98 134.79L82.29 135.69L79 140.1L75.79 144.54L72.68 149L69.66 153.47L66.72 157.97L63.88 162.49L61.12 167.03L58.45 171.59L55.88 176.18L53.39 180.79L50.99 185.41L48.68 190.07L46.46 194.74L44.33 199.44L42.28 204.16L40.33 208.91L38.46 213.68L36.68 218.47L34.99 223.29L33.39 228.14L31.87 233.01L30.44 237.9L29.1 242.82L27.85 247.77L26.68 252.75L25.61 257.75L24.62 262.77L23.71 267.83L22.9 272.91L22.17 278.02L21.52 283.16L20.97 288.32L20.5 293.52L20.11 298.74L19.81 304L19.6 309.28L19.48 314.59L19.44 319.93L19.48 325.3L19.62 330.71L19.74 334.04L19.9 337.36L20.08 340.65L20.3 343.92L20.55 347.16L20.83 350.39L21.14 353.6L21.48 356.79L21.86 359.96L22.26 363.11L22.7 366.24L23.17 369.36L23.68 372.47L24.21 375.55L24.78 378.63L25.38 381.69L26.01 384.73L26.68 387.77L27.38 390.79L28.11 393.8L28.88 396.8L29.68 399.79L30.51 402.77L31.38 405.75L32.28 408.71L33.22 411.67L34.19 414.63L35.19 417.57L36.24 420.52L37.31 423.45L38.42 426.39L39.57 429.32L40.75 432.25L41.97 435.18L43.22 438.1L44.51 441.03L45.83 443.96L47.2 446.89L48.59 449.82L50.03 452.75L51.17 455.04L52.32 457.31L53.47 459.54L54.62 461.75L55.79 463.93L56.95 466.09L58.13 468.22L59.31 470.32L60.5 472.41L61.7 474.47L62.91 476.51L64.13 478.53L65.36 480.53L66.6 482.51L67.86 484.47L69.13 486.42L70.41 488.35L71.7 490.26L73.01 492.16L74.33 494.05L75.67 495.92L77.03 497.79L78.4 499.64L79.79 501.48L81.2 503.32L82.63 505.15L84.08 506.96L85.55 508.78L87.03 510.59L88.55 512.39L90.08 514.19L91.63 515.99L93.21 517.78L94.82 519.58L96.45 521.38L98.1 523.17L99.78 524.97L101.48 526.77L103.22 528.58L104.98 530.39L110.3 535.7L115.73 540.87L121.27 545.88L126.92 550.74L132.67 555.45L138.52 560.01L144.47 564.4L150.52 568.65L156.65 572.73L162.88 576.65L169.18 580.42L175.57 584.03L182.04 587.47L188.58 590.75L195.2 593.87L201.89 596.82L208.64 599.61L215.45 602.23L222.33 604.69L229.26 606.97L236.24 609.09L243.28 611.03L250.36 612.81L257.49 614.41L264.66 615.84L271.87 617.09L279.11 618.17L286.39 619.07L293.69 619.79L301.02 620.34L308.38 620.71L315.75 620.89L323.14 620.89L330.54 620.72L337.95 620.35L345.37 619.81L352.8 619.08L360.22 618.16L367.65 617.05L375.07 615.76L379.63 614.87L384.17 613.92L388.7 612.9L393.2 611.81L397.69 610.64L402.15 609.41L406.59 608.11L411 606.74L415.4 605.3L419.76 603.8L424.11 602.23L428.42 600.59L432.71 598.88L436.97 597.11L441.21 595.27L445.41 593.37L449.59 591.41L453.73 589.38L457.84 587.28L461.92 585.12L465.97 582.9L469.98 580.62L473.96 578.27L477.91 575.87L481.81 573.4L485.69 570.87L489.52 568.28L493.32 565.63L497.07 562.92L500.79 560.15L504.47 557.32L508.1 554.43L511.7 551.49L515.25 548.49L518.76 545.43L522.22 542.31L525.64 539.14L529.02 535.91L532.34 532.63L535.62 529.29L539.89 524.78L544.06 520.22L548.11 515.59L552.06 510.91L555.9 506.16L559.64 501.36L563.26 496.5L566.78 491.58L570.19 486.61L573.49 481.58L576.68 476.5L579.75 471.37L582.72 466.18L585.58 460.94L588.33 455.66L590.96 450.32L593.49 444.94L595.9 439.51L598.2 434.03L600.38 428.51L602.46 422.94L604.42 417.33L606.26 411.68L607.99 405.98L609.61 400.25L611.11 394.47L612.5 388.66L613.77 382.81L614.93 376.92L615.96 371L616.89 365.04L617.69 359.04L618.38 353.02L618.95 346.96L619.4 340.87L619.74 334.75L619.95 328.6L620.05 322.42L620.03 316.21L619.88 309.98L619.76 306.63L619.6 303.31L619.42 300.01L619.2 296.73L618.95 293.48L618.67 290.25L618.36 287.03L618.02 283.84L617.64 280.66L617.24 277.51L616.8 274.37L616.33 271.24L615.83 268.14L615.29 265.04L614.72 261.97L614.12 258.91L613.49 255.86L612.82 252.82L612.12 249.8L611.39 246.78L610.62 243.78L609.82 240.79L608.99 237.8L608.12 234.83L607.22 231.86L606.28 228.9L605.31 225.94L604.3 223L603.26 220.05L602.19 217.11L601.08 214.18L599.93 211.25L598.75 208.32L597.53 205.39L596.28 202.46L594.99 199.53L593.66 196.61L592.3 193.68L590.9 190.75L589.47 187.81L588.32 185.52L587.18 183.26L586.03 181.02L584.87 178.81L583.71 176.63L582.54 174.48L581.36 172.34L580.18 170.24L578.99 168.15L577.79 166.09L576.58 164.05L575.36 162.04L574.13 160.04L572.89 158.05L571.64 156.09L570.37 154.15L569.09 152.21L567.8 150.3L566.49 148.4L565.16 146.51L563.82 144.64L562.47 142.77L561.09 140.92L559.7 139.08L558.29 137.24L556.87 135.42L555.42 133.6L553.95 131.78L552.46 129.97L550.95 128.17L549.42 126.37L547.86 124.57L546.28 122.78L544.68 120.98L543.05 119.19L541.4 117.39L539.72 115.59L538.01 113.79L536.28 111.99L534.52 110.18L531.08 106.71L527.59 103.31L524.05 99.96L520.46 96.68L516.83 93.46L513.14 90.31L509.41 87.21L505.64 84.18L501.82 81.22L497.95 78.31L494.04 75.47L490.08 72.7L486.09 69.99L482.05 67.35L477.97 64.77L473.85 62.26L469.69 59.81L465.49 57.43L461.25 55.12L456.97 52.88L452.65 50.7L448.3 48.59L443.92 46.55L439.49 44.58L435.04 42.68L430.55 40.85L426.02 39.09L421.47 37.4L416.88 35.78L412.26 34.23L407.61 32.75L402.93 31.34L398.23 30.01L393.49 28.75L388.73 27.56L383.94 26.44L379.12 25.4L374.28 24.43L369.41 23.54L364.52 22.72L363.35 22.55L362.06 22.38L360.67 22.22L359.18 22.06L357.59 21.91L355.91 21.77L354.14 21.63L352.3 21.5L350.39 21.37L348.41 21.25L346.37 21.13L344.27 21.02L342.13 20.92L339.94 20.83L337.72 20.74L335.46 20.66L333.18 20.58L330.89 20.52L328.57 20.46L326.25 20.41L323.93 20.36L321.61 20.33L319.3 20.3L317.01 20.28L314.74 20.26L312.49 20.26L310.28 20.26L308.11 20.27Z"
              id="g3o2cJEzwd"></path>
        <path d="M198.28 309.32L250.24 309.82L302.2 310.33C258.95 380.61 234.93 419.66 230.12 427.47C190.47 491.84 157.53 545.51 156.94 546.61C156.23 548.01 156.94 547.61 159.24 545.51C161.14 543.81 219.61 489.94 289.29 425.87C358.97 361.79 431.06 295.51 449.48 278.49C467.9 261.57 483.12 247.25 483.32 246.65C483.52 246.15 460.19 245.65 423.55 245.55C419.54 245.53 399.48 245.43 363.38 245.25C394.62 199.77 411.97 174.51 415.44 169.46C444.07 127.81 467.5 93.47 467.5 93.17C467.5 92.86 441.28 92.57 409.14 92.57C405.25 92.57 385.79 92.57 350.76 92.57L274.48 200.89L198.28 309.32Z"
              id="dGJXp4p0Q"></path>
    </defs>
    <g>
        <g>
            <use xlink:href="#g3o2cJEzwd" opacity="1" fill-opacity="1"></use>
            <g>
                <use xlink:href="#g3o2cJEzwd" opacity="1" fill-opacity="0" stroke="#000000" stroke-width="1"
                     stroke-opacity="0"></use>
            </g>
        </g>
        <g>
            <use xlink:href="#dGJXp4p0Q" opacity="1" fill-opacity="1"></use>
            <g>
                <use xlink:href="#dGJXp4p0Q" opacity="1" fill-opacity="0" stroke="#000000" stroke-width="1"
                     stroke-opacity="0"></use>
            </g>
        </g>
    </g>
</svg>