<svg xmlns="http://www.w3.org/2000/svg" version="1.0" x="0px" y="0px" viewBox="0 0 350 350"
    enable-background="new 0 0 350 350" xml:space="preserve"><g><g><path d="M278,235H72c-4.1,0-7.5-3.4-7.5-7.5v-105c0-4.1,3.4-7.5,7.5-7.5h206c4.1,0,7.5,3.4,7.5,7.5v105    C285.5,231.6,282.1,235,278,235z M79.5,220h191v-90h-191V220z"/></g><g><circle cx="177.5" cy="178" r="13"/>
    <path
        d="M177.5,196c-9.9,0-18-8.1-18-18s8.1-18,18-18s18,8.1,18,18S187.4,196,177.5,196z M177.5,170c-4.4,0-8,3.6-8,8s3.6,8,8,8    s8-3.6,8-8S181.9,170,177.5,170z" /></g><g><path d="M161.5,214c-2.3,0-4.4-1.6-4.9-3.9c-0.6-2.7,1.1-5.4,3.8-6c26.9-5.9,25.2-24.7,25.1-25.5c-0.3-2.7,1.7-5.2,4.4-5.5    c2.7-0.3,5.2,1.6,5.5,4.3c1.2,9.9-4.1,30.2-32.9,36.5C162.2,214,161.8,214,161.5,214z"/></g><g><path d="M136.7,202.5h-30.1c-2.8,0-5-2.2-5-5s2.2-5,5-5h30.1c2.8,0,5,2.2,5,5S139.5,202.5,136.7,202.5z"/></g><g><path d="M243.7,202.5h-30.1c-2.8,0-5-2.2-5-5s2.2-5,5-5h30.1c2.8,0,5,2.2,5,5S246.5,202.5,243.7,202.5z"/></g></g>
    </svg>