<svg xmlns="http://www.w3.org/2000/svg" version="1.1" x="0px" y="0px" viewBox="0 0 24 24"
    enable-background="new 0 0 24 24" xml:space="preserve"><g><g><g><g><g><path fill="#000000" d="M7.404,13.856c-2.489,0-4.514-2.025-4.514-4.514c0-1.721,1.004-3.318,2.558-4.068       C5.457,5.27,5.466,5.265,5.476,5.261c1.717-0.816,3.853-0.427,5.182,0.956c0.008,0.007,0.017,0.015,0.024,0.022       c0.021,0.021,0.042,0.047,0.058,0.073c0.005,0.007,0.009,0.015,0.014,0.023c0.626,0.653,1.04,1.559,1.141,2.546L11.79,8.893       c0,0,0,0,0,0l0.104-0.011c0.016,0.151,0.023,0.305,0.023,0.46C11.918,11.831,9.893,13.856,7.404,13.856z M5.244,6.323       C4.281,7.019,3.689,8.144,3.689,9.342c0,2.048,1.667,3.713,3.714,3.713c1.961,0,3.572-1.527,3.706-3.455l-3.73,0.382       c-0.048,0-0.189-0.014-0.234-0.031C7.07,9.919,7.021,9.889,6.98,9.853C6.952,9.828,6.927,9.8,6.906,9.769       C6.894,9.751,6.863,9.703,6.854,9.683L5.244,6.323z M10.377,7.119l-2.015,1.96L11.078,8.8       C10.988,8.186,10.749,7.613,10.377,7.119z M5.942,5.928l1.435,2.993l2.455-2.388C8.759,5.609,7.22,5.378,5.942,5.928z"/></g></g><g><g><path fill="#000000" d="M14.671,13.071h-1.489c-0.221,0-0.4-0.179-0.4-0.4V8.875c0-0.221,0.179-0.4,0.4-0.4h1.489       c0.221,0,0.4,0.179,0.4,0.4v3.796C15.071,12.892,14.892,13.071,14.671,13.071z M13.582,12.271h0.688V9.275h-0.688V12.271z"/></g>
    <g><path fill="#000000" d="M17.69,13.071h-1.488c-0.221,0-0.4-0.179-0.4-0.4V4.849c0-0.221,0.18-0.4,0.4-0.4h1.488       c0.221,0,0.4,0.179,0.4,0.4v7.822C18.091,12.892,17.911,13.071,17.69,13.071z M16.603,12.271h0.688V5.249h-0.688V12.271z"/></g>
    <g><path fill="#000000" d="M20.71,13.071h-1.488c-0.221,0-0.4-0.179-0.4-0.4V6.862c0-0.221,0.18-0.4,0.4-0.4h1.488       c0.221,0,0.4,0.179,0.4,0.4v5.809C21.11,12.892,20.931,13.071,20.71,13.071z M19.622,12.271h0.688V7.262h-0.688V12.271z"/></g></g></g></g><g><g><g><path fill="#000000" d="M17.884,23.104c-0.186,0-0.352-0.13-0.392-0.318l-0.428-2.032H6.936l-0.428,2.032      c-0.046,0.216-0.258,0.354-0.474,0.31c-0.216-0.046-0.354-0.258-0.309-0.474l1.196-5.682H1.259c-0.221,0-0.4-0.18-0.4-0.4V1.297      c0-0.221,0.179-0.4,0.4-0.4h21.482c0.221,0,0.4,0.179,0.4,0.4v15.242c0,0.221-0.18,0.4-0.4,0.4h-5.662l1.196,5.682      c0.045,0.216-0.093,0.428-0.31,0.474C17.938,23.101,17.911,23.104,17.884,23.104z M7.104,19.952h9.792l-0.701-3.331      c-0.024-0.117,0.005-0.24,0.081-0.334s0.19-0.148,0.311-0.148h5.755V1.697H1.659v14.442h5.755c0.121,0,0.235,0.055,0.311,0.148      c0.076,0.094,0.105,0.217,0.081,0.334L7.104,19.952z"/></g></g>
    <g><path fill="#000000" d="M17.409,16.939H5.866c-0.221,0-0.4-0.18-0.4-0.4s0.179-0.4,0.4-0.4h11.543c0.221,0,0.4,0.18,0.4,0.4     S17.63,16.939,17.409,16.939z"/></g></g></g>
    </svg>