<svg xmlns="http://www.w3.org/2000/svg" version="1.1" x="0px" y="0px" viewBox="0 0 64 64" style="enable-background:new 0 0 64 64;"
    xml:space="preserve"><g><g><path d="M18,47.0006104h10c0.5522461,0,1-0.4472656,1-1s-0.4477539-1-1-1h-9v-9c0-0.5527344-0.4477539-1-1-1s-1,0.4472656-1,1v10    C17,46.5533447,17.4477539,47.0006104,18,47.0006104z"/><path
    d="M36,47.0006104h10c0.5522461,0,1-0.4472656,1-1v-10c0-0.5527344-0.4477539-1-1-1s-1,0.4472656-1,1v9h-9    c-0.5522461,0-1,0.4472656-1,1S35.4477539,47.0006104,36,47.0006104z" /><path
    d="M28,17.0006104H18c-0.5522461,0-1,0.4472656-1,1v10c0,0.5527344,0.4477539,1,1,1s1-0.4472656,1-1v-9h9    c0.5522461,0,1-0.4472656,1-1S28.5522461,17.0006104,28,17.0006104z" /><path
    d="M46,17.0006104H36c-0.5522461,0-1,0.4472656-1,1s0.4477539,1,1,1h9v9c0,0.5527344,0.4477539,1,1,1s1-0.4472656,1-1v-10    C47,17.447876,46.5522461,17.0006104,46,17.0006104z" /><path
    d="M58,31.0006104h-4v-18c0-0.0218506-0.0111084-0.0412598-0.0125122-0.0629272    c-0.0056763-0.0882568-0.022522-0.1731567-0.0510864-0.2568359c-0.0109863-0.0323486-0.0194702-0.0637207-0.0337524-0.0947266    c-0.048645-0.1060791-0.1099243-0.2068481-0.1956177-0.2925415l-10-10    c-0.0865479-0.086853-0.1885376-0.1486816-0.2958374-0.1976929c-0.02771-0.0125732-0.055542-0.0202026-0.0842896-0.0302124    c-0.088501-0.0311279-0.1786499-0.0490112-0.2722778-0.0541992C43.0358276,2.010437,43.0189209,2.0006104,43,2.0006104H11    c-0.5522461,0-1,0.4472656-1,1v28H6c-0.5522461,0-1,0.4472656-1,1s0.4477539,1,1,1h4v28c0,0.5527344,0.4477539,1,1,1h42    c0.5522461,0,1-0.4472656,1-1v-28h4c0.5522461,0,1-0.4472656,1-1S58.5522461,31.0006104,58,31.0006104z M50.5859375,12.0006104H44    V5.4146729L50.5859375,12.0006104z M12,4.0006104h30v9c0,0.5527344,0.4477539,1,1,1h9v17H12V4.0006104z M52,60.0006104H12v-27h40    V60.0006104z" /></g></g>
    </svg>