<svg xmlns="http://www.w3.org/2000/svg" data-name="Layer 1" viewBox="0 0 100 100" x="0px" y="0px">
    <title>08</title>
    <path
        d="M92.84,36.52a10,10,0,0,0-10-10H70.7l-1.29-5.16a10,10,0,0,0-9.7-7.57H40.29a10,10,0,0,0-9.7,7.57L29.3,26.52H17.16a10,10,0,0,0-10,10V76.21a10,10,0,0,0,10,10H82.84a10,10,0,0,0,10-10Zm-4,39.69a6,6,0,0,1-6,6H17.16a6,6,0,0,1-6-6V36.52a6,6,0,0,1,6-6H30.86A2,2,0,0,0,32.8,29l1.67-6.67a6,6,0,0,1,5.82-4.54H59.71a6,6,0,0,1,5.82,4.54L67.2,29a2,2,0,0,0,1.94,1.51H82.84a6,6,0,0,1,6,6Z" />
    <path
        d="M50,33.21a21,21,0,1,0,21,21A21.07,21.07,0,0,0,50,33.21ZM50,71.3a17,17,0,1,1,17-17A17.06,17.06,0,0,1,50,71.3Z" />
    <text x="0" y="115" fill="#000000" font-size="5px" font-weight="bold"
        font-family="'Helvetica Neue', Helvetica, Arial-Unicode, Arial, Sans-serif">Created by
        Popular
    </text>
    <text x="0" y="120" fill="#000000" font-size="5px" font-weight="bold"
        font-family="'Helvetica Neue', Helvetica, Arial-Unicode, Arial, Sans-serif">from the Noun
        Project
    </text>
</svg>