<svg xmlns="http://www.w3.org/2000/svg" data-name="Layer 1" viewBox="0 0 321.1 321.1" x="0px" y="0px">
    <defs>
        <style>.cls-1{fill-rule:evenodd;}</style>
    </defs>
    <path class="cls-1"
        d="M315.08,301.24a2.55,2.55,0,0,1-.39,0c-7.82.13-12.83,4.56-15,10.22a21.19,21.19,0,0,0,0,15.07c2.23,5.78,7.37,10.29,15.43,10.29h76.37V301.24ZM331.83,50.31a65.25,65.25,0,0,1,39.49,83.38v0a65.26,65.26,0,0,1-83.38,39.48h0a65.24,65.24,0,0,1,43.9-122.88ZM291.17,164.16a55.63,55.63,0,0,0,71.12-33.69h0a55.66,55.66,0,1,0-71.12,33.68Zm33.92-95a45.25,45.25,0,1,0,25.65,23.24,45.06,45.06,0,0,0-25.65-23.24ZM297.9,145.3A35.61,35.61,0,1,0,277.69,127,35.54,35.54,0,0,0,297.9,145.3Zm15.74-60.22-1.49,4.18a17.32,17.32,0,0,0-6.4.29,11.52,11.52,0,0,0-8.81,8.22l0,.1h0c-2.46,9.3,4.25,13.47,10.88,17.59,3.55,2.21,7,4.38,6.31,6.66a3.71,3.71,0,0,1-2.17,2,8.32,8.32,0,0,1-4.32.32,10.62,10.62,0,0,1-4.64-2,8.32,8.32,0,0,1-3.33-5.67,4.78,4.78,0,0,0-9.49,1.2,17.79,17.79,0,0,0,7,12.12l.31.22-1.61,4.51a4.8,4.8,0,0,0,9,3.22l1.47-4.12a17.84,17.84,0,0,0,9-.89,13,13,0,0,0,7.59-7.3h0l.06-.14c3.6-9.66-3.24-13.91-10.18-18.22-3.64-2.27-7.33-4.56-6.68-7h0A2.39,2.39,0,0,1,308,98.85a8.41,8.41,0,0,1,3.5,0,11.82,11.82,0,0,1,3.89,1.5c1.86,1.14,3.22,2.75,3.17,4.53a4.78,4.78,0,0,0,9.56.26c.16-5.34-2.82-9.67-7-12.49l1.56-4.36a4.8,4.8,0,1,0-9-3.22ZM149.42,227.23l-25.64-.06a4.78,4.78,0,1,0,0,9.56l250.72.54v54.37H315.08l-.46,0c-12.38.15-20.35,7.25-23.88,16.33a30.88,30.88,0,0,0,0,22c3.57,9.23,11.69,16.44,24.36,16.44H374.5v55.11c-.26,8.36-2,14.17-5.63,17.78s-9.3,5.33-17.51,5.62H112.67c-8.21-.29-13.94-2.05-17.51-5.62s-5.26-9.05-5.61-17c0-.15,0-.29,0-.44v-168c0-.08,0-.17,0-.25.29-8.22,2-14,5.63-17.53s9.3-5.33,17.52-5.62h33.21a64.79,64.79,0,0,0,3.5,16.78Zm-3.5-26.38a65.24,65.24,0,0,1,130.12,0h75.09a4.71,4.71,0,0,1,.53,0c10.79.37,18.63,3,24,8.39,5.1,5.1,7.73,12.38,8.32,22.28a4.94,4.94,0,0,1,.09.95v1.21c0,.11,0,.21,0,.32v57.61h12.15a4.8,4.8,0,0,1,4.8,4.8V341.6a4.8,4.8,0,0,1-4.8,4.8H384.1v55.47a4.61,4.61,0,0,1-.07.84c-.46,10.45-3.09,18.08-8.38,23.37s-13.25,8-24.06,8.39a4.41,4.41,0,0,1-.52,0H112.93a5.12,5.12,0,0,1-.56,0c-10.78-.38-18.61-3-24-8.4S80.28,412.64,80,401.64a5,5,0,0,1,0-.55V233.84a5.12,5.12,0,0,1,0-.56c.38-10.78,3-18.61,8.4-24s13.23-8,24-8.39a5.25,5.25,0,0,1,.56,0ZM276,210.45a65.56,65.56,0,0,1-3.59,17l101.55.22c-.79-5.16-2.45-9-5.1-11.65-3.57-3.57-9.29-5.33-17.49-5.62H276Zm-13.84,17a55.66,55.66,0,1,0-102.5-.22l11.59,0c-.41-.74-.79-1.5-1.16-2.28a45.22,45.22,0,1,1,80.47,2.45l11.6,0Zm-23-.05A35.68,35.68,0,1,0,181,224.89c.54.85,1.1,1.65,1.67,2.41l26,0a17.7,17.7,0,0,1-7.23-3.37,4.79,4.79,0,0,1,5.85-7.58,8.35,8.35,0,0,0,6.37,1.67,10.75,10.75,0,0,0,4.7-1.9,8.34,8.34,0,0,0,2.8-3.26,3.74,3.74,0,0,0,.13-3c-1.12-2.05-5.1-1.12-9.13-.18-7.54,1.75-15.17,3.53-20-4.55l-.18-.3a11.5,11.5,0,0,1,.43-12,17.51,17.51,0,0,1,4.34-4.73l-1.91-4a4.79,4.79,0,1,1,8.66-4.08l2,4.18c5-1,10.13,0,13.8,3.88a4.79,4.79,0,1,1-7,6.56c-1.22-1.29-3.33-1.47-5.45-1a12.17,12.17,0,0,0-3.81,1.69,8.31,8.31,0,0,0-2.46,2.45,2.36,2.36,0,0,0-.22,2.43c1.32,2.09,5.5,1.11,9.63.15,8-1.86,15.8-3.69,20.08,5.69a1,1,0,0,1,.07.15h0a13,13,0,0,1-.21,10.52,17.86,17.86,0,0,1-5.73,7l1.72,3.63,13.3,0ZM131.24,341.2v4.44a17.57,17.57,0,0,0-6,2.43,11.5,11.5,0,0,0-5.52,10.68v.11h0c.81,9.6,8.55,11.27,16.18,12.92,4.06.88,8.07,1.75,8.17,4.12a3.7,3.7,0,0,1-1.39,2.6,8.25,8.25,0,0,1-3.93,1.74,10.67,10.67,0,0,1-5.07-.3,8.31,8.31,0,0,1-5-4.21,4.79,4.79,0,1,0-8.55,4.31,17.8,17.8,0,0,0,10.72,9l.36.1V394a4.8,4.8,0,0,0,9.6,0v-4.39a17.78,17.78,0,0,0,8.15-3.85,13.05,13.05,0,0,0,4.7-9.43h0a1,1,0,0,0,0-.17c.14-10.3-7.73-12-15.72-13.73-4.18-.91-8.43-1.83-8.64-4.34h0a2.41,2.41,0,0,1,1.25-2,8.2,8.2,0,0,1,3.27-1.14A11.72,11.72,0,0,1,138,355c2.12.44,3.95,1.5,4.5,3.19a4.79,4.79,0,1,0,9.11-3c-1.65-5.08-5.91-8.16-10.8-9.41V341.2a4.8,4.8,0,0,0-9.6,0Zm191.58-17.38a4.8,4.8,0,1,1,0-9.6h18a4.8,4.8,0,1,1,0,9.6Z"
        transform="translate(-79.95 -46.5)" />
    <text x="0" y="403" fill="#000000" font-size="5px" font-weight="bold"
        font-family="'Helvetica Neue', Helvetica, Arial-Unicode, Arial, Sans-serif">Created by Rifai
    </text>
    <text x="0" y="408" fill="#000000" font-size="5px" font-weight="bold"
        font-family="'Helvetica Neue', Helvetica, Arial-Unicode, Arial, Sans-serif">from the Noun
        Project
    </text>
</svg>