<svg xmlns="http://www.w3.org/2000/svg" data-name="Layer 1" viewBox="0 0 100 100" x="0px" y="0px">
    <title>Userinterface</title>
    <path
        d="M87,37H13a4,4,0,0,0-4,4V59a4,4,0,0,0,4,4H87a4,4,0,0,0,4-4V41A4,4,0,0,0,87,37Zm2,22a2,2,0,0,1-2,2H13a2,2,0,0,1-2-2V41a2,2,0,0,1,2-2H87a2,2,0,0,1,2,2ZM52,50a1,1,0,0,1-1,1H18a1,1,0,0,1,0-2H51A1,1,0,0,1,52,50Zm29.38,1.4a1,1,0,0,1,.05,1.41l-4,4.29a1,1,0,0,1-1.46,0l-4-4.29a1,1,0,1,1,1.46-1.36L76.7,55,80,51.45A1,1,0,0,1,81.38,51.4ZM81.43,47a1,1,0,0,1-.05,1.42,1,1,0,0,1-1.41,0L76.7,44.88l-3.27,3.51A1,1,0,1,1,72,47l4-4.29a1,1,0,0,1,1.46,0Z" />
    <text x="0" y="115" fill="#000000" font-size="5px" font-weight="bold"
        font-family="'Helvetica Neue', Helvetica, Arial-Unicode, Arial, Sans-serif">Created by
        Somewan
    </text>
    <text x="0" y="120" fill="#000000" font-size="5px" font-weight="bold"
        font-family="'Helvetica Neue', Helvetica, Arial-Unicode, Arial, Sans-serif">from the Noun
        Project
    </text>
</svg>