<svg xmlns="http://www.w3.org/2000/svg" version="1.0" x="0px" y="0px" viewBox="0 0 350 350"
    enable-background="new 0 0 350 350" xml:space="preserve"><g><g><path d="M278,235H72c-4.1,0-7.5-3.4-7.5-7.5v-105c0-4.1,3.4-7.5,7.5-7.5h206c4.1,0,7.5,3.4,7.5,7.5v105    C285.5,231.6,282.1,235,278,235z M79.5,220h191v-90h-191V220z"/></g><g><path d="M223.8,191c-1.2,0-2.3-0.4-3.3-1.2l-25.2-22c-2.1-1.8-2.3-5-0.5-7.1s5-2.3,7.1-0.5l21.9,19.1l21.3-19.1    c2.1-1.8,5.2-1.7,7.1,0.4c1.8,2.1,1.7,5.2-0.4,7.1l-24.6,22C226.2,190.6,225,191,223.8,191z"/></g></g>
    </svg>