<svg xmlns="http://www.w3.org/2000/svg" viewBox="0 0 32 32" fill="none" x="0px" y="0px">
    <path
        d="M22.6313 19.8303L19.2806 19.2143C19.6573 17.8393 20.3055 16.8214 21.2253 16.1607C22.1451 15.5 23.5116 15.1696 25.3249 15.1696C26.9718 15.1696 28.1982 15.3705 29.0041 15.7723C29.81 16.1652 30.375 16.6696 30.6992 17.2857C31.032 17.8928 31.1985 19.0134 31.1985 20.6473L31.159 25.0402C31.159 26.2902 31.216 27.2143 31.3299 27.8125C31.4525 28.4018 31.6759 29.0357 32 29.7143H28.3471C28.2508 29.4643 28.1325 29.0937 27.9923 28.6027C27.931 28.3794 27.8872 28.2321 27.8609 28.1607C27.4286 28.5714 26.5426 28.933 25.8243 29.2455C25.1059 29.558 24.3394 29.7143 23.5248 29.7143C22.0881 29.7143 20.9537 29.3169 20.1215 28.5223C19.2981 27.7277 18.8995 27.0446 18.8995 25.8303C18.8995 25.0268 19.0879 24.3125 19.4646 23.6875C19.8412 23.0535 20.3668 22.5714 21.0413 22.241C21.7246 21.9018 22.7057 21.6071 23.9847 21.3571C25.7104 21.0268 26.9061 20.7187 27.5719 20.433V20.058C27.5719 19.3348 27.3967 18.8214 27.0463 18.5178C26.6959 18.2053 26.0345 18.0491 25.0621 18.0491C24.4051 18.0491 23.8927 18.183 23.5248 18.4509C23.1569 18.7098 22.859 19.1696 22.6313 19.8303ZM27.5719 22.8839C27.0988 23.0446 26.3499 23.2366 25.3249 23.4598C24.3 23.683 23.6299 23.9018 23.3145 24.116C22.8327 24.4643 22.5918 24.9062 22.5918 25.4419C22.5918 25.9687 22.7846 26.4241 23.17 26.808C23.5554 27.1919 24.046 27.3839 24.6417 27.3839C25.3074 27.3839 25.9425 27.1607 26.5469 26.7143C26.9937 26.375 27.2872 25.9598 27.4273 25.4687C27.5237 25.1473 27.5719 24.5357 27.5719 23.6339V22.8839Z"
        fill="black" />
    <path
        d="M12.0917 24.3084H6.07548L5.0382 29.7143H0L6.19403 4.57141H12.0917L18.2857 29.7143H13.129L12.0917 24.3084ZM11.2322 19.9909L9.14286 9.14284L6.9053 19.9909H11.2322Z"
        fill="black" />
    <text x="0" y="47" fill="#000000" font-size="5px" font-weight="bold"
        font-family="'Helvetica Neue', Helvetica, Arial-Unicode, Arial, Sans-serif">Created by Nick
        Zherebtsov
    </text>
    <text x="0" y="52" fill="#000000" font-size="5px" font-weight="bold"
        font-family="'Helvetica Neue', Helvetica, Arial-Unicode, Arial, Sans-serif">from the Noun
        Project
    </text>
</svg>