<svg xmlns="http://www.w3.org/2000/svg" version="1.0" x="0px" y="0px" viewBox="0 0 350 350"
    enable-background="new 0 0 350 350" xml:space="preserve"><g><g><path d="M278,235H72c-4.1,0-7.5-3.4-7.5-7.5v-105c0-4.1,3.4-7.5,7.5-7.5h206c4.1,0,7.5,3.4,7.5,7.5v105    C285.5,231.6,282.1,235,278,235z M79.5,220h191v-90h-191V220z"/></g><g><path d="M251.2,175c-1.2,0-2.3-0.4-3.3-1.2l-24.7-21.6l-24,21.5c-2.1,1.8-5.2,1.7-7.1-0.4c-1.8-2.1-1.7-5.2,0.4-7.1l27.3-24.5    c1.9-1.7,4.7-1.7,6.6,0l28.1,24.5c2.1,1.8,2.3,5,0.5,7.1C254,174.4,252.6,175,251.2,175z"/></g><g><path d="M223,207.5c-2.8,0-5-2.2-5-5v-57c0-2.8,2.2-5,5-5s5,2.2,5,5v57C228,205.3,225.8,207.5,223,207.5z"/></g></g>
    </svg>