<svg xmlns="http://www.w3.org/2000/svg" viewBox="0 0 100 100" x="0px" y="0px">
    <path
        d="m 49.999621,5.0002516 -39.999569,10.7011724 0,0.845703 39.999569,10.701171 39.999568,-10.701171 0,-0.845703 L 49.999621,5.0002516 Z m 0,0.8125 L 88.423034,16.123298 49.999621,26.433845 11.576207,16.123298 49.999621,5.8127516 Z"
        color="#000" />
    <path
        d="M 50.000428,33.395211 10.00086,22.69402 l 0,-1.236003 39.999568,10.70119 L 90,21.458017 90,22.69402 50.000428,33.395211 Z"
        color="#000" />
    <path
        d="M 50.000428,39.542704 10.00086,28.841513 l 0,-1.62632 39.999568,10.70119 L 90,27.215193 l 0,1.62632 -39.999572,10.701191 z"
        color="#000" />
    <path
        d="M 50.000428,45.755249 10.00086,35.021532 l 0,-2.049164 39.999568,10.70119 L 90,32.972368 90,35.021532 50.000428,45.755249 Z"
        color="#000" />
    <path
        d="m 50.000428,51.870214 -39.999568,-10.70119 0,-2.472007 39.999568,10.70119 L 90,38.697017 l 0,2.472007 -39.999572,10.70119 z"
        color="#000" />
    <path
        d="m 50.000428,58.050233 -39.999568,-10.70119 0,-2.894851 L 50.000428,55.187909 90,44.454192 l 0,2.894851 -39.999572,10.70119 z"
        color="#000" />
    <path
        d="M 50.000428,64.197726 10.00086,53.496535 l 0,-3.285167 39.999568,10.70119 L 90,50.211368 90,53.496535 50.000428,64.197726 Z"
        color="#000" />
    <path
        d="M 50.000428,70.345219 10.00086,59.644028 l 0,-3.675484 39.999568,10.70119 L 90,55.968544 90,59.644028 50.000428,70.345219 Z"
        color="#000" />
    <path
        d="M 50.000428,76.557765 10.00086,65.824047 l 0,-4.098328 L 50.000428,72.42691 90,61.725719 90,65.824047 50.000428,76.557765 Z"
        color="#000" />
    <path
        d="M 50.000428,82.672731 10.00086,71.97154 l 0,-4.521172 L 50.000428,78.151559 90,67.450368 90,71.97154 50.000428,82.672731 Z"
        color="#000" />
    <path
        d="m 50.000428,88.852749 -39.999568,-10.70119 0,-4.944016 L 50.000428,83.941261 90,73.207543 l 0,4.944016 -39.999572,10.70119 z"
        color="#000" />
    <path
        d="M 10,78.96484 10,84.298825 49.999569,95 89.99914,84.298825 l 0,-5.333985 -39.999571,10.70117 z"
        color="#000" />
</svg>