<svg xmlns="http://www.w3.org/2000/svg" version="1.1" x="0px" y="0px" viewBox="0 0 491.5 491.5"
    style="enable-background:new 0 0 491.5 491.5;" xml:space="preserve"><style type="text/css">
	.st0{fill-rule:evenodd;clip-rule:evenodd;}
</style>
    <g><g><path class="st0" d="M95.3,179.5c-3.8,0-6.8,3.1-6.8,6.8l0,118.8c0,3.8,3.1,6.8,6.8,6.8c3.8,0,6.8-3.1,6.8-6.8    l0-118.8C102.1,182.6,99,179.5,95.3,179.5L95.3,179.5z M95.3,321.5c-9,0-16.3-7.3-16.3-16.3l0-118.8c0-9,7.3-16.3,16.3-16.3    c9,0,16.3,7.3,16.3,16.3l0,118.8C111.6,314.2,104.3,321.5,95.3,321.5L95.3,321.5z"/><path
        class="st0"
        d="M145.4,115.3c-3.8,0-6.8,3.1-6.8,6.8l0,247.2c0,3.8,3.1,6.8,6.8,6.8c3.8,0,6.8-3.1,6.8-6.8    l0-247.2C152.3,118.4,149.2,115.3,145.4,115.3L145.4,115.3z M145.4,385.7c-9,0-16.3-7.3-16.3-16.3l0-247.2c0-9,7.3-16.3,16.3-16.3    c9,0,16.3,7.3,16.3,16.3l0,247.2C161.7,378.4,154.4,385.7,145.4,385.7z" /><path
        class="st0"
        d="M195.6,151c-3.8,0-6.8,3.1-6.8,6.8l0,175.9c0,3.8,3.1,6.8,6.8,6.8c3.8,0,6.8-3.1,6.8-6.8    V157.8C202.4,154.1,199.4,151,195.6,151L195.6,151z M195.6,350c-9,0-16.3-7.3-16.3-16.3l0-175.9c0-9,7.3-16.3,16.3-16.3    c9,0,16.3,7.3,16.3,16.3l0,175.9C211.9,342.7,204.6,350,195.6,350L195.6,350z" /><path
        class="st0"
        d="M245.8,93.9c-3.8,0-6.8,3.1-6.8,6.8v290c0,3.8,3.1,6.8,6.8,6.8c3.8,0,6.8-3.1,6.8-6.8l0-290    C252.6,97,249.5,93.9,245.8,93.9L245.8,93.9z M245.8,407.1c-9,0-16.3-7.3-16.3-16.3l0-290c0-9,7.3-16.3,16.3-16.3    c9,0,16.3,7.3,16.3,16.3h-4.7h4.7v290C262.1,399.8,254.7,407.1,245.8,407.1L245.8,407.1z" /><path
        class="st0"
        d="M295.9,151c-3.8,0-6.8,3.1-6.8,6.8l0,175.9c0,3.8,3.1,6.8,6.8,6.8c3.8,0,6.8-3.1,6.8-6.8    l0-175.9C302.7,154.1,299.7,151,295.9,151L295.9,151z M295.9,350c-9,0-16.3-7.3-16.3-16.3l0-175.9c0-9,7.3-16.3,16.3-16.3    c9,0,16.3,7.3,16.3,16.3v175.9C312.2,342.7,304.9,350,295.9,350z" /><path
        class="st0"
        d="M346.1,115.3c-3.8,0-6.8,3.1-6.8,6.8l0,247.2c0,3.8,3.1,6.8,6.8,6.8c3.8,0,6.8-3.1,6.8-6.8    l0-247.2C352.9,118.4,349.8,115.3,346.1,115.3L346.1,115.3z M346.1,385.7c-9,0-16.3-7.3-16.3-16.3l0-247.2c0-9,7.3-16.3,16.3-16.3    c9,0,16.3,7.3,16.3,16.3l-4.7,0h4.7v247.2C362.4,378.4,355.1,385.7,346.1,385.7z" /><path
        class="st0"
        d="M412.5,186.4L412.5,186.4L412.5,186.4z M396.2,179.5c-3.8,0-6.8,3.1-6.8,6.8l0,118.8    c0,3.8,3.1,6.8,6.8,6.8c3.8,0,6.8-3.1,6.8-6.8l0-118.8C403.1,182.6,400,179.5,396.2,179.5L396.2,179.5z M396.2,321.5    c-9,0-16.3-7.3-16.3-16.3l0-118.8c0-9,7.3-16.3,16.3-16.3c9,0,16.3,7.3,16.3,16.3l0,118.8C412.5,314.2,405.2,321.5,396.2,321.5z" /><path
        class="st0"
        d="M462.7,210.1L462.7,210.1L462.7,210.1z M446.4,203.3c-3.8,0-6.8,3.1-6.8,6.8l0,71.2    c0,3.8,3.1,6.8,6.8,6.8c3.8,0,6.8-3.1,6.8-6.8v-71.2C453.2,206.4,450.2,203.3,446.4,203.3z M446.4,297.7c-9,0-16.3-7.3-16.3-16.3    l0-71.2c0-9,7.3-16.3,16.3-16.3c9,0,16.3,7.3,16.3,16.3l0,71.2C462.7,290.4,455.4,297.7,446.4,297.7z" /><path
        class="st0"
        d="M45.1,203.3c-3.8,0-6.8,3.1-6.8,6.8l0,71.2c0,3.8,3.1,6.8,6.8,6.8c3.2,0,6.8-4.9,6.8-9.2    l0-68.9C51.9,206.4,48.9,203.3,45.1,203.3L45.1,203.3z M45.1,297.7c-9,0-16.3-7.3-16.3-16.3l0-71.2c0-9,7.3-16.3,16.3-16.3    c9,0,16.3,7.3,16.3,16.3l0,68.9C61.4,287.8,54.4,297.7,45.1,297.7z" /></g></g>
    </svg>