<svg xmlns="http://www.w3.org/2000/svg" version="1.0" x="0px" y="0px" viewBox="0 0 350 350"
    enable-background="new 0 0 350 350" xml:space="preserve"><g><g><path d="M223,230.5h-96c-4.1,0-7.5-3.4-7.5-7.5v-96c0-4.1,3.4-7.5,7.5-7.5h96c4.1,0,7.5,3.4,7.5,7.5v96    C230.5,227.1,227.1,230.5,223,230.5z M134.5,215.5h81v-81h-81V215.5z"/></g><g><path d="M168.5,200.5c-1.3,0-2.6-0.5-3.5-1.5l-19-19c-2-2-2-5.1,0-7.1c2-2,5.1-2,7.1,0l15,15l28.5-36.5c1.7-2.2,4.8-2.6,7-0.9    c2.2,1.7,2.6,4.8,0.9,7l-32,41c-0.9,1.1-2.2,1.8-3.6,1.9C168.7,200.5,168.6,200.5,168.5,200.5z"/></g></g>
    </svg>