<svg xmlns="http://www.w3.org/2000/svg" version="1.0" x="0px" y="0px" viewBox="0 0 350 350"
    enable-background="new 0 0 350 350" xml:space="preserve"><g><path d="M139.1,123.8H77c-4.1,0-7.5-3.4-7.5-7.5V54.2c0-4.1,3.4-7.5,7.5-7.5h62.1c4.1,0,7.5,3.4,7.5,7.5v62.1   C146.6,120.5,143.2,123.8,139.1,123.8z M84.5,108.8h47.1V61.8H84.5V108.8z"/><path
    d="M103.8,101.7c-1.3,0-2.6-0.5-3.5-1.5l-8.6-8.6c-2-2-2-5.1,0-7.1c2-2,5.1-2,7.1,0l4.6,4.6l14.3-18.3c1.7-2.2,4.8-2.6,7-0.9   c2.2,1.7,2.6,4.8,0.9,7l-17.8,22.8c-0.9,1.1-2.2,1.8-3.6,1.9C104,101.7,103.9,101.7,103.8,101.7z" /><path
    d="M139.1,214.9H77c-4.1,0-7.5-3.4-7.5-7.5v-62.1c0-4.1,3.4-7.5,7.5-7.5h62.1c4.1,0,7.5,3.4,7.5,7.5v62.1   C146.6,211.6,143.2,214.9,139.1,214.9z M84.5,199.9h47.1v-47.1H84.5V199.9z" /><path
    d="M103.8,192.8c-1.3,0-2.6-0.5-3.5-1.5l-8.6-8.6c-2-2-2-5.1,0-7.1c2-2,5.1-2,7.1,0l4.6,4.6l14.3-18.3c1.7-2.2,4.8-2.6,7-0.9   c2.2,1.7,2.6,4.8,0.9,7l-17.8,22.8c-0.9,1.1-2.2,1.8-3.6,1.9C104,192.8,103.9,192.8,103.8,192.8z" /><path
    d="M139.1,303.2H77c-4.1,0-7.5-3.4-7.5-7.5v-62.1c0-4.1,3.4-7.5,7.5-7.5h62.1c4.1,0,7.5,3.4,7.5,7.5v62.1   C146.6,299.9,143.2,303.2,139.1,303.2z M84.5,288.2h47.1v-47.1H84.5V288.2z" /><g><path d="M103.8,281.1c-1.3,0-2.6-0.5-3.5-1.5l-8.6-8.6c-2-2-2-5.1,0-7.1c2-2,5.1-2,7.1,0l4.6,4.6l14.3-18.3c1.7-2.2,4.8-2.6,7-0.9    c2.2,1.7,2.6,4.8,0.9,7l-17.8,22.8c-0.9,1.1-2.2,1.8-3.6,1.9C104,281.1,103.9,281.1,103.8,281.1z"/></g><path
    d="M275.5,89.2H167c-2.8,0-5-2.2-5-5s2.2-5,5-5h108.5c2.8,0,5,2.2,5,5S278.3,89.2,275.5,89.2z" /><path
    d="M275.5,182.2H167c-2.8,0-5-2.2-5-5s2.2-5,5-5h108.5c2.8,0,5,2.2,5,5S278.3,182.2,275.5,182.2z" /><g><path d="M275.5,269.2H167c-2.8,0-5-2.2-5-5s2.2-5,5-5h108.5c2.8,0,5,2.2,5,5S278.3,269.2,275.5,269.2z"/></g></g>
    </svg>