<svg xmlns="http://www.w3.org/2000/svg" version="1.1" x="0px" y="0px" viewBox="0 0 125 125">
    <g transform="translate(0,-952.36218)">
        <path
            style="text-indent:0;text-transform:none;direction:ltr;block-progression:tb;baseline-shift:baseline;color:#000000;enable-background:accumulate;"
            d="m 49.719802,962.37995 a 2.0001998,2.0001998 0 0 0 -0.5938,0.1875 L 6.1260015,983.56743 a 2.0001998,2.0001998 0 0 0 0,3.5938 l 13.0000005,6.3437 -13.0625005,7.09377 a 2.0001998,2.0001998 0 0 0 0.062,3.5625 l 13.0000005,6.3438 -13.0625005,7.0937 a 2.0001998,2.0001998 0 0 0 0.062,3.5625 l 43.0000005,21 a 2.0001998,2.0001998 0 0 0 1.75,0 l 42.999997,-21 a 2.0001998,2.0001998 0 0 0 0.062,-3.5625 l -13.0625,-7.0937 13,-6.3438 a 2.0001998,2.0001998 0 0 0 0.062,-3.5625 l -13.0625,-7.09377 13,-6.3437 a 2.0001998,2.0001998 0 0 0 0,-3.5938 L 50.874002,962.56745 a 2.0001998,2.0001998 0 0 0 -1.1542,-0.1875 z m 0.2812,4.21875 38.437497,18.78123 -38.437498,18.74997 -38.4375,-18.74997 38.4375,-18.78123 z m -26.4375,29.06253 25.5625,12.49997 a 2.0001998,2.0001998 0 0 0 1.75,0 l 25.562497,-12.49997 12.1875,6.62497 -38.624998,18.8438 -38.625,-18.8438 12.1875,-6.62497 z m 0,16.99997 25.5625,12.5 a 2.0001998,2.0001998 0 0 0 1.75,0 l 25.562497,-12.5 12.1875,6.625 -38.624998,18.8438 -38.625,-18.8438 12.1875,-6.625 z"
            fill="#000000" fill-opacity="1" stroke="none" marker="none" visibility="visible"
            display="inline" overflow="visible" />
    </g>
</svg>