<svg xmlns="http://www.w3.org/2000/svg" version="1.0" x="0px" y="0px" viewBox="0 0 350 350"
    enable-background="new 0 0 350 350" xml:space="preserve"><g><g><path d="M285,296.5H65c-4.1,0-7.5-3.4-7.5-7.5V61c0-4.1,3.4-7.5,7.5-7.5h220c4.1,0,7.5,3.4,7.5,7.5v228    C292.5,293.1,289.1,296.5,285,296.5z M72.5,281.5h205v-213h-205V281.5z"/></g><g><path d="M260.5,218h-171c-4.1,0-7.5-3.4-7.5-7.5v-124c0-4.1,3.4-7.5,7.5-7.5h171c4.1,0,7.5,3.4,7.5,7.5v124    C268,214.6,264.6,218,260.5,218z M97,203h156V94H97V203z"/></g><g><path d="M260.5,267.5h-171c-2.8,0-5-2.2-5-5v-25c0-2.8,2.2-5,5-5h171c2.8,0,5,2.2,5,5v25C265.5,265.3,263.3,267.5,260.5,267.5z     M94.5,257.5h161v-15h-161V257.5z"/></g><g><path d="M235.5,141.5h-121c-2.8,0-5-2.2-5-5v-25c0-2.8,2.2-5,5-5h121c2.8,0,5,2.2,5,5v25C240.5,139.3,238.3,141.5,235.5,141.5z     M119.5,131.5h111v-15h-111V131.5z"/></g><g><path d="M235.5,191.5h-121c-2.8,0-5-2.2-5-5v-25c0-2.8,2.2-5,5-5h121c2.8,0,5,2.2,5,5v25C240.5,189.3,238.3,191.5,235.5,191.5z     M119.5,181.5h111v-15h-111V181.5z"/></g></g>
    </svg>