<svg xmlns="http://www.w3.org/2000/svg" version="1.1" x="0px" y="0px" viewBox="0 0 100 100" style="enable-background:new 0 0 100 100;"
    xml:space="preserve"><g><path d="M86.5,27H73.6l-0.4-3.5c-0.2-1.8-0.9-3.4-2-4.6C69.5,17,67.2,16,64.8,16H35.2c-2.8,0-5.3,1.3-6.9,3.6   c-0.8,1.1-1.2,2.4-1.4,3.8L26.4,27H13.5C8.3,27,4,31.3,4,36.5v42c0,5.2,4.3,9.5,9.5,9.5h73c5.2,0,9.5-4.3,9.5-9.5v-42   C96,31.3,91.7,27,86.5,27z M89,78.5c0,1.4-1.1,2.5-2.5,2.5h-73c-1.4,0-2.5-1.1-2.5-2.5v-42c0-1.4,1.1-2.5,2.5-2.5h16   c1.8,0,3.3-1.3,3.5-3.1l0.8-6.7c0.1-0.4,0.2-0.6,0.2-0.6c0.3-0.4,0.7-0.6,1.2-0.6h29.6c0.4,0,0.8,0.2,1.1,0.5   c0.1,0.1,0.2,0.4,0.3,0.8l0.8,6.6c0.2,1.8,1.7,3.1,3.5,3.1h16c1.4,0,2.5,1.1,2.5,2.5V78.5z"/><path
    d="M50,32.5c-12.4,0-22.5,10.1-22.5,22.5S37.6,77.5,50,77.5S72.5,67.4,72.5,55S62.4,32.5,50,32.5z M50,70.5   c-8.5,0-15.5-7-15.5-15.5s7-15.5,15.5-15.5s15.5,7,15.5,15.5S58.5,70.5,50,70.5z" /></g>
    </svg>