<svg xmlns="http://www.w3.org/2000/svg" version="1.0" x="0px" y="0px" viewBox="0 0 350 350"
    enable-background="new 0 0 350 350" xml:space="preserve"><g><g><g><path d="M107.2,102.4c-1.2,0-2.4-0.4-3.4-1.3l-8.7-7.9c-1-0.9-1.6-2.2-1.6-3.5c-0.1-1.3,0.4-2.6,1.3-3.6l8.6-9.2     c1.9-2,5-2.1,7.1-0.2c2,1.9,2.1,5,0.2,7.1l-5.2,5.5l5,4.5c2,1.9,2.2,5,0.3,7.1C109.9,101.9,108.6,102.4,107.2,102.4z"/></g><g><path d="M241.9,102.3c-1.3,0-2.7-0.5-3.7-1.6c-1.9-2-1.8-5.2,0.2-7.1l4.9-4.6l-5.2-5.5c-1.9-2-1.8-5.2,0.2-7.1     c2-1.9,5.2-1.8,7.1,0.2l8.7,9.1c0.9,1,1.4,2.3,1.4,3.6c0,1.3-0.6,2.6-1.6,3.5l-8.6,8C244.3,101.9,243.1,102.3,241.9,102.3z"/></g></g><g><path d="M221.5,95.5h-94c-2.8,0-5-2.2-5-5s2.2-5,5-5h94c2.8,0,5,2.2,5,5S224.3,95.5,221.5,95.5z"/></g><g><path d="M153,167.2H65c-2.8,0-5-2.2-5-5V120c0-2.8,2.2-5,5-5h88c2.8,0,5,2.2,5,5v42.2C158,165,155.8,167.2,153,167.2z M70,157.2    h78V125H70V157.2z"/></g><g><path d="M197,167.2h-44c-2.8,0-5-2.2-5-5V120c0-2.8,2.2-5,5-5h44c2.8,0,5,2.2,5,5v42.2C202,165,199.8,167.2,197,167.2z M158,157.2    h34V125h-34V157.2z"/></g><g><path d="M241,167.2h-44c-2.8,0-5-2.2-5-5V120c0-2.8,2.2-5,5-5h44c2.8,0,5,2.2,5,5v42.2C246,165,243.8,167.2,241,167.2z M202,157.2    h34V125h-34V157.2z"/></g><g><path d="M285,167.2h-44c-2.8,0-5-2.2-5-5V120c0-2.8,2.2-5,5-5h44c2.8,0,5,2.2,5,5v42.2C290,165,287.8,167.2,285,167.2z M246,157.2    h34V125h-34V157.2z"/></g><g><path d="M109,209.5H65c-2.8,0-5-2.2-5-5v-42.2c0-2.8,2.2-5,5-5h44c2.8,0,5,2.2,5,5v42.2C114,207.3,111.8,209.5,109,209.5z     M70,199.5h34v-32.2H70V199.5z"/></g><g><path d="M153,209.5h-44c-2.8,0-5-2.2-5-5v-42.2c0-2.8,2.2-5,5-5h44c2.8,0,5,2.2,5,5v42.2C158,207.3,155.8,209.5,153,209.5z     M114,199.5h34v-32.2h-34V199.5z"/></g><g><rect x="153" y="162.2" width="44" height="42.2"/>
    <path
        d="M197,209.5h-44c-2.8,0-5-2.2-5-5v-42.2c0-2.8,2.2-5,5-5h44c2.8,0,5,2.2,5,5v42.2C202,207.3,199.8,209.5,197,209.5z     M158,199.5h34v-32.2h-34V199.5z" /></g><g><path d="M241,209.5h-44c-2.8,0-5-2.2-5-5v-42.2c0-2.8,2.2-5,5-5h44c2.8,0,5,2.2,5,5v42.2C246,207.3,243.8,209.5,241,209.5z     M202,199.5h34v-32.2h-34V199.5z"/></g><g><path d="M285,209.5h-44c-2.8,0-5-2.2-5-5v-42.2c0-2.8,2.2-5,5-5h44c2.8,0,5,2.2,5,5v42.2C290,207.3,287.8,209.5,285,209.5z     M246,199.5h34v-32.2h-34V199.5z"/></g><g><path d="M109,251.8H65c-2.8,0-5-2.2-5-5v-42.2c0-2.8,2.2-5,5-5h44c2.8,0,5,2.2,5,5v42.2C114,249.5,111.8,251.8,109,251.8z     M70,241.8h34v-32.2H70V241.8z"/></g><g><path d="M153,251.8h-44c-2.8,0-5-2.2-5-5v-42.2c0-2.8,2.2-5,5-5h44c2.8,0,5,2.2,5,5v42.2C158,249.5,155.8,251.8,153,251.8z     M114,241.8h34v-32.2h-34V241.8z"/></g><g><path d="M197,251.8h-44c-2.8,0-5-2.2-5-5v-42.2c0-2.8,2.2-5,5-5h44c2.8,0,5,2.2,5,5v42.2C202,249.5,199.8,251.8,197,251.8z     M158,241.8h34v-32.2h-34V241.8z"/></g><g><path d="M241,251.8h-44c-2.8,0-5-2.2-5-5v-42.2c0-2.8,2.2-5,5-5h44c2.8,0,5,2.2,5,5v42.2C246,249.5,243.8,251.8,241,251.8z     M202,241.8h34v-32.2h-34V241.8z"/></g><g><path d="M285,251.8h-44c-2.8,0-5-2.2-5-5v-42.2c0-2.8,2.2-5,5-5h44c2.8,0,5,2.2,5,5v42.2C290,249.5,287.8,251.8,285,251.8z     M246,241.8h34v-32.2h-34V241.8z"/></g><g><path d="M109,294H65c-2.8,0-5-2.2-5-5v-42.2c0-2.8,2.2-5,5-5h44c2.8,0,5,2.2,5,5V289C114,291.8,111.8,294,109,294z M70,284h34    v-32.2H70V284z"/></g><g><path d="M285,294H109c-2.8,0-5-2.2-5-5v-42.2c0-2.8,2.2-5,5-5h176c2.8,0,5,2.2,5,5V289C290,291.8,287.8,294,285,294z M114,284h166    v-32.2H114V284z"/></g><g><path d="M285,296.5H65c-4.1,0-7.5-3.4-7.5-7.5V61c0-4.1,3.4-7.5,7.5-7.5h220c4.1,0,7.5,3.4,7.5,7.5v228    C292.5,293.1,289.1,296.5,285,296.5z M72.5,281.5h205v-213h-205V281.5z"/></g></g>
    </svg>