<svg xmlns="http://www.w3.org/2000/svg" version="1.0" x="0px" y="0px" viewBox="0 0 350 350"
    enable-background="new 0 0 350 350" xml:space="preserve"><g><g><g><path d="M175,270.5c-39.7,0-72-32.3-72-72s32.3-72,72-72s72,32.3,72,72S214.7,270.5,175,270.5z M175,136.5c-34.2,0-62,27.8-62,62     s27.8,62,62,62s62-27.8,62-62S209.2,136.5,175,136.5z"/></g><g><path d="M199.5,203h-25c-2.8,0-5-2.2-5-5v-41c0-2.8,2.2-5,5-5s5,2.2,5,5v36h20c2.8,0,5,2.2,5,5S202.3,203,199.5,203z"/></g><g><path d="M153.5,111H124c-2.8,0-5-2.2-5-5s2.2-5,5-5h29.5c2.8,0,5,2.2,5,5S156.3,111,153.5,111z"/></g><g><path d="M222.5,111H193c-2.8,0-5-2.2-5-5s2.2-5,5-5h29.5c2.8,0,5,2.2,5,5S225.3,111,222.5,111z"/></g><g><circle cx="173.5" cy="86" r="6.5"/></g><g><circle cx="173.5" cy="106" r="6.5"/></g></g><g><path d="M285,296.5H65c-4.1,0-7.5-3.4-7.5-7.5V61c0-4.1,3.4-7.5,7.5-7.5h220c4.1,0,7.5,3.4,7.5,7.5v228    C292.5,293.1,289.1,296.5,285,296.5z M72.5,281.5h205v-213h-205V281.5z"/></g></g>
    </svg>