<svg xmlns="http://www.w3.org/2000/svg" version="1.1" x="0px" y="0px" viewBox="0 0 70 70" style="enable-background:new 0 0 70 70;"
    xml:space="preserve"><style type="text/css">
	.st0{fill:none;stroke:#000000;stroke-width:2;stroke-linecap:round;stroke-linejoin:round;stroke-miterlimit:10;}
</style>
    <g><g><g><g><path d="M17.3095703,58.4765625c-0.1289063,0-0.2587891-0.0249023-0.3828125-0.0761719      c-0.3730469-0.1547852-0.6171875-0.519043-0.6171875-0.9238281v-8.9204102h-3.359375      C11.3232422,48.5561523,10,47.2324219,10,45.6054688V14.4741211c0-1.6269531,1.3232422-2.9506836,2.9501953-2.9506836      h44.0996094C58.6767578,11.5234375,60,12.847168,60,14.4741211v31.1313477c0,1.6269531-1.3232422,2.9506836-2.9501953,2.9506836      H27.6337891l-9.6171875,9.6269531C17.8261719,58.375,17.5693359,58.4765625,17.3095703,58.4765625z M12.9501953,13.5234375      C12.4257813,13.5234375,12,13.949707,12,14.4741211v31.1313477c0,0.5244141,0.4257813,0.9506836,0.9501953,0.9506836h4.359375      c0.5527344,0,1,0.4477539,1,1v7.5043945l8.2021484-8.2109375c0.1875-0.1879883,0.4414063-0.293457,0.7070313-0.293457      h29.8310547C57.5742188,46.5561523,58,46.1298828,58,45.6054688V14.4741211      c0-0.5244141-0.4257813-0.9506836-0.9501953-0.9506836H12.9501953z"/></g></g></g>
        <g><g><g><path d="M52.6875,21.1025391h-35.375c-0.5527344,0-1-0.4477539-1-1s0.4472656-1,1-1h35.375c0.5527344,0,1,0.4477539,1,1      S53.2402344,21.1025391,52.6875,21.1025391z"/></g></g>
            <g><g><path d="M52.6875,27.7275391h-35.375c-0.5527344,0-1-0.4477539-1-1s0.4472656-1,1-1h35.375c0.5527344,0,1,0.4477539,1,1      S53.2402344,27.7275391,52.6875,27.7275391z"/></g></g>
            <g><g><path d="M52.6875,34.3525391h-35.375c-0.5527344,0-1-0.4477539-1-1s0.4472656-1,1-1h35.375c0.5527344,0,1,0.4477539,1,1      S53.2402344,34.3525391,52.6875,34.3525391z"/></g></g>
            <g><g><path d="M52.6875,40.9775391h-35.375c-0.5527344,0-1-0.4477539-1-1s0.4472656-1,1-1h35.375c0.5527344,0,1,0.4477539,1,1      S53.2402344,40.9775391,52.6875,40.9775391z"/></g></g></g></g>
    </svg>