<svg xmlns="http://www.w3.org/2000/svg" version="1.1" x="0px" y="0px" viewBox="0 0 95 95"
    enable-background="new 0 0 95 95" xml:space="preserve"><path d="M92.9,14.5c-0.8-1.1-1.9-1.9-3.3-2.1c-0.3-0.1-0.7-0.1-1-0.1c-6.1,0-8,9.8-10.5,23.5c-0.2,1.3-0.5,2.8-0.8,4.1  C75.8,47.4,75,53,74.8,57.4c-1,0.4-1.7,1.4-2,2.7c-0.2,1.1,0,2.2,0.6,3l-3.9,8.6l4.4,6.4c-0.3-0.2-0.5-0.4-0.8-0.6  c-2.2-1.7-4.1-3.3-5.8-3.2c-0.5-2.2-1.6-3.7-3.2-4.3c-2.7-1.1-6.1,0.5-8.9,2.4c1.6-4.4,1.2-5.8-0.1-6.6c-0.7-0.4-2-1.2-6.4,3.4  c0.8-3.1,0.3-4.2-0.7-4.8c-0.7-0.4-2.1-1.1-6.7,4.1c2.5-7.6,1.8-8.4,1.2-9.1c-0.4-0.5-1.1-0.8-1.8-0.6c-1.4,0.3-3.8,3.4-6.1,7  c0.2-0.9,0.4-1.9,0.5-2.8c2-12,0-21.5-5.7-27.5c-2.4-2.6-4.6-2.5-5.9-2c-4,1.4-6.9,9.1-8.9,18c-1.8-0.8-3.9-1.5-6.1-2.3  c-1.8-0.6-3.7-1.3-5.6-2c-0.8-0.3-1.7,0.1-2,0.9c-0.3,0.8,0.1,1.7,0.9,2c2,0.8,3.9,1.4,5.7,2.1c2.4,0.8,4.6,1.6,6.5,2.4  c-2.1,10.3-3.2,21.3-3.5,24.9c-0.1,0.7,0.3,1.3,1,1.6c0.6,0.2,1.4,0,1.8-0.5c8.1-10.6,10.9-17.1,9.4-21.9c-0.8-2.5-2.6-4.3-5.2-5.7  c1.9-8.6,4.3-15.5,7.1-16.4c0.3-0.1,1.1-0.4,2.7,1.3c12.2,12.9,0.6,40.2,0.5,40.5l0,0c0,0.1-0.1,0.1-0.1,0.2  c-0.2,0.8,0.2,1.6,0.9,1.9c0.8,0.3,1.6-0.1,1.9-0.8c0-0.1,0.2-0.4,0.4-0.9c1.2-2.6,5.7-10.3,8.6-14.3c-0.6,2.2-1.8,6-4.3,12.3  c-0.3,0.7,0,1.5,0.7,1.9c0.7,0.4,1.5,0.2,2-0.5c2.7-3.7,6-7.8,8-9.7c-0.3,1.3-1.1,3.7-2.8,7.8c-0.3,0.7,0,1.5,0.6,1.9  c0.7,0.4,1.5,0.2,2-0.4c2.4-3.1,5.4-6.4,7.2-8c-0.3,1.3-1.1,3.5-2.8,7.3c-0.3,0.7-0.1,1.5,0.5,1.9c0.6,0.4,1.4,0.4,1.9-0.2  c3-2.9,8.1-6.5,10.3-5.6c1.3,0.5,1.5,3,1.6,4.4c0,0.8,0.6,1.4,1.4,1.5c0.8,0.1,1.5-0.4,1.7-1.1c0-0.1,0-0.1,0-0.1  c0.8,0.2,2.5,1.6,3.6,2.5c1.5,1.2,3,2.4,4.3,2.9c0.2,0.1,0.4,0.1,0.5,0.1c0.6,0,1.2-0.4,1.4-1c0.2-0.4,0.1-0.9-0.1-1.3l8.6-5.7  l-0.3-9.4c0.8-0.5,1.4-1.4,1.7-2.6c0.2-0.8,0.1-1.7-0.3-2.5c-0.1-0.3-0.3-0.6-0.6-0.8c1.4-4.1,2.9-9.6,4.3-17.2  c0.3-1.4,0.5-2.8,0.8-4.1C93.9,26.9,95.6,18.5,92.9,14.5z M19.7,59.2c0.9,3-0.9,7.7-5.7,14.6c0.6-5.8,1.6-12.2,2.7-18.1  C18.2,56.7,19.3,57.8,19.7,59.2z M78.8,76l1-5.4c0.2-0.8-0.4-1.6-1.2-1.8c-0.7-0.1-1.5,0.5-1.7,1.3l-1,5.4l-2.8-4.1l3.2-6.9l6.5,1.2  l0.3,7.7L78.8,76z M84.4,62.3c0,0.2-0.1,0.4-0.2,0.5L80,62l-4.2-0.8c-0.1-0.1-0.1-0.2,0-0.5c0-0.2,0.1-0.4,0.2-0.5l8.4,1.6  C84.4,61.9,84.5,62.1,84.4,62.3z M88.6,37.8c-0.3,1.3-0.5,2.8-0.8,4.1c-1.4,7.4-2.8,12.7-4.2,16.7l-5.7-1c0.2-4.2,0.9-9.7,2.4-17.1  c0.3-1.4,0.5-2.8,0.8-4.1c2-10.8,4-21.1,7.6-21.1c0.1,0,0.3,0,0.5,0c0.6,0.1,1,0.4,1.3,0.8C92.4,19.1,90.6,28.2,88.6,37.8z"/>
</svg>