<svg xmlns="http://www.w3.org/2000/svg" version="1.1" x="0px" y="0px" viewBox="0 0 512 512"
    enable-background="new 0 0 512 512" xml:space="preserve"><g><path d="M432,376H80c-13.234,0-24-10.766-24-24V160c0-13.234,10.766-24,24-24h352c13.234,0,24,10.766,24,24v192   C456,365.234,445.234,376,432,376z M80,152c-4.411,0-8,3.589-8,8v192c0,4.411,3.589,8,8,8h352c4.411,0,8-3.589,8-8V160   c0-4.411-3.589-8-8-8H80z"/></g>
    <g><rect x="248" y="144" width="16" height="224"/></g>
    <g><rect x="256" y="248" width="192" height="16"/></g>
    <g><g><polygon points="352,339.314 314.343,301.657 325.657,290.343 352,316.686 378.343,290.343 389.657,301.657   "/></g></g>
    <g><g><polygon points="378.343,221.657 352,195.314 325.657,221.657 314.343,210.343 352,172.686 389.657,210.343   "/></g></g>
    </svg>