<svg xmlns="http://www.w3.org/2000/svg" viewBox="0 0 24 24" x="0px" y="0px">
    <g data-name="Layer 2">
        <path
            d="M12,14.75a3.51,3.51,0,0,0,3.75-3.194V5.444A3.51,3.51,0,0,0,12,2.25,3.51,3.51,0,0,0,8.25,5.444v6.112A3.51,3.51,0,0,0,12,14.75ZM9.75,5.444C9.75,4.51,10.759,3.75,12,3.75s2.25.76,2.25,1.694v6.112c0,.934-1.009,1.694-2.25,1.694s-2.25-.76-2.25-1.694Zm2.968,12.4A.692.692,0,0,1,12.75,18v2.25H14a.75.75,0,0,1,0,1.5H10a.75.75,0,0,1,0-1.5h1.25V18a.692.692,0,0,1,.032-.158C7.9,17.535,5.25,15.089,5.25,12.125a.75.75,0,0,1,1.5,0c0,2.343,2.355,4.25,5.25,4.25s5.25-1.907,5.25-4.25a.75.75,0,0,1,1.5,0C18.75,15.089,16.1,17.535,12.718,17.842Z" />
    </g>
</svg>