<svg xmlns="http://www.w3.org/2000/svg" version="1.1" viewBox="0 0 1024 1024" x="0px" y="0px">
    <title>youtube</title>
    <path
        d="M865.956 860.978h-707.022c-56 0-101.511-45.511-101.511-101.511v-494.756c0-56 45.511-101.511 101.511-101.511h707.022c56 0 101.511 45.511 101.511 101.511v494.756c0.178 55.822-45.511 101.511-101.511 101.511zM158.933 193.422c-39.289 0-71.289 32-71.289 71.289v494.756c0 39.289 32 71.289 71.289 71.289h707.022c39.289 0 71.289-32 71.289-71.289v-494.756c0-39.289-32-71.289-71.289-71.289h-707.022z" />
    <path
        d="M412.444 708.267c-6.222 0-12.444-1.6-18.133-4.8-11.556-6.578-18.489-18.489-18.489-31.822v-319.467c0-13.333 6.933-25.067 18.489-31.822 11.556-6.578 25.244-6.4 36.8 0.356l270.4 159.822c11.2 6.578 17.956 18.489 17.956 31.467s-6.756 24.889-17.956 31.467l-270.4 159.822c-5.867 3.378-12.267 4.978-18.667 4.978z" />
    <text x="0" y="1039" fill="#000000" font-size="5px" font-weight="bold"
        font-family="'Helvetica Neue', Helvetica, Arial-Unicode, Arial, Sans-serif">Created by emil
        robinson
    </text>
    <text x="0" y="1044" fill="#000000" font-size="5px" font-weight="bold"
        font-family="'Helvetica Neue', Helvetica, Arial-Unicode, Arial, Sans-serif">from the Noun
        Project
    </text>
</svg>