<svg xmlns="http://www.w3.org/2000/svg" viewBox="0 0 100 100" x="0px" y="0px">
    <path
        d="M78.79784,37.74598c-3.34473-12.36914-14.74707-21.18652-27.70898-21.18652-10.41699,0-20.10449,5.76074-25.05859,14.78711-.19482-.01105-.39453-.01385-.59326-.01825-.05615-.0014-.11182-.00806-.16846-.00909-.01416-.00055-.02686,.00293-.04102,.00269-.0293-.00018-.05762-.00269-.08691-.00269-12.20801,0-22.14062,9.95898-22.14062,22.20117s9.93262,22.20117,22.14062,22.20117h24.27051v5.71875c0,1.10449,.89551,2,2,2s2-.89551,2-2v-5.71875h24.59277c10.47461,0,18.99609-8.52148,18.99609-18.99609,0-10.20898-8.09473-18.5625-18.20215-18.97949Zm-.79395,33.97559h-24.59277v-18.1145l6.18066,6.17993c.39062,.39062,.90234,.58594,1.41406,.58594s1.02344-.19531,1.41406-.58594c.78125-.78125,.78125-2.04688,0-2.82812l-9.51514-9.51428c-.28955-.32776-.67969-.56195-1.12744-.64508-.01465-.00287-.02979-.00201-.04492-.00452-.10547-.01709-.21143-.03241-.32129-.03241-.00293,0-.00537,.00079-.0083,.00079-.51416-.0022-1.02979,.19232-1.42236,.58514l-9.5791,9.5791c-.78125,.78125-.78125,2.04688,0,2.82812s2.04688,.78125,2.82812,0l6.18164-6.18164v18.14746H25.14061c-10.00293,0-18.14062-8.16504-18.14062-18.20117s8.1377-18.20117,18.14062-18.20117c.06494,0,.13525,.00653,.20117,.00787,.34229,.00879,.68359,.02808,1.02344,.05518,.10742,.00879,.21533,.01733,.32617,.02704,3.12158,.30347,6.11621,1.37427,8.73438,3.14233,.34277,.23242,.73242,.34277,1.11719,.34277,.64258,0,1.27344-.30859,1.65918-.88086,.61816-.91504,.37695-2.1582-.53809-2.77637-2.25488-1.52313-4.74072-2.61682-7.34766-3.25708,4.44238-7.00781,12.32178-11.42065,20.77246-11.42065,10.86475,0,20.45117,7.19635,23.60352,17.40076-1.6167,.31036-3.04297,.94641-4.42676,1.97424-.88672,.6582-1.07227,1.91113-.41309,2.79785,.39258,.52832,.99609,.80762,1.60742,.80762,.41406,0,.83203-.12793,1.19043-.39453,1.35156-1.00391,2.66602-1.41504,4.52832-1.41504,.01367,0,.02246-.00098,.03906,0,.00342,0,.00635-.00098,.00977-.00098h.77637c8.26855,0,14.99609,6.72754,14.99609,14.99609s-6.72754,14.99609-14.99609,14.99609Z" />
    <text x="0" y="115" fill="#000000" font-size="5px" font-weight="bold"
        font-family="'Helvetica Neue', Helvetica, Arial-Unicode, Arial, Sans-serif">Created by
        Fabian Krotzer
    </text>
    <text x="0" y="120" fill="#000000" font-size="5px" font-weight="bold"
        font-family="'Helvetica Neue', Helvetica, Arial-Unicode, Arial, Sans-serif">from the Noun
        Project
    </text>
</svg>