<svg xmlns="http://www.w3.org/2000/svg" version="1.1" x="0px" y="0px" viewBox="0 0 100 100" style="enable-background:new 0 0 100 100;"
    xml:space="preserve"><path d="M96.1,29.4c-1.3-1.3-2.9-2-4.7-2c0,0,0,0,0,0c-1.2,0-2.3,0.3-3.3,0.9v0L70.2,38.6v-8.1c0-5-4.1-9.1-9.1-9.1  H11c-5,0-9.1,4.1-9.1,9.1v39.1c0,5,4.1,9.1,9.1,9.1h50c5,0,9.1-4.1,9.1-9.1v-8.1L88,71.7c3.2,1.8,7.3,0.7,9.2-2.5  c0.6-1,0.9-2.2,0.9-3.4V34.1C98,32.3,97.3,30.6,96.1,29.4z M94,65.9c0,0.5-0.1,0.9-0.4,1.4c-0.7,1.3-2.4,1.7-3.7,1l-20.8-12  c-0.6-0.4-1.4-0.4-2,0c-0.6,0.4-1,1-1,1.7v11.6c0,2.8-2.3,5.1-5.1,5.1H11c-2.8,0-5.1-2.3-5.1-5.1V30.5c0-2.8,2.3-5.1,5.1-5.1h50  c2.8,0,5.1,2.3,5.1,5.1V42c0,0.7,0.4,1.4,1,1.7c0.6,0.4,1.4,0.4,2,0l20.8-12c0,0,0,0,0,0c0.4-0.2,0.9-0.4,1.4-0.4c0,0,0,0,0,0  c0.7,0,1.4,0.3,1.9,0.8c0.5,0.5,0.8,1.2,0.8,1.9V65.9z"/>
    </svg>