<svg xmlns="http://www.w3.org/2000/svg" version="1.1" x="0px" y="0px" viewBox="0 0 50 50"
    enable-background="new 0 0 50 50" xml:space="preserve"><path d="M49.155,17.83H0.844c-0.276,0-0.5,0.225-0.5,0.5v13.34c0,0.275,0.224,0.5,0.5,0.5h48.313c0.276,0,0.5-0.225,0.5-0.5V18.33  C49.655,18.053,49.433,17.83,49.155,17.83z M48.656,31.17L48.656,31.17h-0.214c-0.024-0.116-0.114-0.21-0.238-0.21  s-0.214,0.094-0.238,0.21h-0.553c-0.025-0.116-0.116-0.21-0.238-0.21c-0.124,0-0.214,0.094-0.238,0.21h-0.555  c-0.024-0.116-0.114-0.21-0.236-0.21c-0.124,0-0.214,0.094-0.238,0.21h-0.553c-0.024-0.116-0.114-0.21-0.24-0.21  c-0.124,0-0.213,0.094-0.236,0.21h-0.555c-0.024-0.116-0.114-0.21-0.238-0.21s-0.213,0.094-0.236,0.21h-0.555  c-0.024-0.116-0.112-0.21-0.238-0.21c-0.124,0-0.213,0.094-0.236,0.21h-0.553c-0.025-0.116-0.116-0.21-0.24-0.21  c-0.122,0-0.212,0.094-0.236,0.21h-0.555c-0.025-0.116-0.115-0.21-0.236-0.21c-0.124,0-0.215,0.094-0.24,0.21h-0.553  c-0.024-0.116-0.114-0.21-0.236-0.21c-0.124,0-0.214,0.094-0.238,0.21h-0.555c-0.024-0.116-0.114-0.21-0.236-0.21  c-0.124,0-0.214,0.094-0.238,0.21h-0.555c-0.024-0.116-0.112-0.21-0.238-0.21c-0.124,0-0.213,0.094-0.236,0.21h-0.557  c-0.023-0.116-0.112-0.21-0.236-0.21s-0.213,0.094-0.236,0.21h-0.555c-0.025-0.116-0.116-0.21-0.238-0.21s-0.213,0.094-0.238,0.21  H35.06c-0.024-0.116-0.114-0.21-0.236-0.21c-0.124,0-0.215,0.094-0.24,0.21H34.03c-0.024-0.116-0.114-0.21-0.238-0.21  s-0.213,0.094-0.236,0.21h-0.555c-0.024-0.116-0.114-0.21-0.236-0.21c-0.126,0-0.216,0.094-0.24,0.21H31.97  c-0.023-0.116-0.112-0.21-0.236-0.21s-0.213,0.094-0.236,0.21H30.94c-0.024-0.116-0.114-0.21-0.236-0.21  c-0.124,0-0.214,0.094-0.238,0.21h-0.553c-0.024-0.116-0.114-0.21-0.24-0.21c-0.121,0-0.211,0.094-0.236,0.21h-0.553  c-0.025-0.116-0.116-0.21-0.238-0.21c-0.124,0-0.214,0.094-0.238,0.21h-0.553c-0.024-0.116-0.114-0.21-0.238-0.21  s-0.214,0.094-0.238,0.21h-0.555c-0.023-0.116-0.112-0.21-0.236-0.21s-0.214,0.094-0.238,0.21h-0.553  c-0.024-0.116-0.114-0.21-0.238-0.21s-0.214,0.094-0.238,0.21h-0.638c-0.024-0.116-0.114-0.21-0.238-0.21s-0.212,0.094-0.237,0.21  h-0.554c-0.024-0.116-0.113-0.21-0.236-0.21c-0.125,0-0.214,0.094-0.238,0.21h-0.555c-0.025-0.116-0.115-0.21-0.238-0.21  c-0.124,0-0.214,0.094-0.238,0.21h-0.553c-0.024-0.116-0.114-0.21-0.238-0.21c-0.125,0-0.214,0.094-0.238,0.21h-0.552  c-0.024-0.116-0.114-0.21-0.24-0.21c-0.123,0-0.212,0.094-0.236,0.21h-0.555c-0.024-0.116-0.113-0.21-0.238-0.21  c-0.124,0-0.212,0.094-0.236,0.21h-0.554c-0.025-0.116-0.115-0.21-0.238-0.21c-0.124,0-0.214,0.094-0.238,0.21h-0.553  c-0.024-0.116-0.114-0.21-0.238-0.21s-0.213,0.094-0.237,0.21h-0.555c-0.024-0.116-0.114-0.21-0.236-0.21  c-0.124,0-0.215,0.094-0.24,0.21h-0.553c-0.024-0.116-0.114-0.21-0.237-0.21c-0.124,0-0.214,0.094-0.239,0.21h-0.552  c-0.024-0.116-0.114-0.21-0.238-0.21c-0.124,0-0.213,0.094-0.238,0.21h-0.554c-0.024-0.116-0.114-0.21-0.237-0.21  c-0.124,0-0.214,0.094-0.238,0.21h-0.555c-0.024-0.116-0.114-0.21-0.236-0.21c-0.125,0-0.215,0.094-0.239,0.21H11.3  c-0.024-0.116-0.114-0.21-0.238-0.21c-0.124,0-0.213,0.094-0.237,0.21h-0.554c-0.024-0.116-0.114-0.21-0.237-0.21  c-0.124,0-0.214,0.094-0.239,0.21H9.24c-0.024-0.116-0.114-0.21-0.237-0.21c-0.124,0-0.214,0.094-0.238,0.21H8.212  c-0.024-0.116-0.114-0.21-0.238-0.21c-0.124,0-0.213,0.094-0.237,0.21H7.182c-0.024-0.116-0.114-0.21-0.236-0.21  c-0.124,0-0.214,0.094-0.238,0.21H6.152c-0.024-0.116-0.114-0.21-0.237-0.21c-0.124,0-0.213,0.094-0.237,0.21H5.123  c-0.024-0.116-0.114-0.21-0.238-0.21c-0.123,0-0.212,0.094-0.237,0.21H4.094c-0.024-0.116-0.114-0.21-0.238-0.21  c-0.123,0-0.212,0.094-0.237,0.21H3.064c-0.025-0.116-0.115-0.21-0.237-0.21c-0.125,0-0.213,0.094-0.238,0.21H2.035  c-0.024-0.116-0.114-0.21-0.238-0.21c-0.124,0-0.213,0.094-0.237,0.21H1.344V18.83H1.56c0.024,0.117,0.114,0.211,0.237,0.211  c0.124,0,0.214-0.095,0.238-0.211h0.554c0.024,0.117,0.113,0.211,0.238,0.211c0.123,0,0.213-0.095,0.237-0.211h0.554  c0.024,0.117,0.115,0.211,0.237,0.211c0.124,0,0.214-0.095,0.238-0.211h0.554c0.024,0.117,0.115,0.211,0.237,0.211  c0.124,0,0.214-0.095,0.238-0.211h0.555c0.024,0.117,0.113,0.211,0.237,0.211c0.124,0,0.213-0.095,0.237-0.211h0.555  c0.024,0.117,0.114,0.211,0.238,0.211c0.123,0,0.212-0.095,0.236-0.211h0.555c0.024,0.117,0.114,0.211,0.237,0.211  c0.124,0,0.214-0.095,0.238-0.211h0.553c0.024,0.117,0.114,0.211,0.238,0.211c0.124,0,0.213-0.095,0.237-0.211h0.554  c0.025,0.117,0.115,0.211,0.239,0.211c0.124,0,0.213-0.095,0.237-0.211h0.554c0.024,0.117,0.114,0.211,0.237,0.211  c0.124,0,0.214-0.095,0.238-0.211h0.553c0.024,0.117,0.114,0.211,0.239,0.211c0.123,0,0.212-0.095,0.236-0.211h0.555  c0.024,0.117,0.114,0.211,0.238,0.211c0.124,0,0.213-0.095,0.237-0.211h0.554c0.024,0.117,0.115,0.211,0.238,0.211  c0.124,0,0.214-0.095,0.238-0.211h0.552c0.025,0.117,0.115,0.211,0.239,0.211c0.124,0,0.213-0.095,0.237-0.211h0.553  c0.025,0.117,0.116,0.211,0.24,0.211c0.123,0,0.212-0.095,0.236-0.211h0.555c0.024,0.117,0.113,0.211,0.237,0.211  s0.214-0.095,0.238-0.211h0.553c0.024,0.117,0.114,0.211,0.238,0.211c0.124,0,0.214-0.095,0.238-0.211h0.553  c0.024,0.117,0.113,0.211,0.237,0.211c0.125,0,0.214-0.095,0.238-0.211h0.555c0.024,0.117,0.114,0.211,0.236,0.211  c0.126,0,0.216-0.095,0.24-0.211h0.552c0.024,0.117,0.113,0.211,0.238,0.211c0.124,0,0.214-0.095,0.238-0.211h0.553  c0.024,0.117,0.114,0.211,0.238,0.211c0.124,0,0.214-0.095,0.238-0.211h0.555c0.024,0.117,0.113,0.211,0.238,0.211  c0.124,0,0.212-0.095,0.237-0.211h0.554c0.024,0.117,0.113,0.211,0.237,0.211s0.214-0.095,0.238-0.211h0.638  c0.024,0.117,0.114,0.211,0.238,0.211s0.214-0.095,0.238-0.211h0.553c0.024,0.117,0.114,0.211,0.238,0.211s0.213-0.095,0.236-0.211  h0.555c0.024,0.117,0.114,0.211,0.238,0.211s0.214-0.095,0.238-0.211h0.553c0.024,0.117,0.114,0.211,0.238,0.211  c0.122,0,0.213-0.095,0.238-0.211h0.553c0.024,0.117,0.115,0.211,0.236,0.211c0.126,0,0.216-0.095,0.24-0.211h0.553  c0.024,0.117,0.114,0.211,0.238,0.211c0.122,0,0.212-0.095,0.236-0.211h0.557c0.023,0.117,0.112,0.211,0.236,0.211  s0.213-0.095,0.236-0.211h0.555c0.024,0.117,0.114,0.211,0.24,0.211c0.122,0,0.212-0.095,0.236-0.211h0.555  c0.023,0.117,0.112,0.211,0.236,0.211s0.214-0.095,0.238-0.211h0.553c0.025,0.117,0.116,0.211,0.24,0.211  c0.122,0,0.212-0.095,0.236-0.211h0.553c0.025,0.117,0.116,0.211,0.238,0.211s0.213-0.095,0.238-0.211h0.555  c0.023,0.117,0.112,0.211,0.236,0.211s0.213-0.095,0.236-0.211h0.557c0.023,0.117,0.112,0.211,0.236,0.211  c0.126,0,0.215-0.095,0.238-0.211h0.555c0.024,0.117,0.114,0.211,0.238,0.211c0.122,0,0.212-0.095,0.236-0.211h0.555  c0.024,0.117,0.114,0.211,0.238,0.211c0.122,0,0.212-0.095,0.236-0.211h0.553c0.025,0.117,0.116,0.211,0.24,0.211  c0.121,0,0.212-0.095,0.236-0.211h0.555c0.024,0.117,0.114,0.211,0.236,0.211c0.124,0,0.215-0.095,0.24-0.211h0.553  c0.023,0.117,0.112,0.211,0.236,0.211c0.126,0,0.215-0.095,0.238-0.211h0.555c0.023,0.117,0.112,0.211,0.236,0.211  s0.214-0.095,0.238-0.211h0.555c0.023,0.117,0.112,0.211,0.236,0.211c0.126,0,0.216-0.095,0.24-0.211h0.553  c0.024,0.117,0.114,0.211,0.238,0.211c0.122,0,0.212-0.095,0.236-0.211h0.555c0.024,0.117,0.114,0.211,0.238,0.211  c0.122,0,0.213-0.095,0.238-0.211h0.553c0.024,0.117,0.114,0.211,0.238,0.211s0.214-0.095,0.238-0.211h0.214V31.17z"/>
    <circle cx="25.558" cy="19.914" r="0.258" />
    <circle cx="26.587" cy="19.914" r="0.258" />
    <circle cx="48.204" cy="19.914" r="0.258" />
    <circle cx="47.175" cy="19.914" r="0.258" />
    <circle cx="46.146" cy="19.914" r="0.258" />
    <path
        d="M45.114,19.656c-0.143,0-0.256,0.116-0.256,0.258c0,0.143,0.113,0.257,0.256,0.257c0.145,0,0.26-0.115,0.26-0.257  C45.374,19.772,45.259,19.656,45.114,19.656z" />
    <circle cx="44.085" cy="19.914" r="0.258" />
    <path
        d="M43.056,19.656c-0.143,0-0.256,0.116-0.256,0.258c0,0.143,0.113,0.257,0.256,0.257c0.145,0,0.258-0.115,0.258-0.257  C43.313,19.772,43.2,19.656,43.056,19.656z" />
    <circle cx="42.026" cy="19.914" r="0.258" />
    <path
        d="M40.999,19.656c-0.143,0-0.26,0.116-0.26,0.258c0,0.143,0.117,0.257,0.26,0.257c0.139,0,0.256-0.115,0.256-0.257  C41.255,19.772,41.138,19.656,40.999,19.656z" />
    <circle cx="39.97" cy="19.914" r="0.258" />
    <circle cx="38.94" cy="19.914" r="0.258" />
    <path
        d="M37.909,19.656c-0.143,0-0.256,0.116-0.256,0.258c0,0.143,0.113,0.257,0.256,0.257c0.145,0,0.258-0.115,0.258-0.257  C38.167,19.772,38.054,19.656,37.909,19.656z" />
    <circle cx="36.88" cy="19.914" r="0.258" />
    <circle cx="35.851" cy="19.914" r="0.258" />
    <path
        d="M34.823,19.656c-0.143,0-0.26,0.116-0.26,0.258c0,0.143,0.117,0.257,0.26,0.257c0.141,0,0.256-0.115,0.256-0.257  C35.079,19.772,34.964,19.656,34.823,19.656z" />
    <circle cx="33.792" cy="19.914" r="0.258" />
    <path
        d="M32.765,19.656c-0.145,0-0.26,0.116-0.26,0.258c0,0.143,0.115,0.257,0.26,0.257c0.141,0,0.256-0.115,0.256-0.257  C33.021,19.772,32.905,19.656,32.765,19.656z" />
    <circle cx="31.733" cy="19.914" r="0.258" />
    <circle cx="30.704" cy="19.914" r="0.258" />
    <path
        d="M29.673,19.656c-0.139,0-0.256,0.116-0.256,0.258c0,0.143,0.117,0.257,0.256,0.257c0.145,0,0.26-0.115,0.26-0.257  C29.933,19.772,29.817,19.656,29.673,19.656z" />
    <circle cx="28.646" cy="19.914" r="0.258" />
    <circle cx="27.616" cy="19.914" r="0.258" />
    <circle cx="25.558" cy="21.045" r="0.258" />
    <circle cx="26.587" cy="21.045" r="0.258" />
    <circle cx="48.204" cy="21.045" r="0.258" />
    <circle cx="47.175" cy="21.045" r="0.258" />
    <circle cx="46.146" cy="21.045" r="0.258" />
    <path
        d="M45.114,20.787c-0.143,0-0.256,0.115-0.256,0.257s0.113,0.258,0.256,0.258c0.145,0,0.26-0.116,0.26-0.258  S45.259,20.787,45.114,20.787z" />
    <circle cx="44.085" cy="21.045" r="0.258" />
    <path
        d="M43.056,20.787c-0.143,0-0.256,0.115-0.256,0.257s0.113,0.258,0.256,0.258c0.145,0,0.258-0.116,0.258-0.258  S43.2,20.787,43.056,20.787z" />
    <circle cx="42.026" cy="21.045" r="0.258" />
    <path
        d="M40.999,20.787c-0.143,0-0.26,0.115-0.26,0.257s0.117,0.258,0.26,0.258c0.139,0,0.256-0.116,0.256-0.258  S41.138,20.787,40.999,20.787z" />
    <circle cx="39.97" cy="21.045" r="0.258" />
    <circle cx="38.94" cy="21.045" r="0.258" />
    <path
        d="M37.909,20.787c-0.143,0-0.256,0.115-0.256,0.257s0.113,0.258,0.256,0.258c0.145,0,0.258-0.116,0.258-0.258  S38.054,20.787,37.909,20.787z" />
    <circle cx="36.88" cy="21.045" r="0.258" />
    <circle cx="35.851" cy="21.045" r="0.258" />
    <path
        d="M34.823,20.787c-0.143,0-0.26,0.115-0.26,0.257s0.117,0.258,0.26,0.258c0.141,0,0.256-0.116,0.256-0.258  S34.964,20.787,34.823,20.787z" />
    <circle cx="33.792" cy="21.045" r="0.258" />
    <path
        d="M32.765,20.787c-0.145,0-0.26,0.115-0.26,0.257s0.115,0.258,0.26,0.258c0.141,0,0.256-0.116,0.256-0.258  S32.905,20.787,32.765,20.787z" />
    <circle cx="31.733" cy="21.045" r="0.258" />
    <circle cx="30.704" cy="21.045" r="0.258" />
    <path
        d="M29.673,20.787c-0.139,0-0.256,0.115-0.256,0.257s0.117,0.258,0.256,0.258c0.145,0,0.26-0.116,0.26-0.258  S29.817,20.787,29.673,20.787z" />
    <circle cx="28.646" cy="21.045" r="0.258" />
    <circle cx="27.616" cy="21.045" r="0.258" />
    <circle cx="25.558" cy="23.305" r="0.257" />
    <circle cx="26.587" cy="23.305" r="0.257" />
    <circle cx="48.204" cy="23.305" r="0.257" />
    <circle cx="47.175" cy="23.305" r="0.257" />
    <circle cx="46.146" cy="23.305" r="0.257" />
    <path
        d="M45.114,23.048c-0.143,0-0.256,0.115-0.256,0.257c0,0.142,0.113,0.257,0.256,0.257c0.145,0,0.26-0.115,0.26-0.257  C45.374,23.163,45.259,23.048,45.114,23.048z" />
    <circle cx="44.085" cy="23.305" r="0.257" />
    <path
        d="M43.056,23.048c-0.143,0-0.256,0.115-0.256,0.257c0,0.142,0.113,0.257,0.256,0.257c0.145,0,0.258-0.115,0.258-0.257  C43.313,23.163,43.2,23.048,43.056,23.048z" />
    <circle cx="42.026" cy="23.305" r="0.257" />
    <path
        d="M40.999,23.048c-0.143,0-0.26,0.115-0.26,0.257c0,0.142,0.117,0.257,0.26,0.257c0.139,0,0.256-0.115,0.256-0.257  C41.255,23.163,41.138,23.048,40.999,23.048z" />
    <circle cx="39.97" cy="23.305" r="0.257" />
    <circle cx="38.94" cy="23.305" r="0.257" />
    <path
        d="M37.909,23.048c-0.143,0-0.256,0.115-0.256,0.257c0,0.142,0.113,0.257,0.256,0.257c0.145,0,0.258-0.115,0.258-0.257  C38.167,23.163,38.054,23.048,37.909,23.048z" />
    <circle cx="36.88" cy="23.305" r="0.257" />
    <circle cx="35.851" cy="23.305" r="0.257" />
    <path
        d="M34.823,23.048c-0.143,0-0.26,0.115-0.26,0.257c0,0.142,0.117,0.257,0.26,0.257c0.141,0,0.256-0.115,0.256-0.257  C35.079,23.163,34.964,23.048,34.823,23.048z" />
    <circle cx="33.792" cy="23.305" r="0.257" />
    <path
        d="M32.765,23.048c-0.145,0-0.26,0.115-0.26,0.257c0,0.142,0.115,0.257,0.26,0.257c0.141,0,0.256-0.115,0.256-0.257  C33.021,23.163,32.905,23.048,32.765,23.048z" />
    <circle cx="31.733" cy="23.305" r="0.257" />
    <circle cx="30.704" cy="23.305" r="0.257" />
    <path
        d="M29.673,23.048c-0.139,0-0.256,0.115-0.256,0.257c0,0.142,0.117,0.257,0.256,0.257c0.145,0,0.26-0.115,0.26-0.257  C29.933,23.163,29.817,23.048,29.673,23.048z" />
    <circle cx="28.646" cy="23.305" r="0.257" />
    <circle cx="27.616" cy="23.305" r="0.257" />
    <circle cx="25.558" cy="24.435" r="0.258" />
    <circle cx="26.587" cy="24.435" r="0.258" />
    <circle cx="48.204" cy="24.435" r="0.258" />
    <circle cx="47.175" cy="24.435" r="0.258" />
    <circle cx="46.146" cy="24.435" r="0.258" />
    <path
        d="M45.114,24.177c-0.143,0-0.256,0.116-0.256,0.258c0,0.143,0.113,0.258,0.256,0.258c0.145,0,0.26-0.115,0.26-0.258  C45.374,24.293,45.259,24.177,45.114,24.177z" />
    <circle cx="44.085" cy="24.435" r="0.258" />
    <path
        d="M43.056,24.177c-0.143,0-0.256,0.116-0.256,0.258c0,0.143,0.113,0.258,0.256,0.258c0.145,0,0.258-0.115,0.258-0.258  C43.313,24.293,43.2,24.177,43.056,24.177z" />
    <circle cx="42.026" cy="24.435" r="0.258" />
    <path
        d="M40.999,24.177c-0.143,0-0.26,0.116-0.26,0.258c0,0.143,0.117,0.258,0.26,0.258c0.139,0,0.256-0.115,0.256-0.258  C41.255,24.293,41.138,24.177,40.999,24.177z" />
    <circle cx="39.97" cy="24.435" r="0.258" />
    <circle cx="38.94" cy="24.435" r="0.258" />
    <path
        d="M37.909,24.177c-0.143,0-0.256,0.116-0.256,0.258c0,0.143,0.113,0.258,0.256,0.258c0.145,0,0.258-0.115,0.258-0.258  C38.167,24.293,38.054,24.177,37.909,24.177z" />
    <circle cx="36.88" cy="24.435" r="0.258" />
    <circle cx="35.851" cy="24.435" r="0.258" />
    <path
        d="M34.823,24.177c-0.143,0-0.26,0.116-0.26,0.258c0,0.143,0.117,0.258,0.26,0.258c0.141,0,0.256-0.115,0.256-0.258  C35.079,24.293,34.964,24.177,34.823,24.177z" />
    <circle cx="33.792" cy="24.435" r="0.258" />
    <path
        d="M32.765,24.177c-0.145,0-0.26,0.116-0.26,0.258c0,0.143,0.115,0.258,0.26,0.258c0.141,0,0.256-0.115,0.256-0.258  C33.021,24.293,32.905,24.177,32.765,24.177z" />
    <circle cx="31.733" cy="24.435" r="0.258" />
    <circle cx="30.704" cy="24.435" r="0.258" />
    <path
        d="M29.673,24.177c-0.139,0-0.256,0.116-0.256,0.258c0,0.143,0.117,0.258,0.256,0.258c0.145,0,0.26-0.115,0.26-0.258  C29.933,24.293,29.817,24.177,29.673,24.177z" />
    <circle cx="28.646" cy="24.435" r="0.258" />
    <circle cx="27.616" cy="24.435" r="0.258" />
    <circle cx="25.558" cy="25.566" r="0.258" />
    <circle cx="26.587" cy="25.566" r="0.258" />
    <circle cx="48.204" cy="25.566" r="0.258" />
    <circle cx="47.175" cy="25.566" r="0.258" />
    <circle cx="46.146" cy="25.566" r="0.258" />
    <path
        d="M45.114,25.309c-0.143,0-0.256,0.116-0.256,0.258c0,0.143,0.113,0.258,0.256,0.258c0.145,0,0.26-0.115,0.26-0.258  C45.374,25.425,45.259,25.309,45.114,25.309z" />
    <circle cx="44.085" cy="25.566" r="0.258" />
    <path
        d="M43.056,25.309c-0.143,0-0.256,0.116-0.256,0.258c0,0.143,0.113,0.258,0.256,0.258c0.145,0,0.258-0.115,0.258-0.258  C43.313,25.425,43.2,25.309,43.056,25.309z" />
    <circle cx="42.026" cy="25.566" r="0.258" />
    <path
        d="M40.999,25.309c-0.143,0-0.26,0.116-0.26,0.258c0,0.143,0.117,0.258,0.26,0.258c0.139,0,0.256-0.115,0.256-0.258  C41.255,25.425,41.138,25.309,40.999,25.309z" />
    <circle cx="39.97" cy="25.566" r="0.258" />
    <circle cx="38.94" cy="25.566" r="0.258" />
    <path
        d="M37.909,25.309c-0.143,0-0.256,0.116-0.256,0.258c0,0.143,0.113,0.258,0.256,0.258c0.145,0,0.258-0.115,0.258-0.258  C38.167,25.425,38.054,25.309,37.909,25.309z" />
    <circle cx="36.88" cy="25.566" r="0.258" />
    <circle cx="35.851" cy="25.566" r="0.258" />
    <path
        d="M34.823,25.309c-0.143,0-0.26,0.116-0.26,0.258c0,0.143,0.117,0.258,0.26,0.258c0.141,0,0.256-0.115,0.256-0.258  C35.079,25.425,34.964,25.309,34.823,25.309z" />
    <circle cx="33.792" cy="25.566" r="0.258" />
    <path
        d="M32.765,25.309c-0.145,0-0.26,0.116-0.26,0.258c0,0.143,0.115,0.258,0.26,0.258c0.141,0,0.256-0.115,0.256-0.258  C33.021,25.425,32.905,25.309,32.765,25.309z" />
    <circle cx="31.733" cy="25.566" r="0.258" />
    <circle cx="30.704" cy="25.566" r="0.258" />
    <path
        d="M29.673,25.309c-0.139,0-0.256,0.116-0.256,0.258c0,0.143,0.117,0.258,0.256,0.258c0.145,0,0.26-0.115,0.26-0.258  C29.933,25.425,29.817,25.309,29.673,25.309z" />
    <circle cx="28.646" cy="25.566" r="0.258" />
    <circle cx="27.616" cy="25.566" r="0.258" />
    <circle cx="25.558" cy="26.697" r="0.257" />
    <circle cx="26.587" cy="26.697" r="0.257" />
    <circle cx="48.204" cy="26.697" r="0.257" />
    <circle cx="47.175" cy="26.697" r="0.257" />
    <circle cx="46.146" cy="26.697" r="0.257" />
    <path
        d="M45.114,26.439c-0.143,0-0.256,0.115-0.256,0.257c0,0.143,0.113,0.258,0.256,0.258c0.145,0,0.26-0.115,0.26-0.258  C45.374,26.555,45.259,26.439,45.114,26.439z" />
    <circle cx="44.085" cy="26.697" r="0.257" />
    <path
        d="M43.056,26.439c-0.143,0-0.256,0.115-0.256,0.257c0,0.143,0.113,0.258,0.256,0.258c0.145,0,0.258-0.115,0.258-0.258  C43.313,26.555,43.2,26.439,43.056,26.439z" />
    <circle cx="42.026" cy="26.697" r="0.257" />
    <path
        d="M40.999,26.439c-0.143,0-0.26,0.115-0.26,0.257c0,0.143,0.117,0.258,0.26,0.258c0.139,0,0.256-0.115,0.256-0.258  C41.255,26.555,41.138,26.439,40.999,26.439z" />
    <circle cx="39.97" cy="26.697" r="0.257" />
    <circle cx="38.94" cy="26.697" r="0.257" />
    <path
        d="M37.909,26.439c-0.143,0-0.256,0.115-0.256,0.257c0,0.143,0.113,0.258,0.256,0.258c0.145,0,0.258-0.115,0.258-0.258  C38.167,26.555,38.054,26.439,37.909,26.439z" />
    <circle cx="36.88" cy="26.697" r="0.257" />
    <circle cx="35.851" cy="26.697" r="0.257" />
    <path
        d="M34.823,26.439c-0.143,0-0.26,0.115-0.26,0.257c0,0.143,0.117,0.258,0.26,0.258c0.141,0,0.256-0.115,0.256-0.258  C35.079,26.555,34.964,26.439,34.823,26.439z" />
    <circle cx="33.792" cy="26.697" r="0.257" />
    <path
        d="M32.765,26.439c-0.145,0-0.26,0.115-0.26,0.257c0,0.143,0.115,0.258,0.26,0.258c0.141,0,0.256-0.115,0.256-0.258  C33.021,26.555,32.905,26.439,32.765,26.439z" />
    <circle cx="31.733" cy="26.697" r="0.257" />
    <circle cx="30.704" cy="26.697" r="0.257" />
    <path
        d="M29.673,26.439c-0.139,0-0.256,0.115-0.256,0.257c0,0.143,0.117,0.258,0.256,0.258c0.145,0,0.26-0.115,0.26-0.258  C29.933,26.555,29.817,26.439,29.673,26.439z" />
    <circle cx="28.646" cy="26.697" r="0.257" />
    <circle cx="27.616" cy="26.697" r="0.257" />
    <circle cx="25.558" cy="27.826" r="0.258" />
    <circle cx="26.587" cy="27.826" r="0.258" />
    <circle cx="48.204" cy="27.826" r="0.258" />
    <circle cx="47.175" cy="27.826" r="0.258" />
    <circle cx="46.146" cy="27.826" r="0.258" />
    <path
        d="M45.114,27.568c-0.143,0-0.256,0.115-0.256,0.257c0,0.143,0.113,0.259,0.256,0.259c0.145,0,0.26-0.116,0.26-0.259  C45.374,27.684,45.259,27.568,45.114,27.568z" />
    <circle cx="44.085" cy="27.826" r="0.258" />
    <path
        d="M43.056,27.568c-0.143,0-0.256,0.115-0.256,0.257c0,0.143,0.113,0.259,0.256,0.259c0.145,0,0.258-0.116,0.258-0.259  C43.313,27.684,43.2,27.568,43.056,27.568z" />
    <circle cx="42.026" cy="27.826" r="0.258" />
    <path
        d="M40.999,27.568c-0.143,0-0.26,0.115-0.26,0.257c0,0.143,0.117,0.259,0.26,0.259c0.139,0,0.256-0.116,0.256-0.259  C41.255,27.684,41.138,27.568,40.999,27.568z" />
    <circle cx="39.97" cy="27.826" r="0.258" />
    <circle cx="38.94" cy="27.826" r="0.258" />
    <path
        d="M37.909,27.568c-0.143,0-0.256,0.115-0.256,0.257c0,0.143,0.113,0.259,0.256,0.259c0.145,0,0.258-0.116,0.258-0.259  C38.167,27.684,38.054,27.568,37.909,27.568z" />
    <circle cx="36.88" cy="27.826" r="0.258" />
    <circle cx="35.851" cy="27.826" r="0.258" />
    <path
        d="M34.823,27.568c-0.143,0-0.26,0.115-0.26,0.257c0,0.143,0.117,0.259,0.26,0.259c0.141,0,0.256-0.116,0.256-0.259  C35.079,27.684,34.964,27.568,34.823,27.568z" />
    <circle cx="33.792" cy="27.826" r="0.258" />
    <path
        d="M32.765,27.568c-0.145,0-0.26,0.115-0.26,0.257c0,0.143,0.115,0.259,0.26,0.259c0.141,0,0.256-0.116,0.256-0.259  C33.021,27.684,32.905,27.568,32.765,27.568z" />
    <circle cx="31.733" cy="27.826" r="0.258" />
    <circle cx="30.704" cy="27.826" r="0.258" />
    <path
        d="M29.673,27.568c-0.139,0-0.256,0.115-0.256,0.257c0,0.143,0.117,0.259,0.256,0.259c0.145,0,0.26-0.116,0.26-0.259  C29.933,27.684,29.817,27.568,29.673,27.568z" />
    <circle cx="28.646" cy="27.826" r="0.258" />
    <circle cx="27.616" cy="27.826" r="0.258" />
    <circle cx="25.558" cy="28.958" r="0.258" />
    <circle cx="26.587" cy="28.958" r="0.258" />
    <circle cx="48.204" cy="28.958" r="0.258" />
    <circle cx="47.175" cy="28.958" r="0.258" />
    <circle cx="46.146" cy="28.958" r="0.258" />
    <path
        d="M45.114,28.699c-0.143,0-0.256,0.116-0.256,0.259c0,0.142,0.113,0.258,0.256,0.258c0.145,0,0.26-0.116,0.26-0.258  C45.374,28.815,45.259,28.699,45.114,28.699z" />
    <circle cx="44.085" cy="28.958" r="0.258" />
    <path
        d="M43.056,28.699c-0.143,0-0.256,0.116-0.256,0.259c0,0.142,0.113,0.258,0.256,0.258c0.145,0,0.258-0.116,0.258-0.258  C43.313,28.815,43.2,28.699,43.056,28.699z" />
    <circle cx="42.026" cy="28.958" r="0.258" />
    <path
        d="M40.999,28.699c-0.143,0-0.26,0.116-0.26,0.259c0,0.142,0.117,0.258,0.26,0.258c0.139,0,0.256-0.116,0.256-0.258  C41.255,28.815,41.138,28.699,40.999,28.699z" />
    <circle cx="39.97" cy="28.958" r="0.258" />
    <circle cx="38.94" cy="28.958" r="0.258" />
    <path
        d="M37.909,28.699c-0.143,0-0.256,0.116-0.256,0.259c0,0.142,0.113,0.258,0.256,0.258c0.145,0,0.258-0.116,0.258-0.258  C38.167,28.815,38.054,28.699,37.909,28.699z" />
    <circle cx="36.88" cy="28.958" r="0.258" />
    <circle cx="35.851" cy="28.958" r="0.258" />
    <path
        d="M34.823,28.699c-0.143,0-0.26,0.116-0.26,0.259c0,0.142,0.117,0.258,0.26,0.258c0.141,0,0.256-0.116,0.256-0.258  C35.079,28.815,34.964,28.699,34.823,28.699z" />
    <circle cx="33.792" cy="28.958" r="0.258" />
    <path
        d="M32.765,28.699c-0.145,0-0.26,0.116-0.26,0.259c0,0.142,0.115,0.258,0.26,0.258c0.141,0,0.256-0.116,0.256-0.258  C33.021,28.815,32.905,28.699,32.765,28.699z" />
    <circle cx="31.733" cy="28.958" r="0.258" />
    <circle cx="30.704" cy="28.958" r="0.258" />
    <path
        d="M29.673,28.699c-0.139,0-0.256,0.116-0.256,0.259c0,0.142,0.117,0.258,0.256,0.258c0.145,0,0.26-0.116,0.26-0.258  C29.933,28.815,29.817,28.699,29.673,28.699z" />
    <circle cx="28.646" cy="28.958" r="0.258" />
    <circle cx="27.616" cy="28.958" r="0.258" />
    <circle cx="25.558" cy="30.087" r="0.257" />
    <circle cx="26.587" cy="30.087" r="0.257" />
    <circle cx="48.204" cy="30.087" r="0.257" />
    <circle cx="47.175" cy="30.087" r="0.257" />
    <circle cx="46.146" cy="30.087" r="0.257" />
    <path
        d="M45.114,29.83c-0.143,0-0.256,0.115-0.256,0.258c0,0.142,0.113,0.257,0.256,0.257c0.145,0,0.26-0.115,0.26-0.257  C45.374,29.945,45.259,29.83,45.114,29.83z" />
    <circle cx="44.085" cy="30.087" r="0.257" />
    <path
        d="M43.056,29.83c-0.143,0-0.256,0.115-0.256,0.258c0,0.142,0.113,0.257,0.256,0.257c0.145,0,0.258-0.115,0.258-0.257  C43.313,29.945,43.2,29.83,43.056,29.83z" />
    <circle cx="42.026" cy="30.087" r="0.257" />
    <path
        d="M40.999,29.83c-0.143,0-0.26,0.115-0.26,0.258c0,0.142,0.117,0.257,0.26,0.257c0.139,0,0.256-0.115,0.256-0.257  C41.255,29.945,41.138,29.83,40.999,29.83z" />
    <circle cx="39.97" cy="30.087" r="0.257" />
    <circle cx="38.94" cy="30.087" r="0.257" />
    <path
        d="M37.909,29.83c-0.143,0-0.256,0.115-0.256,0.258c0,0.142,0.113,0.257,0.256,0.257c0.145,0,0.258-0.115,0.258-0.257  C38.167,29.945,38.054,29.83,37.909,29.83z" />
    <circle cx="36.88" cy="30.087" r="0.257" />
    <circle cx="35.851" cy="30.087" r="0.257" />
    <path
        d="M34.823,29.83c-0.143,0-0.26,0.115-0.26,0.258c0,0.142,0.117,0.257,0.26,0.257c0.141,0,0.256-0.115,0.256-0.257  C35.079,29.945,34.964,29.83,34.823,29.83z" />
    <circle cx="33.792" cy="30.087" r="0.257" />
    <path
        d="M32.765,29.83c-0.145,0-0.26,0.115-0.26,0.258c0,0.142,0.115,0.257,0.26,0.257c0.141,0,0.256-0.115,0.256-0.257  C33.021,29.945,32.905,29.83,32.765,29.83z" />
    <circle cx="31.733" cy="30.087" r="0.257" />
    <circle cx="30.704" cy="30.087" r="0.257" />
    <path
        d="M29.673,29.83c-0.139,0-0.256,0.115-0.256,0.258c0,0.142,0.117,0.257,0.256,0.257c0.145,0,0.26-0.115,0.26-0.257  C29.933,29.945,29.817,29.83,29.673,29.83z" />
    <circle cx="28.646" cy="30.087" r="0.257" />
    <circle cx="27.616" cy="30.087" r="0.257" />
    <circle cx="25.558" cy="22.175" r="0.258" />
    <circle cx="26.587" cy="22.175" r="0.258" />
    <circle cx="48.204" cy="22.175" r="0.258" />
    <circle cx="47.175" cy="22.175" r="0.258" />
    <circle cx="46.146" cy="22.175" r="0.258" />
    <path
        d="M45.114,21.917c-0.143,0-0.256,0.116-0.256,0.258s0.113,0.257,0.256,0.257c0.145,0,0.26-0.115,0.26-0.257  S45.259,21.917,45.114,21.917z" />
    <circle cx="44.085" cy="22.175" r="0.258" />
    <path
        d="M43.056,21.917c-0.143,0-0.256,0.116-0.256,0.258s0.113,0.257,0.256,0.257c0.145,0,0.258-0.115,0.258-0.257  S43.2,21.917,43.056,21.917z" />
    <circle cx="42.026" cy="22.175" r="0.258" />
    <path
        d="M40.999,21.917c-0.143,0-0.26,0.116-0.26,0.258s0.117,0.257,0.26,0.257c0.139,0,0.256-0.115,0.256-0.257  S41.138,21.917,40.999,21.917z" />
    <circle cx="39.97" cy="22.175" r="0.258" />
    <circle cx="38.94" cy="22.175" r="0.258" />
    <path
        d="M37.909,21.917c-0.143,0-0.256,0.116-0.256,0.258s0.113,0.257,0.256,0.257c0.145,0,0.258-0.115,0.258-0.257  S38.054,21.917,37.909,21.917z" />
    <circle cx="36.88" cy="22.175" r="0.258" />
    <circle cx="35.851" cy="22.175" r="0.258" />
    <path
        d="M34.823,21.917c-0.143,0-0.26,0.116-0.26,0.258s0.117,0.257,0.26,0.257c0.141,0,0.256-0.115,0.256-0.257  S34.964,21.917,34.823,21.917z" />
    <circle cx="33.792" cy="22.175" r="0.258" />
    <path
        d="M32.765,21.917c-0.145,0-0.26,0.116-0.26,0.258s0.115,0.257,0.26,0.257c0.141,0,0.256-0.115,0.256-0.257  S32.905,21.917,32.765,21.917z" />
    <circle cx="31.733" cy="22.175" r="0.258" />
    <circle cx="30.704" cy="22.175" r="0.258" />
    <path
        d="M29.673,21.917c-0.139,0-0.256,0.116-0.256,0.258s0.117,0.257,0.256,0.257c0.145,0,0.26-0.115,0.26-0.257  S29.817,21.917,29.673,21.917z" />
    <circle cx="28.646" cy="22.175" r="0.258" />
    <circle cx="27.616" cy="22.175" r="0.258" />
    <circle cx="1.797" cy="19.914" r="0.258" />
    <circle cx="23.416" cy="19.914" r="0.258" />
    <circle cx="22.385" cy="19.914" r="0.258" />
    <circle cx="21.355" cy="19.914" r="0.258" />
    <path
        d="M20.325,19.656c-0.141,0-0.256,0.116-0.256,0.258c0,0.143,0.115,0.257,0.256,0.257c0.145,0,0.26-0.115,0.26-0.257  C20.585,19.772,20.47,19.656,20.325,19.656z" />
    <circle cx="19.296" cy="19.914" r="0.258" />
    <circle cx="18.268" cy="19.914" r="0.258" />
    <circle cx="17.238" cy="19.914" r="0.258" />
    <path
        d="M16.21,19.656c-0.143,0-0.26,0.116-0.26,0.258c0,0.143,0.117,0.257,0.26,0.257c0.141,0,0.256-0.115,0.256-0.257  C16.466,19.772,16.351,19.656,16.21,19.656z" />
    <circle cx="15.18" cy="19.914" r="0.258" />
    <circle cx="14.15" cy="19.914" r="0.258" />
    <circle cx="13.121" cy="19.914" r="0.258" />
    <circle cx="12.092" cy="19.914" r="0.258" />
    <circle cx="11.062" cy="19.914" r="0.258" />
    <circle cx="10.033" cy="19.914" r="0.258" />
    <circle cx="9.003" cy="19.914" r="0.258" />
    <circle cx="7.974" cy="19.914" r="0.258" />
    <circle cx="6.945" cy="19.914" r="0.258" />
    <circle cx="5.915" cy="19.914" r="0.258" />
    <circle cx="4.885" cy="19.914" r="0.258" />
    <circle cx="3.855" cy="19.914" r="0.258" />
    <circle cx="2.827" cy="19.914" r="0.258" />
    <circle cx="24.443" cy="19.914" r="0.258" />
    <circle cx="1.797" cy="21.045" r="0.258" />
    <circle cx="23.416" cy="21.045" r="0.258" />
    <circle cx="22.385" cy="21.045" r="0.258" />
    <circle cx="21.355" cy="21.045" r="0.258" />
    <path
        d="M20.325,20.787c-0.141,0-0.256,0.115-0.256,0.257s0.115,0.258,0.256,0.258c0.145,0,0.26-0.116,0.26-0.258  S20.47,20.787,20.325,20.787z" />
    <circle cx="19.296" cy="21.045" r="0.258" />
    <circle cx="18.268" cy="21.045" r="0.258" />
    <circle cx="17.238" cy="21.045" r="0.258" />
    <path
        d="M16.21,20.787c-0.143,0-0.26,0.115-0.26,0.257s0.117,0.258,0.26,0.258c0.141,0,0.256-0.116,0.256-0.258  S16.351,20.787,16.21,20.787z" />
    <circle cx="15.18" cy="21.045" r="0.258" />
    <circle cx="14.15" cy="21.045" r="0.258" />
    <circle cx="13.121" cy="21.045" r="0.258" />
    <circle cx="12.092" cy="21.045" r="0.258" />
    <circle cx="11.062" cy="21.045" r="0.258" />
    <circle cx="10.033" cy="21.045" r="0.258" />
    <circle cx="9.003" cy="21.045" r="0.258" />
    <path
        d="M8.04,20.814c0-0.008,0.005-0.015,0.005-0.023c0-0.275-0.224-0.5-0.5-0.5h-3.69c-0.276,0-0.5,0.225-0.5,0.5  c0,0.257,0.197,0.462,0.448,0.489c0.019,0.005,0.033,0.022,0.053,0.022c0.011,0,0.018-0.01,0.028-0.012h0.973  c0.01,0.001,0.017,0.012,0.028,0.012s0.018-0.01,0.028-0.012H5.2v7.418H4.908c-0.009-0.001-0.014-0.01-0.023-0.01  c-0.009,0-0.015,0.009-0.023,0.01H3.879c-0.009-0.001-0.014-0.01-0.023-0.01c-0.017,0-0.028,0.016-0.044,0.019  c-0.255,0.022-0.457,0.231-0.457,0.491c0,0.275,0.224,0.5,0.5,0.5h3.69c0.276,0,0.5-0.225,0.5-0.5c0-0.008-0.004-0.014-0.004-0.021  c0.106-0.032,0.191-0.114,0.191-0.229c0-0.143-0.115-0.259-0.258-0.259c-0.073,0-0.138,0.033-0.185,0.083  c-0.073-0.043-0.153-0.073-0.244-0.073H6.969c-0.009-0.001-0.015-0.01-0.023-0.01c-0.009,0-0.015,0.009-0.023,0.01H6.199v-7.418  h0.718c0.011,0.001,0.018,0.012,0.028,0.012s0.018-0.01,0.028-0.012h0.572c0.09,0,0.17-0.03,0.244-0.072  c0.047,0.05,0.111,0.084,0.185,0.084c0.143,0,0.258-0.116,0.258-0.258C8.231,20.928,8.146,20.847,8.04,20.814z" />
    <circle cx="2.827" cy="21.045" r="0.258" />
    <circle cx="24.443" cy="21.045" r="0.258" />
    <circle cx="1.797" cy="23.305" r="0.257" />
    <circle cx="23.416" cy="23.305" r="0.257" />
    <circle cx="22.385" cy="23.305" r="0.257" />
    <circle cx="21.355" cy="23.305" r="0.257" />
    <path
        d="M20.325,23.048c-0.141,0-0.256,0.115-0.256,0.257c0,0.142,0.115,0.257,0.256,0.257c0.145,0,0.26-0.115,0.26-0.257  C20.585,23.163,20.47,23.048,20.325,23.048z" />
    <circle cx="19.296" cy="23.305" r="0.257" />
    <circle cx="18.268" cy="23.305" r="0.257" />
    <circle cx="17.238" cy="23.305" r="0.257" />
    <path
        d="M16.21,23.048c-0.143,0-0.26,0.115-0.26,0.257c0,0.142,0.117,0.257,0.26,0.257c0.141,0,0.256-0.115,0.256-0.257  C16.466,23.163,16.351,23.048,16.21,23.048z" />
    <circle cx="15.18" cy="23.305" r="0.257" />
    <circle cx="14.15" cy="23.305" r="0.257" />
    <circle cx="13.121" cy="23.305" r="0.257" />
    <circle cx="12.092" cy="23.305" r="0.257" />
    <circle cx="11.062" cy="23.305" r="0.257" />
    <circle cx="10.033" cy="23.305" r="0.257" />
    <circle cx="9.003" cy="23.305" r="0.257" />
    <circle cx="7.974" cy="23.305" r="0.257" />
    <circle cx="6.945" cy="23.305" r="0.257" />
    <circle cx="4.885" cy="23.305" r="0.257" />
    <circle cx="3.855" cy="23.305" r="0.257" />
    <circle cx="2.827" cy="23.305" r="0.257" />
    <circle cx="24.443" cy="23.305" r="0.257" />
    <circle cx="1.797" cy="24.435" r="0.258" />
    <circle cx="23.416" cy="24.435" r="0.258" />
    <circle cx="22.385" cy="24.435" r="0.258" />
    <circle cx="21.355" cy="24.435" r="0.258" />
    <path
        d="M20.325,24.177c-0.141,0-0.256,0.116-0.256,0.258c0,0.143,0.115,0.258,0.256,0.258c0.145,0,0.26-0.115,0.26-0.258  C20.585,24.293,20.47,24.177,20.325,24.177z" />
    <circle cx="19.296" cy="24.435" r="0.258" />
    <circle cx="18.268" cy="24.435" r="0.258" />
    <circle cx="17.238" cy="24.435" r="0.258" />
    <path
        d="M16.21,24.177c-0.143,0-0.26,0.116-0.26,0.258c0,0.143,0.117,0.258,0.26,0.258c0.141,0,0.256-0.115,0.256-0.258  C16.466,24.293,16.351,24.177,16.21,24.177z" />
    <circle cx="15.18" cy="24.435" r="0.258" />
    <circle cx="14.15" cy="24.435" r="0.258" />
    <circle cx="13.121" cy="24.435" r="0.258" />
    <circle cx="12.092" cy="24.435" r="0.258" />
    <circle cx="11.062" cy="24.435" r="0.258" />
    <circle cx="10.033" cy="24.435" r="0.258" />
    <circle cx="9.003" cy="24.435" r="0.258" />
    <circle cx="7.974" cy="24.435" r="0.258" />
    <circle cx="6.945" cy="24.435" r="0.258" />
    <circle cx="4.885" cy="24.435" r="0.258" />
    <circle cx="3.855" cy="24.435" r="0.258" />
    <circle cx="2.827" cy="24.435" r="0.258" />
    <circle cx="24.443" cy="24.435" r="0.258" />
    <circle cx="1.797" cy="25.566" r="0.258" />
    <circle cx="23.416" cy="25.566" r="0.258" />
    <circle cx="22.385" cy="25.566" r="0.258" />
    <circle cx="21.355" cy="25.566" r="0.258" />
    <path
        d="M20.325,25.309c-0.141,0-0.256,0.116-0.256,0.258c0,0.143,0.115,0.258,0.256,0.258c0.145,0,0.26-0.115,0.26-0.258  C20.585,25.425,20.47,25.309,20.325,25.309z" />
    <circle cx="19.296" cy="25.566" r="0.258" />
    <circle cx="18.268" cy="25.566" r="0.258" />
    <circle cx="17.238" cy="25.566" r="0.258" />
    <path
        d="M16.21,25.309c-0.143,0-0.26,0.116-0.26,0.258c0,0.143,0.117,0.258,0.26,0.258c0.141,0,0.256-0.115,0.256-0.258  C16.466,25.425,16.351,25.309,16.21,25.309z" />
    <circle cx="15.18" cy="25.566" r="0.258" />
    <circle cx="14.15" cy="25.566" r="0.258" />
    <circle cx="13.121" cy="25.566" r="0.258" />
    <circle cx="12.092" cy="25.566" r="0.258" />
    <circle cx="11.062" cy="25.566" r="0.258" />
    <circle cx="10.033" cy="25.566" r="0.258" />
    <circle cx="9.003" cy="25.566" r="0.258" />
    <circle cx="7.974" cy="25.566" r="0.258" />
    <circle cx="6.945" cy="25.566" r="0.258" />
    <circle cx="4.885" cy="25.566" r="0.258" />
    <circle cx="3.855" cy="25.566" r="0.258" />
    <circle cx="2.827" cy="25.566" r="0.258" />
    <circle cx="24.443" cy="25.566" r="0.258" />
    <circle cx="1.797" cy="26.697" r="0.257" />
    <circle cx="23.416" cy="26.697" r="0.257" />
    <circle cx="22.385" cy="26.697" r="0.257" />
    <circle cx="21.355" cy="26.697" r="0.257" />
    <path
        d="M20.325,26.439c-0.141,0-0.256,0.115-0.256,0.257c0,0.143,0.115,0.258,0.256,0.258c0.145,0,0.26-0.115,0.26-0.258  C20.585,26.555,20.47,26.439,20.325,26.439z" />
    <circle cx="19.296" cy="26.697" r="0.257" />
    <circle cx="18.268" cy="26.697" r="0.257" />
    <circle cx="17.238" cy="26.697" r="0.257" />
    <path
        d="M16.21,26.439c-0.143,0-0.26,0.115-0.26,0.257c0,0.143,0.117,0.258,0.26,0.258c0.141,0,0.256-0.115,0.256-0.258  C16.466,26.555,16.351,26.439,16.21,26.439z" />
    <circle cx="15.18" cy="26.697" r="0.257" />
    <circle cx="14.15" cy="26.697" r="0.257" />
    <circle cx="13.121" cy="26.697" r="0.257" />
    <circle cx="12.092" cy="26.697" r="0.257" />
    <circle cx="11.062" cy="26.697" r="0.257" />
    <circle cx="10.033" cy="26.697" r="0.257" />
    <circle cx="9.003" cy="26.697" r="0.257" />
    <circle cx="7.974" cy="26.697" r="0.257" />
    <circle cx="6.945" cy="26.697" r="0.257" />
    <circle cx="4.885" cy="26.697" r="0.257" />
    <circle cx="3.855" cy="26.697" r="0.257" />
    <circle cx="2.827" cy="26.697" r="0.257" />
    <circle cx="24.443" cy="26.697" r="0.257" />
    <circle cx="1.797" cy="27.826" r="0.258" />
    <circle cx="23.416" cy="27.826" r="0.258" />
    <circle cx="22.385" cy="27.826" r="0.258" />
    <circle cx="21.355" cy="27.826" r="0.258" />
    <path
        d="M20.325,27.568c-0.141,0-0.256,0.115-0.256,0.257c0,0.143,0.115,0.259,0.256,0.259c0.145,0,0.26-0.116,0.26-0.259  C20.585,27.684,20.47,27.568,20.325,27.568z" />
    <circle cx="19.296" cy="27.826" r="0.258" />
    <circle cx="18.268" cy="27.826" r="0.258" />
    <circle cx="17.238" cy="27.826" r="0.258" />
    <path
        d="M16.21,27.568c-0.143,0-0.26,0.115-0.26,0.257c0,0.143,0.117,0.259,0.26,0.259c0.141,0,0.256-0.116,0.256-0.259  C16.466,27.684,16.351,27.568,16.21,27.568z" />
    <circle cx="15.18" cy="27.826" r="0.258" />
    <circle cx="14.15" cy="27.826" r="0.258" />
    <circle cx="13.121" cy="27.826" r="0.258" />
    <circle cx="12.092" cy="27.826" r="0.258" />
    <circle cx="11.062" cy="27.826" r="0.258" />
    <circle cx="10.033" cy="27.826" r="0.258" />
    <circle cx="9.003" cy="27.826" r="0.258" />
    <circle cx="7.974" cy="27.826" r="0.258" />
    <circle cx="6.945" cy="27.826" r="0.258" />
    <circle cx="4.885" cy="27.826" r="0.258" />
    <circle cx="3.855" cy="27.826" r="0.258" />
    <circle cx="2.827" cy="27.826" r="0.258" />
    <circle cx="24.443" cy="27.826" r="0.258" />
    <circle cx="1.797" cy="28.958" r="0.258" />
    <circle cx="23.416" cy="28.958" r="0.258" />
    <circle cx="22.385" cy="28.958" r="0.258" />
    <circle cx="21.355" cy="28.958" r="0.258" />
    <path
        d="M20.325,28.699c-0.141,0-0.256,0.116-0.256,0.259c0,0.142,0.115,0.258,0.256,0.258c0.145,0,0.26-0.116,0.26-0.258  C20.585,28.815,20.47,28.699,20.325,28.699z" />
    <circle cx="19.296" cy="28.958" r="0.258" />
    <circle cx="18.268" cy="28.958" r="0.258" />
    <circle cx="17.238" cy="28.958" r="0.258" />
    <path
        d="M16.21,28.699c-0.143,0-0.26,0.116-0.26,0.259c0,0.142,0.117,0.258,0.26,0.258c0.141,0,0.256-0.116,0.256-0.258  C16.466,28.815,16.351,28.699,16.21,28.699z" />
    <circle cx="15.18" cy="28.958" r="0.258" />
    <circle cx="14.15" cy="28.958" r="0.258" />
    <circle cx="13.121" cy="28.958" r="0.258" />
    <circle cx="12.092" cy="28.958" r="0.258" />
    <circle cx="11.062" cy="28.958" r="0.258" />
    <circle cx="10.033" cy="28.958" r="0.258" />
    <circle cx="9.003" cy="28.958" r="0.258" />
    <circle cx="2.827" cy="28.958" r="0.258" />
    <circle cx="24.443" cy="28.958" r="0.258" />
    <circle cx="1.797" cy="30.087" r="0.257" />
    <circle cx="23.416" cy="30.087" r="0.257" />
    <circle cx="22.385" cy="30.087" r="0.257" />
    <circle cx="21.355" cy="30.087" r="0.257" />
    <path
        d="M20.325,29.83c-0.141,0-0.256,0.115-0.256,0.258c0,0.142,0.115,0.257,0.256,0.257c0.145,0,0.26-0.115,0.26-0.257  C20.585,29.945,20.47,29.83,20.325,29.83z" />
    <circle cx="19.296" cy="30.087" r="0.257" />
    <circle cx="18.268" cy="30.087" r="0.257" />
    <circle cx="17.238" cy="30.087" r="0.257" />
    <path
        d="M16.21,29.83c-0.143,0-0.26,0.115-0.26,0.258c0,0.142,0.117,0.257,0.26,0.257c0.141,0,0.256-0.115,0.256-0.257  C16.466,29.945,16.351,29.83,16.21,29.83z" />
    <circle cx="15.18" cy="30.087" r="0.257" />
    <circle cx="14.15" cy="30.087" r="0.257" />
    <circle cx="13.121" cy="30.087" r="0.257" />
    <circle cx="12.092" cy="30.087" r="0.257" />
    <circle cx="11.062" cy="30.087" r="0.257" />
    <circle cx="10.033" cy="30.087" r="0.257" />
    <circle cx="9.003" cy="30.087" r="0.257" />
    <circle cx="7.974" cy="30.087" r="0.257" />
    <circle cx="6.945" cy="30.087" r="0.257" />
    <circle cx="5.915" cy="30.087" r="0.257" />
    <circle cx="4.885" cy="30.087" r="0.257" />
    <circle cx="3.855" cy="30.087" r="0.257" />
    <circle cx="2.827" cy="30.087" r="0.257" />
    <circle cx="24.443" cy="30.087" r="0.257" />
    <circle cx="1.797" cy="22.175" r="0.258" />
    <circle cx="23.416" cy="22.175" r="0.258" />
    <circle cx="22.385" cy="22.175" r="0.258" />
    <circle cx="21.355" cy="22.175" r="0.258" />
    <path
        d="M20.325,21.917c-0.141,0-0.256,0.116-0.256,0.258s0.115,0.257,0.256,0.257c0.145,0,0.26-0.115,0.26-0.257  S20.47,21.917,20.325,21.917z" />
    <circle cx="19.296" cy="22.175" r="0.258" />
    <circle cx="18.268" cy="22.175" r="0.258" />
    <circle cx="17.238" cy="22.175" r="0.258" />
    <path
        d="M16.21,21.917c-0.143,0-0.26,0.116-0.26,0.258s0.117,0.257,0.26,0.257c0.141,0,0.256-0.115,0.256-0.257  S16.351,21.917,16.21,21.917z" />
    <circle cx="15.18" cy="22.175" r="0.258" />
    <circle cx="14.15" cy="22.175" r="0.258" />
    <circle cx="13.121" cy="22.175" r="0.258" />
    <circle cx="12.092" cy="22.175" r="0.258" />
    <circle cx="11.062" cy="22.175" r="0.258" />
    <circle cx="10.033" cy="22.175" r="0.258" />
    <circle cx="9.003" cy="22.175" r="0.258" />
    <circle cx="7.974" cy="22.175" r="0.258" />
    <circle cx="6.945" cy="22.175" r="0.258" />
    <circle cx="4.885" cy="22.175" r="0.258" />
    <circle cx="3.855" cy="22.175" r="0.258" />
    <circle cx="2.827" cy="22.175" r="0.258" />
    <circle cx="24.443" cy="22.175" r="0.258" />
    </svg>