<svg xmlns="http://www.w3.org/2000/svg" version="1.0" x="0px" y="0px" viewBox="0 0 350 350"
    enable-background="new 0 0 350 350" xml:space="preserve"><g><g><path d="M256.5,198h-50c-2.8,0-5-2.2-5-5v-37c0-2.8,2.2-5,5-5h50c2.8,0,5,2.2,5,5v37C261.5,195.8,259.3,198,256.5,198z M211.5,188    h40v-27h-40V188z"/></g><g><path d="M231.3,181.9c-1.1,0-2.1-0.3-3-1l-24.8-18.9c-2.2-1.7-2.6-4.8-0.9-7c1.7-2.2,4.8-2.6,7-0.9l21.8,16.6l21.8-16.6    c2.2-1.7,5.3-1.2,7,0.9c1.7,2.2,1.2,5.3-0.9,7l-24.8,18.9C233.4,181.5,232.4,181.9,231.3,181.9z"/></g><g><path d="M278,235H72c-4.1,0-7.5-3.4-7.5-7.5v-105c0-4.1,3.4-7.5,7.5-7.5h206c4.1,0,7.5,3.4,7.5,7.5v105    C285.5,231.6,282.1,235,278,235z M79.5,220h191v-90h-191V220z"/></g><g><path d="M127.7,202.5H97.6c-2.8,0-5-2.2-5-5s2.2-5,5-5h30.1c2.8,0,5,2.2,5,5S130.5,202.5,127.7,202.5z"/></g><g><path d="M167.7,200.5c-2.8,0-5-2.2-5-5v-42c0-2.8,2.2-5,5-5s5,2.2,5,5v42C172.7,198.3,170.4,200.5,167.7,200.5z"/></g><g><path d="M182.7,155.5h-30.1c-2.8,0-5-2.2-5-5s2.2-5,5-5h30.1c2.8,0,5,2.2,5,5S185.5,155.5,182.7,155.5z"/></g><g><path d="M182.7,202.5h-30.1c-2.8,0-5-2.2-5-5s2.2-5,5-5h30.1c2.8,0,5,2.2,5,5S185.5,202.5,182.7,202.5z"/></g></g>
    </svg>