<svg xmlns="http://www.w3.org/2000/svg" version="1.0" x="0px" y="0px" viewBox="0 0 350 350"
    enable-background="new 0 0 350 350" xml:space="preserve"><g><g><g><path d="M144.8,202.4c-1.2,0-2.4-0.4-3.4-1.3L118.4,180c-1-0.9-1.6-2.2-1.6-3.5c-0.1-1.3,0.4-2.6,1.3-3.6l22.9-24.5     c1.9-2,5-2.1,7.1-0.2c2,1.9,2.1,5,0.2,7.1l-19.4,20.8l19.4,17.7c2,1.9,2.2,5,0.3,7.1C147.6,201.9,146.2,202.4,144.8,202.4z"/></g><g><path d="M205.4,202.1c-1.3,0-2.7-0.5-3.7-1.6c-1.9-2-1.8-5.2,0.2-7.1l19.2-17.9L201.5,155c-1.9-2-1.8-5.2,0.2-7.1     c2-1.9,5.2-1.8,7.1,0.2l23.1,24.2c0.9,1,1.4,2.3,1.4,3.6c0,1.3-0.6,2.6-1.6,3.5l-22.9,21.3C207.8,201.7,206.6,202.1,205.4,202.1z     "/></g><g><path d="M166.6,203.8c-0.5,0-1.1-0.1-1.6-0.3c-2.6-0.9-4-3.7-3.1-6.4l16.5-48c0.9-2.6,3.7-4,6.4-3.1c2.6,0.9,4,3.7,3.1,6.4     l-16.5,48C170.7,202.5,168.7,203.8,166.6,203.8z"/></g></g><g><path d="M72.3,235.6c-4.1,0-7.5-3.3-7.5-7.5l-0.6-105c0-2,0.8-3.9,2.2-5.3s3.3-2.2,5.3-2.2l206-1.2c0,0,0,0,0,0    c4.1,0,7.5,3.3,7.5,7.5l0.6,105c0,2-0.8,3.9-2.2,5.3s-3.3,2.2-5.3,2.2L72.3,235.6C72.3,235.6,72.3,235.6,72.3,235.6z M79.2,130.6    l0.5,90l191-1.1l-0.5-90L79.2,130.6z"/></g></g>
    </svg>