<svg xmlns="http://www.w3.org/2000/svg" version="1.0" x="0px" y="0px" viewBox="0 0 350 350"
    enable-background="new 0 0 350 350" xml:space="preserve"><g><g><path d="M181.4,214h-67.1c-21.2,0-38.5-17.3-38.5-38.5S93,137,114.2,137h66.3c4.1,0,7.5,3.4,7.5,7.5s-3.4,7.5-7.5,7.5h-66.3    c-13,0-23.5,10.5-23.5,23.5s10.5,23.5,23.5,23.5h67.1c4.1,0,7.5,3.4,7.5,7.5S185.5,214,181.4,214z"/></g><g><path d="M218.2,231c-30.9,0-56-25.1-56-56s25.1-56,56-56s56,25.1,56,56S249.1,231,218.2,231z M218.2,134c-22.6,0-41,18.4-41,41    s18.4,41,41,41s41-18.4,41-41S240.9,134,218.2,134z"/></g></g>
</svg>