<svg xmlns="http://www.w3.org/2000/svg" data-name="Layer 1" viewBox="0 0 100 100" x="0px" y="0px">
    <defs>
        <style>
            .cls-1{fill:none;clip-rule:evenodd;}.cls-2{fill-rule:evenodd;}.cls-3{clip-path:url(#b);}.cls-4{clip-path:url(#a);}
        </style>
        <clipPath id="b">
            <path class="cls-1"
                d="M-1067.28-816a5.65,5.65,0,0,0-5.73,5.51v48.71a5.64,5.64,0,0,0,5.73,5.5h78.1a5.63,5.63,0,0,0,5.73-5.5v-48.71a5.62,5.62,0,0,0-5.73-5.51Zm75.68,52.9-73.45-.32a1.18,1.18,0,0,1-.81-.33,1,1,0,0,1-.33-.75v-43.8a1.08,1.08,0,0,1,.33-.75,1.22,1.22,0,0,1,.81-.32l73.45.32a1.21,1.21,0,0,1,.81.32,1.06,1.06,0,0,1,.33.76v43.79a1,1,0,0,1-.33.76A1.22,1.22,0,0,1-991.6-763.14Z" />
        </clipPath>
        <clipPath id="a">
            <path class="cls-1"
                d="M-1050.63-799.94a6.3,6.3,0,0,0-3.73-1.17h-3.73v3h3.73a1.74,1.74,0,0,1,1.87,1.49v20.9a1.74,1.74,0,0,1-1.87,1.5h-3.73v3h3.73a6.36,6.36,0,0,0,3.73-1.16,6.46,6.46,0,0,0,3.73,1.16h3.74v-3h-3.73a1.74,1.74,0,0,1-1.87-1.5v-20.9a1.74,1.74,0,0,1,1.87-1.49h3.73v-3h-3.73a6.4,6.4,0,0,0-3.74,1.17" />
        </clipPath>
    </defs>
    <title>Input Field 2</title>
    <path class="cls-2"
        d="M88.84,18H10.74A5.64,5.64,0,0,0,5,23.48V72.19a5.65,5.65,0,0,0,5.73,5.5h78.1a5.63,5.63,0,0,0,5.73-5.5V23.48A5.62,5.62,0,0,0,88.84,18ZM87.56,69.79a1,1,0,0,1-.33.76,1.22,1.22,0,0,1-.81.32L13,70.55a1.18,1.18,0,0,1-.81-.33,1,1,0,0,1-.33-.75V25.67a1.08,1.08,0,0,1,.33-.75A1.22,1.22,0,0,1,13,24.6l73.45.32a1.21,1.21,0,0,1,.81.32,1.06,1.06,0,0,1,.33.76Z" />
    <path class="cls-2"
        d="M27.39,34.07a6.3,6.3,0,0,0-3.73-1.17H19.93v3h3.73a1.74,1.74,0,0,1,1.87,1.49v20.9a1.74,1.74,0,0,1-1.87,1.5H19.93v3h3.73a6.36,6.36,0,0,0,3.73-1.16,6.46,6.46,0,0,0,3.73,1.16h3.74v-3H31.13a1.74,1.74,0,0,1-1.87-1.5V37.38a1.74,1.74,0,0,1,1.87-1.49h3.73v-3H31.13A6.4,6.4,0,0,0,27.39,34.07Z" />
    <text x="0" y="115" fill="#000000" font-size="5px" font-weight="bold"
        font-family="'Helvetica Neue', Helvetica, Arial-Unicode, Arial, Sans-serif">Created by rupa
        c
    </text>
    <text x="0" y="120" fill="#000000" font-size="5px" font-weight="bold"
        font-family="'Helvetica Neue', Helvetica, Arial-Unicode, Arial, Sans-serif">from the Noun
        Project
    </text>
</svg>