<svg xmlns="http://www.w3.org/2000/svg" version="1.0" x="0px" y="0px" viewBox="0 0 350 350"
    enable-background="new 0 0 350 350" xml:space="preserve"><g><g><path d="M265,137.9H85c-2.8,0-5-2.2-5-5V80.4c0-2.8,2.2-5,5-5h180c2.8,0,5,2.2,5,5v52.5C270,135.7,267.8,137.9,265,137.9z     M90,127.9h170V85.4H90V127.9z"/></g><g><path d="M234.3,117.1c-1.2,0-2.3-0.4-3.3-1.2l-13.1-11.4c-2.1-1.8-2.3-5-0.5-7.1c1.8-2.1,5-2.3,7.1-0.5l9.8,8.5l9.5-8.5    c2.1-1.8,5.2-1.7,7.1,0.4c1.8,2.1,1.7,5.2-0.4,7.1l-12.8,11.4C236.7,116.7,235.5,117.1,234.3,117.1z"/></g><g><g><path d="M265,206.9H85c-2.8,0-5-2.2-5-5v-52.5c0-2.8,2.2-5,5-5h180c2.8,0,5,2.2,5,5v52.5C270,204.7,267.8,206.9,265,206.9z      M90,196.9h170v-42.5H90V196.9z"/></g></g><g><g><path d="M221.2,274.4h-92.4c-16.8,0-30.4-13.7-30.4-30.4c0-16.8,13.7-30.4,30.4-30.4h92.4c16.8,0,30.4,13.7,30.4,30.4     C251.6,260.7,238,274.4,221.2,274.4z M128.8,223.5c-11.3,0-20.4,9.2-20.4,20.4c0,11.3,9.2,20.4,20.4,20.4h92.4     c11.3,0,20.4-9.2,20.4-20.4c0-11.3-9.2-20.4-20.4-20.4H128.8z"/></g></g><g><g><path d="M285.8,296.4H64.2c-4.1,0-7.5-3.4-7.5-7.5V61.1c0-4.1,3.4-7.5,7.5-7.5h221.6c4.1,0,7.5,3.4,7.5,7.5v227.7     C293.3,293,290,296.4,285.8,296.4z M71.7,281.4h206.6V68.6H71.7V281.4z"/></g></g><g><path d="M201.3,112.2H106c-2.8,0-5-2.2-5-5s2.2-5,5-5h95.3c2.8,0,5,2.2,5,5S204.1,112.2,201.3,112.2z"/></g><g><path d="M243.2,180.4H106.8c-2.8,0-5-2.2-5-5s2.2-5,5-5h136.5c2.8,0,5,2.2,5,5S246,180.4,243.2,180.4z"/></g></g>
    </svg>