<?xml version="1.0" encoding="utf-8"?>
<!-- Uploaded to: SVG Repo, www.svgrepo.com, Generator: SVG Repo Mixer Tools -->
<svg fill="#000000" height="800px" width="800px" version="1.1" id="_x31_" xmlns="http://www.w3.org/2000/svg" xmlns:xlink="http://www.w3.org/1999/xlink" 
	 viewBox="0 0 128 128" xml:space="preserve">
<path id="_x33__1_" d="M88.5,6.1c-15.7,0-28.5,12.8-28.5,28.5v17.1H11.7V120h74V51.7H71.4V34.6c0-9.4,7.7-17.1,17.1-17.1
	s17.1,7.7,17.1,17.1v17.1H117V34.6C117,18.9,104.2,6.1,88.5,6.1z M57.2,102.9H40.1l2.3-13.4c-3.1-2-5.1-5.4-5.1-9.4
	c0-6.3,5.1-11.4,11.4-11.4s11.4,5.1,11.4,11.4c0,4-2,7.4-5.1,9.4L57.2,102.9z"/>
</svg>