<?xml version="1.0" encoding="iso-8859-1"?>
<!-- Uploaded to: SVG Repo, www.svgrepo.com, Generator: SVG Repo Mixer Tools -->
<svg height="800px" width="800px" version="1.1" id="Capa_1" xmlns="http://www.w3.org/2000/svg" xmlns:xlink="http://www.w3.org/1999/xlink" 
	 viewBox="0 0 27.7 27.7" xml:space="preserve">
<g>
	<g>
		<path style="fill:#030104;" d="M25.899,5.935h-15.81c-0.991,0-1.801,0.771-1.801,1.721v1.639h15.81v0.45v4.128v0.314H8.288v1.845
			c0,0.95,0.81,1.722,1.801,1.722h15.81c0.996,0,1.801-0.771,1.801-1.722V7.656C27.7,6.706,26.895,5.935,25.899,5.935z"/>
		<path style="fill:#030104;" d="M3.599,18.302v-0.418v-4.126V13.41h15.808v-1.74c0-0.952-0.805-1.723-1.801-1.723H1.798
			C0.805,9.947,0,10.717,0,11.669v8.374c0,0.952,0.805,1.723,1.798,1.723h15.808c0.996,0,1.801-0.771,1.801-1.723v-1.741H3.599z"/>
	</g>
</g>
</svg>