<svg xmlns="http://www.w3.org/2000/svg" version="1.1" viewBox="-5.0 -10.0 110.0 110.0">
    <g>
        <path
            d="m95.188 56.312h-90.375c-2.6562 0-4.8125 2.1562-4.8125 4.7969s2.1562 4.8125 4.8125 4.8125h41.016l-11.234 17.75c-0.57812 0.90625-0.60938 2.0312-0.078125 2.9688 0.51562 0.95312 1.4688 1.5156 2.5469 1.5156h25.844c1.0781 0 2.0625-0.59375 2.5625-1.5469 0.51562-0.9375 0.46875-2.0938-0.14062-3l-11.812-17.688h41.641c2.6562 0 4.8125-2.1719 4.8125-4.8125s-2.125-4.7969-4.7812-4.7969z" />
        <path
            d="m6.9219 48.109c3.8594 3.8438 8.9844 5.9375 14.391 5.9375 5.3906 0 10.484-2.0938 14.328-5.875 3.9375-3.875 6.0938-9.0469 6.0938-14.547 0-5.4219-2.1094-10.531-5.9062-14.359l-0.10938-0.10938c-3.8594-3.8438-8.9688-5.9531-14.406-5.9531-5.4219 0-10.531 2.1094-14.344 5.9062l-0.125 0.10938c-3.8438 3.8594-5.9531 8.9688-5.9531 14.391s2.1094 10.547 5.9062 14.359zm12.844 3.4062c-3.8906-0.34375-7.5625-1.9375-10.484-4.5469 0.1875-0.23438 0.39062-0.4375 0.625-0.60938 2.75 2.4688 6.2188 3.9688 9.875 4.2969-0.03125 0.28125-0.03125 0.5625-0.015625 0.85938zm19.109-16.328c0.10938 0 0.23438 0 0.34375-0.015625-0.34375 3.8906-1.9375 7.5625-4.5469 10.484-0.23438-0.17188-0.4375-0.39062-0.60938-0.625 2.4688-2.7344 3.9688-6.2188 4.2969-9.8594 0.17188 0.015625 0.34375 0.015625 0.51562 0.015625zm-16.016-19.453c3.8906 0.34375 7.5625 1.9531 10.484 4.5625-0.17188 0.21875-0.39062 0.42188-0.625 0.59375-2.7344-2.4531-6.2188-3.9688-9.875-4.2812 0.03125-0.3125 0.03125-0.59375 0.015625-0.875zm-19.047 16.344h-0.39062c0.34375-3.8906 1.9531-7.5625 4.5625-10.484 0.21875 0.1875 0.42188 0.39062 0.59375 0.625-2.4531 2.7344-3.9688 6.2188-4.2812 9.875-0.17188-0.015625-0.32812-0.015625-0.48438-0.015625zm17.5-13.125c8.0938 0 14.672 6.5938 14.672 14.672 0 8.0938-6.5781 14.672-14.672 14.672-8.0781 0-14.672-6.5781-14.672-14.672 0-8.0781 6.5938-14.672 14.672-14.672z" />
        <path
            d="m21.312 41.062c-1.7188 0-3.1094-1.3906-3.1094-3.1094 0-0.67188-0.54688-1.2188-1.2344-1.2188s-1.2188 0.54688-1.2188 1.2188c0 2.5781 1.8438 4.8281 4.3281 5.4062v1.5c0 0.67188 0.54688 1.2188 1.2188 1.2188s1.2188-0.54688 1.2188-1.2188v-1.5c2.5-0.5625 4.3281-2.8281 4.3281-5.4062 0-3.0625-2.5-5.5625-5.5625-5.5625-1.7188 0-3.1094-1.3906-3.1094-3.1094s1.3906-3.1094 3.1094-3.1094 3.1094 1.3906 3.1094 3.1094c0 0.67188 0.54688 1.2188 1.2188 1.2188s1.2344-0.54688 1.2344-1.2188c0-2.5781-1.8438-4.8438-4.3281-5.4062v-1.5c0-0.67188-0.54688-1.2188-1.2188-1.2188s-1.2188 0.54688-1.2188 1.2188v1.5c-2.5 0.5625-4.3281 2.8281-4.3281 5.4062 0 3.0625 2.5 5.5625 5.5625 5.5625 1.7188 0 3.1094 1.3906 3.1094 3.1094s-1.3906 3.1094-3.1094 3.1094z" />
        <path
            d="m58.25 39.094h2.9844c0.23438 0.71875 0.51562 1.3906 0.82812 2.0469l-2.1094 2.1094c-0.51562 0.51562-0.8125 1.2031-0.8125 1.9375s0.29688 1.4219 0.8125 1.9375l3.8594 3.875c0.5 0.5 1.2031 0.78125 1.9531 0.78125 0.73438 0 1.4375-0.28125 1.9375-0.79688l2.1094-2.0938c0.65625 0.3125 1.3281 0.60938 2.0312 0.84375v2.9688c0 1.5156 1.2344 2.7344 2.7344 2.7344h5.4688c1.5 0 2.7344-1.2188 2.7344-2.7344v-2.9688c0.70312-0.23438 1.375-0.51562 2.0469-0.84375l2.0938 2.0938c0.5 0.51562 1.2031 0.79688 1.9531 0.79688 0.73438 0 1.4375-0.28125 1.9375-0.79688l3.8594-3.8594c0.51562-0.51562 0.8125-1.2031 0.8125-1.9375s-0.29688-1.4219-0.8125-1.9375l-2.1094-2.1094c0.32812-0.65625 0.60938-1.3281 0.84375-2.0469h2.9844c1.5 0 2.7344-1.2188 2.7344-2.7344v-5.4531c0-1.5156-1.2344-2.7344-2.7344-2.7344h-2.9844c-0.23438-0.70312-0.51562-1.375-0.84375-2.0469l2.1094-2.1094c0.51562-0.51562 0.8125-1.1875 0.8125-1.9375 0-0.73438-0.29688-1.4219-0.8125-1.9375l-3.8594-3.8594c-0.53125-0.53125-1.2031-0.8125-1.9375-0.8125-0.75 0-1.4219 0.28125-1.9531 0.8125l-2.0938 2.1094c-0.67188-0.32812-1.3438-0.60938-2.0469-0.84375v-2.9688c0-1.5156-1.2344-2.7344-2.7344-2.7344h-5.4688c-1.5 0-2.7344 1.2188-2.7344 2.7344v2.9688c-0.70312 0.25-1.375 0.53125-2.0312 0.84375l-2.1094-2.1094c-0.51562-0.51562-1.2031-0.79688-1.9219-0.79688-0.75 0-1.4219 0.28125-1.9531 0.8125l-3.8594 3.8594c-0.51562 0.51562-0.8125 1.2031-0.8125 1.9375 0 0.75 0.29688 1.4219 0.8125 1.9375l2.1094 2.1094c-0.32812 0.65625-0.60938 1.3438-0.82812 2.0469h-2.9844c-1.5 0-2.7344 1.2188-2.7344 2.7344v5.4531c-0.015625 1.4844 1.2188 2.7188 2.7188 2.7188zm20.844-14.422c3.6094 0.6875 6.4844 3.5625 7.1719 7.1719 0.57812 3.0625-0.32812 6.0469-2.5 8.2188-1.7188 1.7188-4.0156 2.6562-6.4219 2.6562-0.59375 0-1.2031-0.046875-1.7969-0.17188-3.6094-0.67188-6.4844-3.5625-7.1719-7.1562-0.57812-3.0625 0.34375-6.0625 2.5-8.2188 1.7188-1.7188 4.0156-2.6719 6.4219-2.6719 0.59375 0 1.2031 0.0625 1.7969 0.17188z" />
    </g>
</svg>