<svg xmlns="http://www.w3.org/2000/svg" viewBox="0 0 100 100" version="1.1" x="0px" y="0px">
    <title>Business model canvas</title>
    <desc>Created with Sketch.</desc>
    <g stroke="none" stroke-width="1" fill="none" fill-rule="evenodd">
        <path
            d="M14.5,65.5 L14.5,75.5 L48.5,75.5 L48.5,65.5 L14.5,65.5 Z M88.5,65.5 L88.5,78.5 L51.5,78.5 L11.5,78.5 L11.5,62.5 L11.5,21.5 L28.5,21.5 L39.5,21.5 L60.5,21.5 L71.5,21.5 L88.5,21.5 L88.5,65.5 Z M57.5,62.5 L57.5,45.5 L57.5,24.5 L42.5,24.5 L42.5,45.5 L42.5,62.5 L48.5,62.5 L57.5,62.5 Z M85.5,62.5 L85.5,24.5 L74.5,24.5 L74.5,45.5 L74.5,62.5 L85.5,62.5 Z M60.5,62.5 L71.5,62.5 L71.5,45.5 L60.5,45.5 L60.5,62.5 Z M25.5,24.5 L14.5,24.5 L14.5,62.5 L25.5,62.5 L25.5,45.5 L25.5,24.5 Z M28.5,45.5 L28.5,62.5 L39.5,62.5 L39.5,45.5 L28.5,45.5 Z M60.5,24.5 L60.5,42.5 L71.5,42.5 L71.5,24.5 L60.5,24.5 Z M28.5,24.5 L28.5,42.5 L39.5,42.5 L39.5,24.5 L28.5,24.5 Z M51.5,65.5 L51.5,75.5 L85.5,75.5 L85.5,65.5 L51.5,65.5 Z M66.5,26.5 L69.5,26.5 L69.5,29.5 L66.5,29.5 L66.5,26.5 Z M80.5,26.5 L83.5,26.5 L83.5,29.5 L80.5,29.5 L80.5,26.5 Z M20.5,26.5 L23.5,26.5 L23.5,29.5 L20.5,29.5 L20.5,26.5 Z M34.5,26.5 L37.5,26.5 L37.5,29.5 L34.5,29.5 L34.5,26.5 Z M66.5,47.5 L69.5,47.5 L69.5,50.5 L66.5,50.5 L66.5,47.5 Z M34.5,47.5 L37.5,47.5 L37.5,50.5 L34.5,50.5 L34.5,47.5 Z M80.5,67.5 L83.5,67.5 L83.5,70.5 L80.5,70.5 L80.5,67.5 Z M52.5,26.5 L55.5,26.5 L55.5,29.5 L52.5,29.5 L52.5,26.5 Z M43.5,67.5 L46.5,67.5 L46.5,70.5 L43.5,70.5 L43.5,67.5 Z"
            fill="#000000" fill-rule="nonzero" />
    </g>
</svg>