<svg xmlns="http://www.w3.org/2000/svg" version="1.1" x="0px" y="0px" viewBox="0 0 100 100"
    enable-background="new 0 0 100 100" xml:space="preserve"><g display="none"><rect x="-1265.9" y="-32.1" display="inline" fill="#000000" width="1789.9" height="168.4"/></g>
    <g><path d="M315.6,8.1c6.1,0,11,4.9,11,11s-4.9,11-11,11s-11-4.9-11-11S309.5,8.1,315.6,8.1 M315.6,4.1c-8.3,0-15,6.7-15,15   s6.7,15,15,15c8.3,0,15-6.7,15-15S323.9,4.1,315.6,4.1L315.6,4.1z"/>
        <path
            d="M347.4,59.9c6.1,0,11,4.9,11,11s-4.9,11-11,11s-11-4.9-11-11S341.3,59.9,347.4,59.9 M347.4,55.9c-8.3,0-15,6.7-15,15   s6.7,15,15,15s15-6.7,15-15S355.7,55.9,347.4,55.9L347.4,55.9z" />
        <path
            d="M283.7,59.9c6.1,0,11,4.9,11,11s-4.9,11-11,11s-11-4.9-11-11S277.6,59.9,283.7,59.9 M283.7,55.9c-8.3,0-15,6.7-15,15   s6.7,15,15,15c8.3,0,15-6.7,15-15S291.9,55.9,283.7,55.9L283.7,55.9z" />
        <g><path d="M-1213.1,8.5c13.3,0,24.1,10.8,24.1,24.1s-10.8,24.1-24.1,24.1s-24.1-10.8-24.1-24.1S-1226.4,8.5-1213.1,8.5 M-1213.1,4.5    c-15.5,0-28.1,12.6-28.1,28.1s12.6,28.1,28.1,28.1s28.1-12.6,28.1-28.1S-1197.5,4.5-1213.1,4.5L-1213.1,4.5z"/>
            <path
                d="M-1173.3,8.5c13.3,0,24.1,10.8,24.1,24.1s-10.8,24.1-24.1,24.1c-13.3,0-24.1-10.8-24.1-24.1S-1186.6,8.5-1173.3,8.5     M-1173.3,4.5c-15.5,0-28.1,12.6-28.1,28.1s12.6,28.1,28.1,28.1c15.5,0,28.1-12.6,28.1-28.1S-1157.8,4.5-1173.3,4.5L-1173.3,4.5z" />
            <path
                d="M-1194.2,43.3c13.3,0,24.1,10.8,24.1,24.1c0,13.3-10.8,24.1-24.1,24.1c-13.3,0-24.1-10.8-24.1-24.1    C-1218.3,54.1-1207.5,43.3-1194.2,43.3 M-1194.2,39.3c-15.5,0-28.1,12.6-28.1,28.1s12.6,28.1,28.1,28.1    c15.5,0,28.1-12.6,28.1-28.1S-1178.7,39.3-1194.2,39.3L-1194.2,39.3z" /></g>
        <path fill="none" stroke="#000000" stroke-width="4" stroke-miterlimit="10"
            d="M-984.5,33.2c6.3-17.3,22.9-29.7,42.4-29.7   c24.9,0,45.1,20.2,45.1,45.1s-20.2,45.1-45.1,45.1c-20.2,0-37.4-13.3-43.1-31.7" />
        <path fill="none" stroke="#000000" stroke-width="4" stroke-linecap="round"
            stroke-miterlimit="10"
            d="M-979.9,56.6   c-1.2,3.4-3.2,5.5-5.3,5.5c-3.8,0-6.8-6.5-6.8-14.5s3-14.5,6.8-14.5c2.2,0,4.1,2.2,5.3,5.5" />
        <circle cx="-913.1" cy="39" r="4.5" />
        <path fill="none" stroke="#000000" stroke-width="4" stroke-linecap="round"
            stroke-miterlimit="10" d="M-904.3,72.7   c-14.9,0-27.1-7.5-27.8-16.9" />
        <path fill="none" stroke="#000000" stroke-width="4" stroke-miterlimit="10"
            d="M-1053,55.5h1.6c16.2,0,29.4,11.2,29.4,27.4v1   c0,6.6-7.4,14-14,14h-61.9c-6.6,0-14-7.4-14-14v-1c0-16.2,13.2-27.4,29.4-27.4" />
        <path fill="none" stroke="#000000" stroke-width="4" stroke-miterlimit="10"
            d="M-1082.6,55.5h1.9" />
        <path
            d="M-1067,5.8c14.2,0,25.8,11.6,25.8,25.8s-11.6,25.8-25.8,25.8s-25.8-11.6-25.8-25.8S-1081.2,5.8-1067,5.8 M-1067,1.8   c-16.5,0-29.8,13.4-29.8,29.8s13.4,29.8,29.8,29.8s29.8-13.4,29.8-29.8S-1050.5,1.8-1067,1.8L-1067,1.8z" />
        <g><path d="M-856.7,10.1c1.7,0,3.1,1.4,3.1,3.1s-1.4,3.1-3.1,3.1c-1.7,0-3.1-1.4-3.1-3.1S-858.4,10.1-856.7,10.1 M-856.7,6.1    c-3.9,0-7.1,3.2-7.1,7.1s3.2,7.1,7.1,7.1s7.1-3.2,7.1-7.1S-852.8,6.1-856.7,6.1L-856.7,6.1z"/>
            <path
                d="M-782.9,10.1c1.7,0,3.1,1.4,3.1,3.1s-1.4,3.1-3.1,3.1c-1.7,0-3.1-1.4-3.1-3.1S-784.6,10.1-782.9,10.1 M-782.9,6.1    c-3.9,0-7.1,3.2-7.1,7.1s3.2,7.1,7.1,7.1s7.1-3.2,7.1-7.1S-779,6.1-782.9,6.1L-782.9,6.1z" />
            <path
                d="M-856.7,83c1.7,0,3.1,1.4,3.1,3.1s-1.4,3.1-3.1,3.1c-1.7,0-3.1-1.4-3.1-3.1S-858.4,83-856.7,83 M-856.7,79    c-3.9,0-7.1,3.2-7.1,7.1c0,3.9,3.2,7.1,7.1,7.1s7.1-3.2,7.1-7.1C-849.6,82.2-852.8,79-856.7,79L-856.7,79z" />
            <path
                d="M-782.9,83c1.7,0,3.1,1.4,3.1,3.1s-1.4,3.1-3.1,3.1c-1.7,0-3.1-1.4-3.1-3.1S-784.6,83-782.9,83 M-782.9,79    c-3.9,0-7.1,3.2-7.1,7.1c0,3.9,3.2,7.1,7.1,7.1s7.1-3.2,7.1-7.1C-775.8,82.2-779,79-782.9,79L-782.9,79z" />
            <g><line fill="none" stroke="#000000" stroke-width="4" stroke-linecap="round" stroke-miterlimit="10" x1="-850" y1="13" x2="-845" y2="13"/>
                <line fill="none" stroke="#000000" stroke-width="4" stroke-linecap="round"
                    stroke-miterlimit="10" stroke-dasharray="12,9" x1="-835" y1="13" x2="-798"
                    y2="13" />
                <line fill="none" stroke="#000000" stroke-width="4" stroke-linecap="round"
                    stroke-miterlimit="10" x1="-794" y1="13" x2="-789" y2="13" /></g>
            <g><line fill="none" stroke="#000000" stroke-width="4" stroke-linecap="round" stroke-miterlimit="10" x1="-852.2" y1="81.8" x2="-848.7" y2="78.2"/>
                <line fill="none" stroke="#000000" stroke-width="4" stroke-linecap="round"
                    stroke-miterlimit="10" stroke-dasharray="9.7363,7.7891" x1="-843.2" y1="72.7"
                    x2="-796.4" y2="25.9" />
                <line fill="none" stroke="#000000" stroke-width="4" stroke-linecap="round"
                    stroke-miterlimit="10" x1="-793.6" y1="23.2" x2="-790.1" y2="19.6" /></g>
            <g><line fill="none" stroke="#000000" stroke-width="4" stroke-linecap="round" stroke-miterlimit="10" x1="-850" y1="86" x2="-845" y2="86"/>
                <line fill="none" stroke="#000000" stroke-width="4" stroke-linecap="round"
                    stroke-miterlimit="10" stroke-dasharray="12,9" x1="-835" y1="86" x2="-798"
                    y2="86" />
                <line fill="none" stroke="#000000" stroke-width="4" stroke-linecap="round"
                    stroke-miterlimit="10" x1="-794" y1="86" x2="-789" y2="86" /></g></g>
        <g><path d="M-654.6,26.7v13.1h-87V26.7H-654.6 M-654.6,22.7h-87c-2.2,0-4,1.8-4,4v13.1c0,2.2,1.8,4,4,4h87c2.2,0,4-1.8,4-4V26.7    C-650.6,24.5-652.4,22.7-654.6,22.7L-654.6,22.7z"/>
            <path
                d="M-660.4,43.9v49.4h-75.4V43.9H-660.4 M-656.4,39.9h-83.4v53.4c0,2.2,1.8,4,4,4h75.4c2.2,0,4-1.8,4-4V39.9L-656.4,39.9z" />
            <line fill="none" stroke="#000000" stroke-width="4" stroke-linecap="round"
                stroke-linejoin="round" stroke-miterlimit="10" x1="-699" y1="95" x2="-699"
                y2="25" />
            <g><path fill="none" stroke="#000000" stroke-width="4" stroke-linecap="round" stroke-linejoin="round" stroke-miterlimit="10" d="     M-679,4.3c5.6,0,10.2,4.6,10.2,10.2s-4.6,10.2-10.2,10.2"/>
                <path fill="none" stroke="#000000" stroke-width="4" stroke-linecap="round"
                    stroke-linejoin="round" stroke-miterlimit="10"
                    d="     M-698.5,22.6c0,0,7.3-18.3,19.6-18.3" /></g>
            <g><path fill="none" stroke="#000000" stroke-width="4" stroke-linecap="round" stroke-linejoin="round" stroke-miterlimit="10" d="     M-718,4.3c-5.6,0-10.2,4.6-10.2,10.2s4.6,10.2,10.2,10.2"/>
                <path fill="none" stroke="#000000" stroke-width="4" stroke-linecap="round"
                    stroke-linejoin="round" stroke-miterlimit="10"
                    d="     M-698.5,22.6c0,0-7.3-18.3-19.6-18.3" /></g></g>
        <path
            d="M-540,9c3.3,0,6,2.7,6,6v70c0,3.3-2.7,6-6,6h-70c-3.3,0-6-2.7-6-6V15c0-3.3,2.7-6,6-6H-540 M-540,5h-70   c-5.5,0-10,4.5-10,10v70c0,5.5,4.5,10,10,10h70c5.5,0,10-4.5,10-10V15C-530,9.5-534.5,5-540,5L-540,5z" />
        <line fill="none" stroke="#000000" stroke-width="4" stroke-linejoin="round"
            stroke-miterlimit="10" x1="-576" y1="6" x2="-576" y2="93" />
        <line fill="none" stroke="#000000" stroke-width="4" stroke-linejoin="round"
            stroke-miterlimit="10" x1="-531" y1="50" x2="-575" y2="50" />
        <path
            d="M-449.5,30.9l25.8,19.1l-25.8,19.1L-475.3,50L-449.5,30.9 M-449.5,26.9c-0.8,0-1.7,0.3-2.4,0.8l-25.8,19.1   c-1,0.8-1.6,1.9-1.6,3.2s0.6,2.5,1.6,3.2l25.8,19.1c0.7,0.5,1.5,0.8,2.4,0.8s1.7-0.3,2.4-0.8l25.8-19.1c1-0.8,1.6-1.9,1.6-3.2   s-0.6-2.5-1.6-3.2l-25.8-19.1C-447.8,27.2-448.6,26.9-449.5,26.9L-449.5,26.9z" />
        <path
            d="M-449.5,7c1.9,0,3.5,1.6,3.5,3.5s-1.6,3.5-3.5,3.5c-1.9,0-3.5-1.6-3.5-3.5S-451.4,7-449.5,7 M-449.5,3   c-4.2,0-7.5,3.4-7.5,7.5s3.4,7.5,7.5,7.5c4.2,0,7.5-3.4,7.5-7.5S-445.3,3-449.5,3L-449.5,3z" />
        <path
            d="M-488.5,86c1.9,0,3.5,1.6,3.5,3.5c0,1.9-1.6,3.5-3.5,3.5c-1.9,0-3.5-1.6-3.5-3.5C-492,87.5-490.4,86-488.5,86 M-488.5,82   c-4.2,0-7.5,3.4-7.5,7.5c0,4.2,3.4,7.5,7.5,7.5c4.2,0,7.5-3.4,7.5-7.5C-481,85.3-484.3,82-488.5,82L-488.5,82z" />
        <path
            d="M-409.5,86c1.9,0,3.5,1.6,3.5,3.5c0,1.9-1.6,3.5-3.5,3.5c-1.9,0-3.5-1.6-3.5-3.5C-413,87.5-411.5,86-409.5,86 M-409.5,82   c-4.2,0-7.5,3.4-7.5,7.5c0,4.2,3.4,7.5,7.5,7.5c4.2,0,7.5-3.4,7.5-7.5C-402,85.3-405.4,82-409.5,82L-409.5,82z" />
        <line fill="none" stroke="#000000" stroke-width="4" stroke-linecap="round"
            stroke-miterlimit="10" x1="-450" y1="17" x2="-450" y2="29" />
        <g><line fill="none" stroke="#000000" stroke-width="4" stroke-linecap="round" stroke-linejoin="round" x1="-489" y1="83" x2="-489" y2="79"/>
            <line fill="none" stroke="#000000" stroke-width="4" stroke-linecap="round"
                stroke-linejoin="round" stroke-dasharray="8,8" x1="-489" y1="71" x2="-489"
                y2="58" />
            <polyline fill="none" stroke="#000000" stroke-width="4" stroke-linecap="round"
                stroke-linejoin="round" points="-489,54     -489,50 -485,50   " />
            <line fill="none" stroke="#000000" stroke-width="4" stroke-linecap="round"
                stroke-linejoin="round" x1="-480.4" y1="49.9" x2="-476.4" y2="49.9" /></g>
        <g><line fill="none" stroke="#000000" stroke-width="4" stroke-linecap="round" stroke-linejoin="round" x1="-410" y1="83" x2="-410" y2="79"/>
            <line fill="none" stroke="#000000" stroke-width="4" stroke-linecap="round"
                stroke-linejoin="round" stroke-dasharray="8,8" x1="-410" y1="71" x2="-410"
                y2="58" />
            <polyline fill="none" stroke="#000000" stroke-width="4" stroke-linecap="round"
                stroke-linejoin="round" points="-410,54     -410,50 -414,50   " />
            <line fill="none" stroke="#000000" stroke-width="4" stroke-linecap="round"
                stroke-linejoin="round" x1="-418.2" y1="49.9" x2="-422.2" y2="49.9" /></g>
        <g><path d="M-297.3,9.1c3.3,0,6,2.7,6,6v50.7c0,3.3-2.7,6-6,6h-69.3c-3.3,0-6-2.7-6-6V15.1c0-3.3,2.7-6,6-6H-297.3 M-297.3,5.1h-69.3    c-5.5,0-10,4.5-10,10v50.7c0,5.5,4.5,10,10,10h69.3c5.5,0,10-4.5,10-10V15.1C-287.3,9.6-291.8,5.1-297.3,5.1L-297.3,5.1z"/>
            <line fill="none" stroke="#000000" stroke-width="4" stroke-linecap="round"
                stroke-linejoin="round" stroke-miterlimit="10" x1="-288" y1="85" x2="-375"
                y2="85" />
            <line fill="none" stroke="#000000" stroke-width="4" stroke-linecap="round"
                stroke-linejoin="round" stroke-miterlimit="10" x1="-288" y1="95" x2="-375"
                y2="95" />
            <line fill="none" stroke="#000000" stroke-width="4" stroke-miterlimit="10" x1="-373"
                y1="9.1" x2="-290.7" y2="71.2" />
            <line fill="none" stroke="#000000" stroke-width="4" stroke-miterlimit="10" x1="-291.6"
                y1="10" x2="-373" y2="71.3" /></g>
        <path
            d="M-187.4,7c2.2,0,4,1.8,4,4v78c0,2.2-1.8,4-4,4h-33.1c-2.2,0-4-1.8-4-4V11c0-2.2,1.8-4,4-4H-187.4 M-187.4,3h-33.1   c-4.4,0-8,3.6-8,8v78c0,4.4,3.6,8,8,8h33.1c4.4,0,8-3.6,8-8V11C-179.4,6.6-183,3-187.4,3L-187.4,3z" />
        <path
            d="M-187.4,7.3c2.2,0,4,1.8,4,4v66h-41.1v-66c0-2.2,1.8-4,4-4H-187.4 M-187.4,3.3h-33.1c-4.4,0-8,3.6-8,8v70h49.1v-70   C-179.4,6.9-183,3.3-187.4,3.3L-187.4,3.3z" />
        <circle cx="-204.1" cy="87" r="4.1" />
        <polyline fill="none" stroke="#000000" stroke-width="4" stroke-miterlimit="10"
            points="-60,80 -61.7,80 -36,80  " />
        <path fill="none" stroke="#000000" stroke-width="4" stroke-linejoin="round"
            stroke-miterlimit="10"
            d="M-85.8,20.8   c-16.2,0-28.5,13.1-28.5,29.2c0,10.1,5,19,12.7,24.2c0.3,0.2,0.6,0.4,0.9,0.6" />
        <polyline fill="none" stroke="#000000" stroke-width="4" stroke-linecap="round"
            stroke-linejoin="round" stroke-miterlimit="10"
            points="   -39.4,72.9 -33,79.2 -39.4,85.6  " />
        <polyline fill="none" stroke="#000000" stroke-width="4" stroke-linecap="round"
            stroke-linejoin="round" stroke-miterlimit="10"
            points="   -74.3,27.1 -80.7,20.8 -74.3,14.4  " />
        <path fill="none" stroke="#000000" stroke-width="4" stroke-linecap="round"
            stroke-linejoin="round" stroke-miterlimit="10"
            d="   M-79.7,21.2c16.2,0,29.4,13.2,29.4,29.4S-63.4,80-79.5,80H-129" />
        <path
            d="M46.4,14.7c21.5,0,39,17.5,39,39s-17.5,39-39,39s-39-17.5-39-39S24.9,14.7,46.4,14.7 M46.4,10.7c-23.7,0-43,19.3-43,43   s19.3,43,43,43c23.7,0,43-19.3,43-43S70.1,10.7,46.4,10.7L46.4,10.7z" />
        <path
            d="M46.4,27.7c14.3,0,26,11.7,26,26s-11.7,26-26,26s-26-11.7-26-26S32.1,27.7,46.4,27.7 M46.4,23.7c-16.6,0-30,13.4-30,30   s13.4,30,30,30c16.6,0,30-13.4,30-30S63,23.7,46.4,23.7L46.4,23.7z" />
        <path
            d="M46.4,41.7c6.6,0,12,5.4,12,12s-5.4,12-12,12s-12-5.4-12-12S39.8,41.7,46.4,41.7 M46.4,37.7c-8.8,0-16,7.2-16,16   s7.2,16,16,16s16-7.2,16-16S55.2,37.7,46.4,37.7L46.4,37.7z" />
        <line fill="none" stroke="#000000" stroke-width="4" stroke-linecap="round"
            stroke-linejoin="round" stroke-miterlimit="10" x1="46.4" y1="53.5" x2="80.2"
            y2="19.7" />
        <polygon fill="none" stroke="#000000" stroke-width="4" stroke-linejoin="round"
            stroke-miterlimit="10"
            points="89.7,19.4    80.5,19.4 80.5,10.2 87.4,3.3 87.4,12.5 96.6,12.5  " />
        <circle cx="46.3" cy="53.7" r="4" />
        <path stroke="#000000" stroke-miterlimit="10"
            d="M158.8,23.2l7.9,13.1l-8.2,13.1h-16.1l-8-13l8-13H159 M158.4,20.5h-16.1   c-1,0-2,0.2-2.6,1.1l-8,13c-0.6,1-0.6,2.1,0,3l8,13.3c0.5,0.9,1.5,1.5,2.6,1.5h16.1c1,0,2-0.7,2.6-1.6l8-13.2c0.6-1,0.6-2.2,0-3.1   l-8-12.9C160.4,20.8,159.5,20.5,158.4,20.5L158.4,20.5z" />
        <path stroke="#000000" stroke-miterlimit="10"
            d="M185.3,8.2l7.9,13.1l-8.1,13.1h-16.1l-8-13l8-13H185 M185.1,5.5h-16.1   c-1,0-2,0.3-2.6,1.2l-8,13.1c-0.6,1-0.6,2.1,0,3.1l8,13.2c0.5,0.9,1.5,1.5,2.6,1.5h16.1c1,0,2-0.6,2.6-1.5l8-13.2   c0.6-1,0.6-2.2,0-3.1l-8-12.9C187.1,5.8,186.2,5.5,185.1,5.5L185.1,5.5z" />
        <path stroke="#000000" stroke-miterlimit="10"
            d="M185.6,37.2l8,13.1l-8,13.1h-16.1l-8-13l8-13H186 M185.6,34.5h-16.1   c-1,0-2,0.2-2.6,1.1l-8,13c-0.6,1-0.6,2.1,0,3l8,13.3c0.5,0.9,1.5,1.6,2.6,1.6h16.1c1,0,2-0.7,2.6-1.6l8-13.3c0.6-1,0.6-2.2,0-3.2   l-8-12.9C187.6,34.7,186.6,34.5,185.6,34.5L185.6,34.5z" />
        <path stroke="#000000" stroke-miterlimit="10"
            d="M212,22.5l8,13.1l-8,12.9h-16.1l-8-13l8-13H212 M212,19.5h-16.1   c-1,0-2,0.5-2.6,1.4l-8,13.2c-0.6,1-0.6,2.1,0,3.1l8,13c0.5,0.9,1.5,1.3,2.6,1.3H212c1,0,2-0.4,2.6-1.3l8-13.1c0.6-1,0.6-2.1,0-3.1   l-8-13.1C214,20,213,19.5,212,19.5L212,19.5z" />
        <path stroke="#000000" stroke-miterlimit="10"
            d="M212.9,51.2l8,13.1l-8.1,13.1h-16.1l-8-13l8-13H213 M212.7,48.5h-16.1   c-1,0-2,0.2-2.6,1.1l-8,13c-0.6,1-0.6,2.1,0,3l8,13.3c0.5,0.9,1.5,1.6,2.6,1.6h16.1c1,0,2-0.7,2.6-1.6l8-13.3c0.6-1,0.6-2.2,0-3.2   l-8-12.8C214.7,48.7,213.8,48.5,212.7,48.5L212.7,48.5z" />
        <path stroke="#000000" stroke-miterlimit="10"
            d="M186.4,66.2l7.9,13.1l-8.1,13.1h-16.1l-8-13l8-13H187 M186.2,63.5h-16.1   c-1,0-2,0.1-2.6,1l-8,13c-0.6,1-0.6,2.1,0,3l8,13.4c0.5,0.9,1.5,1.6,2.6,1.6h16.1c1,0,2-0.8,2.6-1.7l8-13.3c0.6-1,0.6-2.2,0-3.2   l-8-12.8C188.2,63.6,187.3,63.5,186.2,63.5L186.2,63.5z" />
        <path stroke="#000000" stroke-miterlimit="10"
            d="M159.1,52.2l8,13.1l-8,13.1H143l-8-13l8-13h16 M159.1,49.5H143   c-1,0-2,0.2-2.6,1.1l-8,13c-0.6,1-0.6,2.1,0,3l8,13.3c0.5,0.9,1.5,1.6,2.6,1.6h16.1c1,0,2-0.7,2.6-1.6l8-13.3c0.6-1,0.6-2.2,0-3.2   l-8-12.8C161.1,49.7,160.1,49.5,159.1,49.5L159.1,49.5z" />
        <path fill="none" stroke="#000000" stroke-width="4" stroke-miterlimit="10"
            d="M280.1,58.5c-0.2-1.5-0.3-3.1-0.3-4.7   c0-15.3,9.5-28.3,23-33.5" />
        <path fill="none" stroke="#000000" stroke-width="4" stroke-miterlimit="10"
            d="M280.1,58.5" />
        <path fill="none" stroke="#000000" stroke-width="4" stroke-miterlimit="10"
            d="M339.2,80.7c-6.3,5.5-14.6,8.9-23.6,8.9   c-9,0-17.3-3.4-23.6-8.9" />
        <path fill="none" stroke="#000000" stroke-width="4" stroke-miterlimit="10"
            d="M339.2,80.7" />
        <path fill="none" stroke="#000000" stroke-width="4" stroke-miterlimit="10"
            d="M328.4,20.3c13.4,5.2,23,18.2,23,33.5   c0,1.6-0.1,3.1-0.3,4.6" />
        <g><path d="M483,14.8c3.3,0,6,2.7,6,6v58.4c0,3.3-2.7,6-6,6h-78c-3.3,0-6-2.7-6-6V20.8c0-3.3,2.7-6,6-6H483 M483,10.8h-78    c-5.5,0-10,4.5-10,10v58.4c0,5.5,4.5,10,10,10h78c5.5,0,10-4.5,10-10V20.8C493,15.3,488.5,10.8,483,10.8L483,10.8z"/>
            <line fill="none" stroke="#000000" stroke-width="4" stroke-linejoin="round"
                stroke-miterlimit="10" x1="460" y1="50" x2="428" y2="50" />
            <path
                d="M483,14.8c3.3,0,6,2.7,6,6v58.4c0,3.3-2.7,6-6,6h-20.8V14.8H483 M483,10.8h-24.8v78.4H483c5.5,0,10-4.5,10-10V20.8    C493,15.3,488.5,10.8,483,10.8L483,10.8z" />
            <path
                d="M425.8,14.8v70.4H405c-3.3,0-6-2.7-6-6V20.8c0-3.3,2.7-6,6-6H425.8 M429.8,10.8H405c-5.5,0-10,4.5-10,10v58.4    c0,5.5,4.5,10,10,10h24.8V10.8L429.8,10.8z" /></g></g>
</svg>