<svg xmlns="http://www.w3.org/2000/svg" data-name="Layer 1" viewBox="0 0 100 100" x="0px" y="0px">
    <path
        d="M17.959,37.974a2.087,2.087,0,0,0-2.08,2.086v3.086a2.089,2.089,0,0,0,2.086,2.086H33.184a2.089,2.089,0,0,0,2.086-2.086V40.06a2.089,2.089,0,0,0-2.086-2.087h-.043A46.52,46.52,0,0,1,36.108,31a10.736,10.736,0,0,0,1.347-3.373l1.213-5.985a3,3,0,0,0-.569-2.6,15.01,15.01,0,0,0-3.31-2.952v-1.27A3.219,3.219,0,0,0,31.573,11.6a3.183,3.183,0,0,0-1.1.2,3.212,3.212,0,0,0-6.106-.884,3.206,3.206,0,0,0-4.024,1.118,3.22,3.22,0,0,0-4.831,2.784V30.276c0,1.705.893,3.875,1.756,5.973C17.516,36.851,17.755,37.434,17.959,37.974Zm15.16,5.108H18.029V40.124h15.09ZM36.438,20.4a.88.88,0,0,1,.122.812L35.346,27.2a8.567,8.567,0,0,1-1.115,2.751,48,48,0,0,0-3.344,8.023H20.245c-.263-.779-.618-1.642-.988-2.542-.747-1.816-1.594-3.875-1.594-5.155V22.793a3.182,3.182,0,0,0,2.677-.251,3.2,3.2,0,0,0,4.025,1.119,3.219,3.219,0,0,0,2.926,1.888h0a3.217,3.217,0,0,0,3.181-2.769,3.188,3.188,0,0,0,1.1.2h.043a12.873,12.873,0,0,0-3.683,4.333,1.075,1.075,0,1,0,2,.776A10.993,10.993,0,0,1,33.6,24.254a1.076,1.076,0,0,0,.6-1.357c-.754-2.094-1.269-3.091-1.9-3.68a2.813,2.813,0,0,0-2.482-.611,6.611,6.611,0,0,1-3.276-.392.928.928,0,0,0-.117-.035,1.235,1.235,0,0,1-.9-.837,31.428,31.428,0,0,1,3.9-.552h0c.042,0,.083,0,.123-.007a5.085,5.085,0,0,1,3.669.848l.088.056A13.206,13.206,0,0,1,36.438,20.4Zm-10.212-.025a9.006,9.006,0,0,0,2.131.419v1.537A1.07,1.07,0,0,1,27.292,23.4h0a1.066,1.066,0,0,1-1.065-1.065Zm5.347-6.629a1.067,1.067,0,0,1,1.065,1.066v.139a7.327,7.327,0,0,0-2.113-.33A1.068,1.068,0,0,1,31.573,13.748ZM26.54,11.491a1.063,1.063,0,0,1,1.817.752v2.485c-.631.067-1.338.167-2.131.3V12.242A1.053,1.053,0,0,1,26.54,11.491Zm-4.595,2.334A1.065,1.065,0,0,1,23.01,12.76a1.077,1.077,0,0,1,1.064,1.009v1.686a1.073,1.073,0,0,0-.665.762,3.379,3.379,0,0,0,.665,2.879v1.712l0,.024a1.065,1.065,0,0,1-2.127-.081Zm-4.282.989a1.065,1.065,0,0,1,2.116-.176c0,.023.01.044.015.066v5.215a.915.915,0,0,0-.033.105,1.08,1.08,0,0,1-1.032.8,1.067,1.067,0,0,1-1.066-1.065V14.814ZM19.047,78.27l.986,3.034a1.069,1.069,0,0,0-.252.69v2.251a3.327,3.327,0,0,0,3.161,3.317v.608a2.753,2.753,0,0,0,2.75,2.751h2.875a2.753,2.753,0,0,0,2.75-2.751v-.608a3.327,3.327,0,0,0,3.161-3.317V81.994a1.069,1.069,0,0,0-.252-.69l.986-3.034a8.019,8.019,0,0,1,1.563-2.825,12.568,12.568,0,1,0-19.291,0A8.019,8.019,0,0,1,19.047,78.27Zm10.119,9.9a.607.607,0,0,1-.6.6H25.692a.608.608,0,0,1-.6-.6v-.6h4.074Zm3.161-3.925a1.176,1.176,0,0,1-1.175,1.175H23.107a1.176,1.176,0,0,1-1.175-1.175V83.07h10.4Zm-5.2-13.906a1.394,1.394,0,1,1,1.394-1.394A1.4,1.4,0,0,1,27.13,70.339Zm0-13.368a10.417,10.417,0,0,1,8,17.094,10.206,10.206,0,0,0-1.959,3.541L32.09,80.919H28.205v-8.6a3.546,3.546,0,1,0-2.151,0v8.6H22.169l-1.076-3.313a10.188,10.188,0,0,0-1.959-3.541,10.417,10.417,0,0,1,8-17.094ZM56.7,75.217h.558A15.792,15.792,0,0,0,70.524,88.48v.559a2.347,2.347,0,1,0,4.694,0v-.558A15.817,15.817,0,0,0,88.482,75.217h.558a2.347,2.347,0,0,0,0-4.693h-.557A15.828,15.828,0,0,0,75.218,57.26V56.7a2.347,2.347,0,0,0-4.694,0v.557A15.815,15.815,0,0,0,57.262,70.524H56.7a2.347,2.347,0,1,0,0,4.693Zm2.738,0h.733A12.851,12.851,0,0,0,70.524,85.568V86.3A13.641,13.641,0,0,1,59.44,75.217Zm3.052-4.693h-.126a10.7,10.7,0,0,1,8.158-8.158v.125a2.347,2.347,0,0,0,4.694,0v-.125a10.753,10.753,0,0,1,8.158,8.158H83.25a2.347,2.347,0,1,0,0,4.693h.126a10.723,10.723,0,0,1-8.158,8.158V83.25a2.347,2.347,0,0,0-4.694,0v.125a10.7,10.7,0,0,1-8.158-8.158h.126a2.347,2.347,0,0,0,0-4.693ZM73.067,89.039a.2.2,0,0,1-.2.2h0a.2.2,0,0,1-.2-.2V83.25a.2.2,0,0,1,.392,0ZM75.218,86.3v-.734A12.87,12.87,0,0,0,85.569,75.217H86.3A13.664,13.664,0,0,1,75.218,86.3ZM89.235,72.871h0a.2.2,0,0,1-.195.2H83.25a.2.2,0,0,1,0-.392h5.79A.2.2,0,0,1,89.235,72.871ZM86.3,70.524h-.732A12.9,12.9,0,0,0,75.218,60.173V59.44A13.669,13.669,0,0,1,86.3,70.524ZM72.675,56.7a.2.2,0,0,1,.2-.2h0a.2.2,0,0,1,.2.2v5.789a.2.2,0,0,1-.392,0ZM70.524,59.44v.734a12.907,12.907,0,0,0-10.35,10.35h-.735A13.66,13.66,0,0,1,70.524,59.44ZM56.506,72.871a.2.2,0,0,1,.2-.2h5.79a.2.2,0,0,1,0,.392H56.7a.2.2,0,0,1-.2-.2Zm16.365,3.941a3.942,3.942,0,1,0-3.942-3.941A3.946,3.946,0,0,0,72.871,76.812Zm0-5.732a1.791,1.791,0,1,1-1.791,1.791A1.792,1.792,0,0,1,72.871,71.08ZM57.325,31.106l1.262.206a14.743,14.743,0,0,0,1.227,2.959l-.747,1.039a2.345,2.345,0,0,0,.062,3.071l2.491,2.49a2.345,2.345,0,0,0,3.07.063l1.039-.747a14.763,14.763,0,0,0,2.959,1.226l.207,1.263A2.344,2.344,0,0,0,71.11,44.8h3.522a2.345,2.345,0,0,0,2.215-2.127l.206-1.262a14.806,14.806,0,0,0,2.96-1.226l1.039.747a2.344,2.344,0,0,0,3.07-.063l2.491-2.49a2.346,2.346,0,0,0,.062-3.071l-.747-1.039a14.763,14.763,0,0,0,1.226-2.959l1.262-.206a2.346,2.346,0,0,0,2.128-2.216V25.368a2.346,2.346,0,0,0-2.127-2.215l-1.263-.206a14.748,14.748,0,0,0-1.226-2.96l.747-1.039a2.345,2.345,0,0,0-.062-3.07l-2.491-2.491a2.346,2.346,0,0,0-3.07-.062l-1.04.747a14.763,14.763,0,0,0-2.959-1.226l-.206-1.263a2.345,2.345,0,0,0-2.215-2.126H71.11A2.344,2.344,0,0,0,68.9,11.584l-.207,1.262a14.763,14.763,0,0,0-2.959,1.226l-1.039-.747a2.347,2.347,0,0,0-3.071.062l-2.49,2.491a2.345,2.345,0,0,0-.063,3.07l.748,1.04a14.743,14.743,0,0,0-1.227,2.959l-1.262.206A2.346,2.346,0,0,0,55.2,25.368V28.89A2.346,2.346,0,0,0,57.325,31.106Zm.024-5.695a.607.607,0,0,1,.323-.135l1.949-.319a1.075,1.075,0,0,0,.872-.81,12.639,12.639,0,0,1,1.517-3.66,1.076,1.076,0,0,0-.044-1.19l-1.153-1.6a.6.6,0,0,1-.133-.324l2.43-2.431a.615.615,0,0,1,.324.134l1.605,1.153a1.076,1.076,0,0,0,1.189.043,12.648,12.648,0,0,1,3.66-1.516,1.077,1.077,0,0,0,.81-.872l.319-1.949a.625.625,0,0,1,.135-.324h3.437a.608.608,0,0,1,.135.324l.319,1.949a1.075,1.075,0,0,0,.81.872,12.621,12.621,0,0,1,3.66,1.516,1.076,1.076,0,0,0,1.19-.043l1.6-1.153a.615.615,0,0,1,.324-.134l2.431,2.431a.615.615,0,0,1-.134.324l-1.153,1.6a1.076,1.076,0,0,0-.043,1.19,12.628,12.628,0,0,1,1.517,3.66,1.074,1.074,0,0,0,.872.81l1.948.319a.608.608,0,0,1,.324.135v3.437a.608.608,0,0,1-.324.135l-1.948.319a1.074,1.074,0,0,0-.872.81,12.662,12.662,0,0,1-1.517,3.66,1.076,1.076,0,0,0,.043,1.19l1.154,1.6a.616.616,0,0,1,.133.324l-2.431,2.43a.61.61,0,0,1-.324-.133l-1.6-1.153a1.076,1.076,0,0,0-1.19-.044,12.612,12.612,0,0,1-3.66,1.517,1.075,1.075,0,0,0-.81.872l-.319,1.949a.6.6,0,0,1-.135.323H71.152a.616.616,0,0,1-.135-.323L70.7,40.379a1.075,1.075,0,0,0-.81-.872,12.635,12.635,0,0,1-3.66-1.517,1.076,1.076,0,0,0-1.19.044l-1.6,1.153a.6.6,0,0,1-.324.133l-2.43-2.43a.6.6,0,0,1,.133-.324l1.153-1.6a1.076,1.076,0,0,0,.044-1.19,12.639,12.639,0,0,1-1.517-3.66,1.075,1.075,0,0,0-.872-.81l-1.949-.319a.607.607,0,0,1-.323-.135ZM72.871,35.806a8.677,8.677,0,1,0-8.677-8.677A8.686,8.686,0,0,0,72.871,35.806Zm0-15.2a6.526,6.526,0,1,1-6.526,6.525A6.532,6.532,0,0,1,72.871,20.6ZM48.172,5.012H6.087A1.075,1.075,0,0,0,5.012,6.087V48.172a1.075,1.075,0,0,0,1.075,1.075H48.172a1.075,1.075,0,0,0,1.075-1.075V6.087A1.075,1.075,0,0,0,48.172,5.012ZM47.1,47.1H7.163V7.163H47.1ZM93.913,5.012H51.828a1.075,1.075,0,0,0-1.075,1.075V48.172a1.075,1.075,0,0,0,1.075,1.075H93.913a1.075,1.075,0,0,0,1.075-1.075V6.087A1.075,1.075,0,0,0,93.913,5.012ZM92.837,47.1H52.9V7.163H92.837Zm1.076,3.657H51.828a1.075,1.075,0,0,0-1.075,1.075V93.913a1.075,1.075,0,0,0,1.075,1.075H93.913a1.075,1.075,0,0,0,1.075-1.075V51.828A1.075,1.075,0,0,0,93.913,50.753ZM92.837,92.837H52.9V52.9H92.837ZM48.172,50.753H6.087a1.075,1.075,0,0,0-1.075,1.075V93.913a1.075,1.075,0,0,0,1.075,1.075H48.172a1.075,1.075,0,0,0,1.075-1.075V51.828A1.075,1.075,0,0,0,48.172,50.753ZM47.1,92.837H7.163V52.9H47.1Z" />
</svg>