<svg xmlns="http://www.w3.org/2000/svg" xml:space="preserve" version="1.1"
    style="shape-rendering:geometricPrecision;text-rendering:geometricPrecision;image-rendering:optimizeQuality;"
    viewBox="0 0 333.33 333.33" x="0px" y="0px" fill-rule="evenodd" clip-rule="evenodd"><defs><style type="text/css">
   
    .fil0 {fill:black;fill-rule:nonzero}
   
  </style></defs>
    <g><path class="fil0" d="M210.7 37.09l59.35 0c3.53,0 6.39,2.86 6.39,6.39l0 276.62c0,3.53 -2.86,6.39 -6.39,6.39l-206.78 0c-3.53,0 -6.39,-2.86 -6.39,-6.39l0 -276.62c0,-3.53 2.86,-6.39 6.39,-6.39l59.35 0c3.74,-7.61 11.52,-12.57 20.1,-12.57l0.72 0c1.12,-4.08 3.29,-7.72 6.19,-10.63 4.35,-4.35 10.38,-7.05 17.02,-7.05 6.65,0 12.67,2.7 17.02,7.05 2.91,2.91 5.07,6.56 6.19,10.63l0.72 0c8.61,0 16.35,4.95 20.1,12.57zm-53.42 96.51c2.5,-2.5 6.54,-2.5 9.04,0 2.5,2.5 2.5,6.55 0,9.04l-4.87 4.87 4.87 4.87c2.5,2.5 2.5,6.55 0,9.04 -2.5,2.49 -6.54,2.49 -9.04,0l-4.87 -4.87 -4.87 4.87c-2.5,2.49 -6.54,2.49 -9.04,0 -2.5,-2.5 -2.5,-6.55 0,-9.04l4.87 -4.87 -4.87 -4.87c-2.5,-2.49 -2.5,-6.54 0,-9.04 2.5,-2.5 6.54,-2.5 9.04,0l4.87 4.87 4.87 -4.87zm68.73 55.15c2.5,-2.5 6.54,-2.5 9.04,0 2.5,2.5 2.5,6.54 0,9.04l-4.87 4.87 4.87 4.87c2.5,2.5 2.5,6.54 0,9.04 -2.5,2.5 -6.54,2.5 -9.04,0l-4.87 -4.87 -4.87 4.87c-2.5,2.5 -6.54,2.5 -9.04,0 -2.5,-2.5 -2.5,-6.54 0,-9.04l4.87 -4.87 -4.87 -4.87c-2.5,-2.5 -2.5,-6.54 0,-9.04 2.5,-2.5 6.54,-2.5 9.04,0l4.87 4.87 4.87 -4.87zm-60.44 28.87c2.5,-2.5 6.54,-2.5 9.04,0 2.5,2.5 2.5,6.54 0,9.04l-4.87 4.87 4.87 4.87c2.5,2.5 2.5,6.54 0,9.04 -2.5,2.5 -6.54,2.5 -9.04,0l-4.87 -4.87 -4.87 4.87c-2.5,2.5 -6.55,2.5 -9.04,0 -2.5,-2.5 -2.5,-6.54 0,-9.04l4.87 -4.87 -4.87 -4.87c-2.5,-2.5 -2.5,-6.54 0,-9.04 2.49,-2.5 6.54,-2.5 9.04,0l4.87 4.87 4.87 -4.87zm-37.79 25.33c2.23,0.88 4.23,2.21 5.9,3.88 0.14,0.14 0.27,0.28 0.4,0.43 2.91,3.11 4.69,7.28 4.69,11.85 0,4.8 -1.94,9.15 -5.09,12.29 -3.15,3.15 -7.49,5.09 -12.29,5.09 -4.78,0 -9.12,-1.94 -12.26,-5.09l-0.01 -0.01 -0.01 0.01c-3.15,-3.15 -5.09,-7.49 -5.09,-12.29 0,-4.78 1.95,-9.12 5.09,-12.26l0.02 -0.02c1.66,-1.66 3.65,-2.99 5.87,-3.87l0 -29.28c0,-10.57 4.31,-20.16 11.26,-27.11 6.95,-6.94 16.54,-11.25 27.11,-11.25l19.98 0c7.04,0 13.43,-2.87 18.07,-7.51 4.63,-4.63 7.5,-11.03 7.5,-18.07l0 -40.83 -6.7 6.7c-2.5,2.5 -6.55,2.5 -9.04,0 -2.5,-2.5 -2.5,-6.54 0,-9.04l17.54 -17.54 0.19 -0.19 -0.12 0.12 0.12 -0.12c0.07,-0.07 0.15,-0.13 0.22,-0.2l0.02 -0.02 0 0 0.04 -0.03 0.02 -0.02 0.06 -0.05 0.01 -0 0.06 -0.05 0.02 -0.02 0.02 -0.02 0.02 -0.02 0.01 -0 0.01 -0.01 0.02 -0.02 0.02 -0.02 0.02 -0.02 0.02 -0.02 0.02 -0.02 0 -0 0.02 -0.01 0.02 -0.02 0.02 -0.02 0.02 -0.02 0.02 -0.02 0.02 -0.01 0 -0.01 0.02 -0.01 0.02 -0.01 0.02 -0.02 0.07 -0.05 0 0 0.02 -0.01 0.02 -0.02 0.07 -0.04 0.02 -0.02 0 0 0.02 -0.01 0.02 -0.02 0.02 -0.02 0.02 -0.01 0.02 -0.02 0.02 -0.01 0.09 -0.05 0.05 -0.03 0 0 0.13 -0.07 0 0 0.09 -0.05 0.05 -0.02 0 0 0.13 -0.07 0.01 0 0.14 -0.06 0 -0c0.78,-0.34 1.64,-0.53 2.55,-0.53 0.91,0 1.77,0.19 2.55,0.53l0 0 0.14 0.06 0 0 0.14 0.07 0 0 0.05 0.02 0.09 0.05 0 0 0.14 0.07 0 0 0.05 0.03 0.09 0.05 0.09 0.05 0.04 0.03 0 0 0.04 0.02 0.09 0.06 0.01 0.01 0.03 0.02 0.04 0.03 0.04 0.03 0.02 0.01 0.02 0.02 0.04 0.03 0.04 0.03 0.03 0.02 0.02 0.01 0.04 0.03 0.04 0.03 0.03 0.03 0.01 0 0.04 0.03 0.04 0.03 0.04 0.03 0.08 0.06 0.04 0.04 0.01 0.01 0.03 0.02 0.08 0.07 0.02 0.02 0.09 0.09 0.03 0.02 0.01 0.01 0.04 0.04 0.04 0.04 0.04 0.04 0.04 0.04 0.04 0.04 17.54 17.54c2.5,2.5 2.5,6.54 0,9.04 -2.49,2.5 -6.54,2.5 -9.04,0l-6.7 -6.7 0 40.83c0,10.57 -4.31,20.16 -11.25,27.11 -6.95,6.95 -16.54,11.26 -27.11,11.26l-19.98 0c-7.04,0 -13.43,2.87 -18.07,7.51 -4.63,4.63 -7.51,11.03 -7.51,18.06l0 29.27zm-3.14 12.92c-0.83,-0.83 -1.98,-1.35 -3.25,-1.35 -1.28,0 -2.43,0.51 -3.26,1.33 -0.83,0.83 -1.33,1.98 -1.33,3.26 0,1.27 0.52,2.42 1.35,3.25l-0.01 0.01c0.83,0.82 1.98,1.33 3.26,1.33 1.27,0 2.42,-0.52 3.25,-1.35 0.83,-0.83 1.34,-1.98 1.34,-3.25 0,-1.17 -0.43,-2.24 -1.13,-3.05l-0.21 -0.2zm87.92 -201.94l39.33 0c3.53,0 6.39,2.87 6.39,6.39l0 242.95c0,3.53 -2.86,6.39 -6.39,6.39l-170.47 0c-3.53,0 -6.39,-2.86 -6.39,-6.39l0 -242.95c0,-3.53 2.86,-6.39 6.39,-6.39l39.33 0c-0.26,-1.31 -0.39,-2.67 -0.41,-4.05l-50.69 0 0 263.83 193.99 0 0 -263.83 -50.69 0c-0.02,1.38 -0.15,2.74 -0.41,4.05zm-77.47 1.52c0.44,0.38 0.84,0.81 1.17,1.3 1.71,1.56 3.98,2.5 6.46,2.5l47.87 0c2.63,0 5.03,-1.07 6.77,-2.81 1.74,-1.74 2.81,-4.13 2.81,-6.77l0 -2.77c0,-5.28 -4.3,-9.59 -9.59,-9.59l-6.26 0c-3.53,0 -6.39,-2.87 -6.39,-6.39 0,-3.12 -1.26,-5.94 -3.3,-7.98 -2.04,-2.04 -4.87,-3.31 -7.98,-3.31 -3.12,0 -5.94,1.26 -7.98,3.31 -2.04,2.04 -3.31,4.87 -3.31,7.98 0,3.53 -2.86,6.39 -6.39,6.39l-6.25 0c-5.3,0 -9.59,4.28 -9.59,9.59l0 2.77c0,2.17 0.73,4.17 1.95,5.78zm-6.81 11.27l-40.46 0 0 230.17 157.69 0 0 -230.17 -40.44 0c-3.9,3.32 -8.96,5.32 -14.46,5.32l-47.87 0c-5.49,0 -10.54,-2 -14.44,-5.32z"/></g>
</svg>