<svg xmlns="http://www.w3.org/2000/svg" data-name="Layer 1" viewBox="0 0 100 100" x="0px" y="0px">
    <path
        d="M95,24.33A19.35,19.35,0,0,0,75.67,5h0a19.36,19.36,0,0,0-19,15.56H43.29A19.36,19.36,0,0,0,24.34,5h0a19.33,19.33,0,0,0-3.77,38.29V56.71A19.33,19.33,0,1,0,43.29,79.44H56.71A19.33,19.33,0,1,0,79.44,56.71V43.29A19.36,19.36,0,0,0,95,24.33ZM75.66,13h0A11.33,11.33,0,1,1,64.33,24.33,11.34,11.34,0,0,1,75.67,13ZM13,24.33A11.34,11.34,0,0,1,24.33,13h0A11.33,11.33,0,1,1,13,24.33ZM24.33,87a11.33,11.33,0,0,1,0-22.67h0a11.33,11.33,0,1,1,0,22.67ZM56.81,71.44H43.19A19.37,19.37,0,0,0,28.56,56.81V43.19A19.37,19.37,0,0,0,43.19,28.56H56.81A19.37,19.37,0,0,0,71.44,43.19V56.81A19.37,19.37,0,0,0,56.81,71.44ZM87,75.67A11.33,11.33,0,1,1,75.66,64.33h0A11.34,11.34,0,0,1,87,75.67Z" />
</svg>