<svg xmlns="http://www.w3.org/2000/svg" version="1.1" x="0px" y="0px" viewBox="0 0 89.4516144 89.4516144"
    style="enable-background:new 0 0 89.4516144 100;" xml:space="preserve"><path d="M84.0857697,85.5980377l-2.0189209-3.6251221c2.359314-5.0384521,2.0918579-11.2008667-0.7695923-16.3632202  c-0.0061035-0.0114746-0.0088501-0.0236816-0.0151978-0.0350952l-9.8011475-17.605896  c0.3538818,0.3577881,0.7584839,0.6749878,1.2113037,0.9393921c0.8339844,0.4829102,1.796875,0.737793,2.765625,0.737793  c0.0195313,0,0.0390625,0,0.0585938,0c1.2802734,0,2.4804688-0.4995117,3.3798828-1.4072266  c0.9003906-0.9072266,1.3876953-2.1118164,1.3720703-3.3686523c-0.0039063-5.0415039-0.0097656-14.4838848-0.0078125-15.4916973  l0.0771484-0.777832c0.0224609-0.2163086,0.0585938-0.4287109,0.0927734-0.6386719l0.0292969-0.1835938  c0.7443848-4.0244751,0.0349121-7.9597168-1.9752808-11.2269287l1.7565308-4.4776611  c0.4033203-1.0283203-0.1035156-2.1889648-1.1318359-2.5922852c-1.0332031-0.4042969-2.1894531,0.1044922-2.5927734,1.1313477  l-1.9453735,4.9589844c-0.4767456,0.6826172-0.5002441,1.6155396,0.0195923,2.3242188  c1.8691406,2.5483398,2.5566406,5.7998047,1.9267578,9.206543l-0.0341797,0.2133789  c-0.0478516,0.2880859-0.09375,0.5800781-0.125,0.8808594L76.27034,29.0741138l0.0292969,0.0029297  c-0.0419922,0.8574219-0.0400391,3.8076153-0.03125,15.8183575c0.0029297,0.2553711-0.1132813,0.4277344-0.2119141,0.5273438  c-0.0830078,0.0839844-0.2216797,0.2333984-0.5654297,0.2231445c-0.3115234-0.0063477-0.5615234-0.0649414-0.7880859-0.1958008  c-0.5371094-0.3134766-0.8457031-0.8408203-0.8466797-1.4438477l-0.0126953-8.7963867  c-0.0019531-0.9052734-0.6113281-1.6958008-1.4853516-1.9287109c-0.8740234-0.2324219-1.7958984,0.1499023-2.2480469,0.9345703  l-4.4690552,7.7627563c-1.0717163-0.1233521-2.1523476,0.0765991-3.1159096,0.6137085  c-0.017334,0.0096436-0.0310669,0.0235596-0.0482788,0.0333862l1.3334351-2.3214722  c0.5498085-0.9580078,0.2197304-2.1801758-0.7382813-2.7304688c-0.9541016-0.5488281-2.1796875-0.2202148-2.7304688,0.7382813  l-1.3148804,2.2892456c-0.1896362-0.3127441-0.40802-0.6096802-0.6655884-0.8795776  c-0.3291016-0.3532715-0.7119751-0.6334839-1.1152954-0.8779907l1.0020142-1.7391968  c0.5507813-0.9570313,0.2216797-2.1801758-0.7353516-2.7314453c-0.6333008-0.3641968-1.3803711-0.3364258-1.9754028-0.0028076  c-0.2191162-0.4252319-0.4766235-0.8325195-0.8126831-1.19104c-0.9492188-1.0151367-2.2402344-1.5986309-3.6337891-1.6440411  l-4.3618774-0.1411743l6.4589844-11.218811c0.0012817-0.0021362,0.0032349-0.0036011,0.0044556-0.0057373  c2.4248047-4.2133789,6.5664063-6.8925781,11.0791054-7.1674805c0.0758057-0.0045776,0.1468506-0.0230713,0.2199097-0.0357666  c0.1506348-0.026123,0.2938232-0.0661621,0.4338989-0.1252441c0.064209-0.0270996,0.126709-0.055481,0.1871948-0.0888672  c0.0836182-0.0458984,0.1637573-0.0923462,0.2402954-0.1499634c0.0736694-0.055542,0.1385498-0.1206055,0.2036743-0.1855469  c0.0896606-0.0892944,0.1693726-0.1848145,0.2417603-0.2918701c0.0506592-0.0744629,0.0952759-0.1517334,0.1356201-0.2327271  c0.0252686-0.0510254,0.0635376-0.0914307,0.0847168-0.1453857l1.5625-3.9833989  c0.4033203-1.0283203-0.1035156-2.1889648-1.1318359-2.5922852c-1.0332031-0.4042969-2.1894531,0.1040039-2.5927773,1.1313477  l-1.114563,2.8413701c-5.3406982,0.7431641-10.1343994,4.0370483-13.0038452,9.010498  c-0.0036621,0.0062256-0.0088501,0.0109863-0.0124512,0.0172729L42.197216,31.2472095l-15.0948486-0.4885254  c-0.010376-0.0002441-0.0200195,0.0024414-0.0303345,0.0023804c-5.7977905-0.1898193-11.3372192,2.3253155-14.7445068,6.6134624  l-3.7549438-0.3043213c-1.1000972-0.0893555-2.0659175,0.730957-2.155273,1.8320313  c-0.0888672,1.1010742,0.730957,2.065918,1.8320308,2.1552734l4.8623047,0.394043  c0.0551758,0.0043945,0.1098633,0.0063477,0.1640625,0.0063477c0.1513672,0,0.2975464-0.0217896,0.4401855-0.0541992  c0.0310059-0.0070801,0.0603638-0.0180664,0.0910034-0.0266113c0.1130371-0.0314941,0.2216187-0.0717163,0.3260498-0.1218262  c0.0360718-0.0172119,0.071167-0.0344849,0.1062622-0.053894c0.1112061-0.0617065,0.2156982-0.1326904,0.3129272-0.2139282  c0.0166016-0.013916,0.0348511-0.0244751,0.0510864-0.0390015c0.1143799-0.1019897,0.2145996-0.2182007,0.3033447-0.3443604  c0.0057983-0.0082397,0.013855-0.0137939,0.0195313-0.0221558c2.5532227-3.7519531,7.152832-5.9848633,12.0410156-5.8227539  c0.0080566,0.0001221,0.0155029-0.0019531,0.0235596-0.0018921l23.9710693,0.7758179  c0.4150391,0.0131836,0.6875,0.2133789,0.84375,0.3803711c0.15625,0.1665039,0.3388672,0.4516602,0.3251953,0.8662109  c-0.0221558,0.6569214-0.5702515,1.170166-1.2199097,1.1643677l-0.0222778-0.0007935  c-0.0174561-0.0003662-0.0338135,0.0037842-0.0511475,0.0038452l-11.788208-0.3812866  c-1.1318359-0.0253906-2.027832,0.8305664-2.0634766,1.9345703s0.8305664,2.027832,1.9345703,2.0634766l9.9989624,0.3234863  c-0.4163818,0.1104126-0.8256226,0.2542114-1.2123413,0.4694824c-0.795166,0.4428711-1.4486084,1.0822144-1.9151611,1.8482056  l-6.9476318-0.2236938c-1.1171875-0.012207-2.027832,0.8300781-2.0644531,1.9335938  c-0.0361328,1.1040039,0.8295898,2.0283203,1.9335938,2.0644531l6.1113892,0.1966553  c-0.4429321,0.137146-0.8704834,0.3272705-1.2651978,0.5821533c-0.300293,0.1870117-0.5722656,0.4052734-0.7451172,0.5849609  c-0.3579102,0.3357544-0.6557007,0.7314453-0.9019775,1.1575317l-3.27771-0.1052856  c-1.0864258-0.0170898-2.027832,0.8310547-2.0629883,1.9350586s0.8310547,2.0273438,1.9350586,2.0629883l2.8765259,0.0924072  c0.1144409,0.4489746,0.2686157,0.8893433,0.5004272,1.305542l0.6413574,1.1519775l-12.5202637-0.40979  c-0.9033203-0.0478516-1.715332,0.5507813-1.9785156,1.4160156c-0.2636719,0.8652344,0.0864258,1.7998047,0.8535156,2.2792969  l7.4960938,4.6660156c0.4887695,0.296875,0.777832,0.8427734,0.753418,1.4599609  c-0.0058594,0.2744141-0.0883789,0.546875-0.2407227,0.7919922c-0.140625,0.2275391-0.3383789,0.3144531-0.4799805,0.3466797  c-0.1171875,0.0273438-0.3510742,0.0498047-0.5917969-0.0976563l-11.1748047-6.9453125  c-0.8120117-0.5039063-1.4057617-0.8730469-1.8588867-1.1328125c-0.2700195-0.2109375-0.6376953-0.3857422-1.2207031-0.6621094  c-0.2446289-0.1123047-0.4887695-0.2128906-0.7299805-0.3125l-0.2905273-0.1201172  c-3.0302124-1.1887207-5.338623-3.3408203-6.5809326-6.0812378c-0.1052856-0.9310303-0.8554077-1.6887207-1.8248291-1.767395  l-4.8623042-0.3935547c-1.0922852-0.0917969-2.0649414,0.730957-2.1547852,1.8325195  c-0.0888672,1.1005859,0.7314453,2.0654297,1.8325195,2.1547852l3.5834956,0.2900391  c1.7163086,3.4716187,4.6976929,6.1793213,8.5039063,7.671875l0.2729492,0.1132813  c0.1933594,0.0791016,0.3896484,0.1591797,0.5610352,0.2373047c0.2416992,0.1152344,0.519043,0.2529297,0.6352539,0.3134766  c0.0014648,0.0009766,0.003418,0.0019531,0.0053711,0.0039063c0.597168,0.3642578,9.6875,6.015625,13.1948242,8.1972656  c0.7841797,0.484375,1.6542969,0.7158203,2.5141602,0.7158203c1.6010742,0,3.1660156-0.8017578,4.0664063-2.2568359  c0.5268555-0.8496094,0.8173828-1.8212891,0.8383789-2.7753906c0.0810547-2.0361328-0.9453125-3.9541016-2.659668-4.9931641  l-1.144043-0.7099609l7.4709473,0.2442627l5.1350098,9.2235107l-1.1591797-0.6933594  c-1.7197266-1.0419922-3.887207-1.078125-5.6547852-0.09375c-0.8466797,0.4707031-1.5688477,1.1660156-2.1010742,2.0332031  c-1.3496094,2.2636719-0.6098633,5.2011719,1.6469727,6.5478516l13.3100586,7.9589844  c0.1162109,0.0849609,0.3720703,0.2724609,0.5917969,0.4433594c0.2265625,0.1757813,0.4482422,0.3632813,0.6660156,0.5546875  c2.9695435,2.6112061,6.576355,4.0291748,10.2764931,4.0817871l1.5946045,2.864502  c0.3652344,0.6572266,1.046875,1.0273438,1.7490234,1.0273438c0.3291016,0,0.6630859-0.0810547,0.9707031-0.2529297  c0.9648438-0.5371094,1.3125-1.7548828,0.7744141-2.7197266l-2.2685547-4.0751953  c-0.5058594-0.9112549-1.616272-1.260437-2.5515747-0.8469238c-2.8364258,0.0210571-5.5659828-1.0263062-7.9025307-3.0808105  c-0.2783203-0.2460938-0.5664063-0.4882813-0.8554688-0.7119141c-0.3457031-0.2695313-0.7724609-0.5771484-0.7910156-0.5898438  c-0.0410156-0.0292969-0.0839844-0.0566406-0.1269531-0.0830078L44.712719,74.6029205  c-0.3652344-0.2177734-0.4829102-0.6953125-0.2763672-1.0419922c0.1621094-0.2636719,0.3720703-0.46875,0.625-0.609375  c0.5239258-0.2910156,1.1342773-0.2832031,1.6455078,0.0244141l7.5693359,4.5195313  c0.7763672,0.4638672,1.7695313,0.3447266,2.4160156-0.2841797c0.6484375-0.6298828,0.7939453-1.6171875,0.3535156-2.4072266  L45.3782463,53.8455963c-0.1625977-0.2924805-0.2143555-0.6113281-0.1518555-0.9604492  c0.0424805-0.246582,0.1577148-0.4682617,0.3242188-0.6240234c0.0219727-0.0205078,0.1308594-0.1044922,0.1518555-0.1254883  c0.3847656-0.2495117,0.7426758-0.2211914,0.9907227-0.1474609c0.0952148,0.0268555,0.1948242,0.0678711,0.2910156,0.1196289  c0.0375977,0.0283203,0.0756836,0.0566406,0.0991211,0.0727539c0.1402588,0.0958862,0.2491455,0.2172852,0.3296509,0.3566284  l7.6415405,13.723938c0.3652344,0.6572266,1.046875,1.0273438,1.7490234,1.0273438  c0.3291016,0,0.6630859-0.0810547,0.9707031-0.2529297c0.9648438-0.5371094,1.3125-1.7548828,0.7744141-2.7197266  l-7.6107788-13.6698608c-0.0072632-0.0137329-0.0105591-0.0283813-0.0181274-0.0420532  c-0.0067139-0.012085-0.0170288-0.0213013-0.0238647-0.0333252l-1.7114868-3.0740967  c-0.1416016-0.2543945-0.1894531-0.5664063-0.1367188-0.8276367c0.0742188-0.3466797,0.2949219-0.6445313,0.6044922-0.8168945  c0.28125-0.1572266,0.6044922-0.1953125,0.9111328-0.1088867c0.0996094,0.0283203,0.1982422,0.0703125,0.3193359,0.1430664  c0.1679688,0.097168,0.3076172,0.2431641,0.4140625,0.4335938l1.7322388,3.1118774  c0.000061,0.0001221,0.0001221,0.0003052,0.0001831,0.0004272l7.6318359,13.7070313  c0.3652344,0.6572266,1.046875,1.0273438,1.7490234,1.0273438c0.3291016,0,0.6630859-0.0810547,0.9707031-0.2529297  c0.9648476-0.5371094,1.3125038-1.7548828,0.7744179-2.7197266l-7.5409584-13.5447388  c-0.000061-0.000061,0-0.0001221-0.000061-0.0001831l-0.0908813-0.163208  c-0.1552734-0.2792358-0.1591187-0.552124-0.1356812-0.7318115c0.0048828-0.0317383,0.0078125-0.0639648,0.0107422-0.0957031  c0.0498047-0.2387695,0.1914063-0.5922852,0.5917969-0.8149414c0.1972656-0.1103516,0.4111328-0.1625977,0.6074219-0.1503906  c0.1240234,0.0087891,0.2197266,0.0239258,0.3095703,0.0498047c0.1044922,0.0297852,0.2207031,0.0820313,0.3310547,0.1489258  c0.1621094,0.0991211,0.2998047,0.2436523,0.3974609,0.4189453l1.8705444,3.359436  c0.0010376,0.0018921,0.0014648,0.0039063,0.0025024,0.0057983l5.7587929,10.3422852  c0.5371094,0.9658203,1.7568359,1.3144531,2.7197266,0.7744141c0.9658203-0.5371094,1.3125-1.7548828,0.7744141-2.7197266  l-5.7578125-10.3427734c-0.1582069-0.2836914-0.1962929-0.6098633-0.1084023-0.9189453  c0.0888672-0.309082,0.2929726-0.5664063,0.5761757-0.7246094c0.2900391-0.1606445,0.5976563-0.1967773,0.9101563-0.1088867  c0.1230469,0.0351563,0.1884766,0.0673828,0.2617188,0.109375c0.1376953,0.0742188,0.3320313,0.2158203,0.4726563,0.4677734  l11.6593628,20.9428101c0.0043335,0.0079346,0.0061646,0.0165405,0.0105591,0.0244751  c2.3684692,4.2542114,2.4923706,9.3363037,0.3579102,13.3269653c-0.399353,0.5786743-0.4765625,1.3418579-0.1500854,2.0081177  c0.0112305,0.0240479,0.0192261,0.0491333,0.0314331,0.0727539c0.0043335,0.0080566,0.0062866,0.0167236,0.0107422,0.0247803  l2.5556641,4.5888672c0.3652344,0.6572266,1.046875,1.0273438,1.7490234,1.0273438  c0.3291016,0,0.6630859-0.0810547,0.9707031-0.2529297C84.2771759,87.7806549,84.6238556,86.5628815,84.0857697,85.5980377z   M55.0447502,42.3475494c-0.4251709,0.2368774-0.802124,0.5314331-1.1367188,0.8637695  c-0.3024292-0.3017578-0.6343384-0.5634155-0.9892578-0.7670898c-0.3166504-0.1931152-0.6629639-0.34198-1.0223389-0.463562  l2.3374634,0.0802002c0.0001221,0,0.0001831,0.000061,0.0003052,0.000061c0.000061,0,0.0001221,0,0.0001831,0l0.3562622,0.012207  c0.2208862,0.0075684,0.4188843,0.0898438,0.6015625,0.2053223C55.1437492,42.3034821,55.0926628,42.3209381,55.0447502,42.3475494z   M69.141861,43.9158478l0.7134399-1.2391968l0.0009766,1.3359375c0.0008545,0.4598999,0.0628662,0.9071045,0.1679077,1.3394165  l-0.4140015-0.7437134C69.4732208,44.3623199,69.3133698,44.1336212,69.141861,43.9158478z"/>
</svg>