<?xml version="1.0" encoding="iso-8859-1"?>
<!-- Uploaded to: SVG Repo, www.svgrepo.com, Generator: SVG Repo Mixer Tools -->
<svg fill="#000000" height="800px" width="800px" version="1.1" id="Layer_1" xmlns="http://www.w3.org/2000/svg" xmlns:xlink="http://www.w3.org/1999/xlink" 
	 viewBox="0 0 512 512" xml:space="preserve">
<g>
	<g>
		<path d="M337.352,113.828v-3.366c0-44.858-36.495-81.353-81.352-81.353s-81.352,36.495-81.352,81.353v3.366H0v369.062h512V113.828
			H337.352z M205.065,110.462c0-28.086,22.849-50.936,50.935-50.936s50.935,22.849,50.935,50.936v3.366H205.065V110.462z
			 M481.583,452.473H30.417V313.568h144.23v50.133h162.705v-50.133h144.23V452.473z M306.935,313.568v19.715h-101.87v-19.715
			H306.935z M205.065,283.151v-19.715h101.87v19.715H205.065z M481.583,283.151h-144.23v-50.133H174.648v50.133H30.417V144.246
			h451.166V283.151z"/>
	</g>
</g>
</svg>