<?xml version="1.0" encoding="iso-8859-1"?>
<!-- Uploaded to: SVG Repo, www.svgrepo.com, Generator: SVG Repo Mixer Tools -->
<!DOCTYPE svg PUBLIC "-//W3C//DTD SVG 1.1//EN" "http://www.w3.org/Graphics/SVG/1.1/DTD/svg11.dtd">
<svg fill="#000000" version="1.1" id="Capa_1" xmlns="http://www.w3.org/2000/svg" xmlns:xlink="http://www.w3.org/1999/xlink" 
	 width="800px" height="800px" viewBox="0 0 39.562 39.562"
	 xml:space="preserve">
<g>
	<path d="M19.749,22.049c0.01,0,0.018-0.002,0.029-0.002c0.012,0,0.024,0.002,0.038,0.002H19.749z M15.702,17.902
		c0.011-0.002,0.018-0.013,0.029-0.016c0.651,2.356,2.338,4.123,4.051,4.16c1.562-0.071,3.478-1.806,4.115-4.148
		c0.293,0.018,0.588-0.328,0.67-0.81c0.084-0.503-0.095-0.952-0.396-1.005c-0.021-0.003-0.039,0.01-0.06,0.011
		c-0.088-3.879-1.931-5.247-4.252-5.307c-2.392,0.012-4.535,1.675-4.399,5.307c-0.023,0-0.044-0.015-0.066-0.011
		c-0.304,0.053-0.482,0.502-0.396,1.005C15.082,17.588,15.398,17.953,15.702,17.902z M19.928,10.781h-0.293
		c0.074-0.001,0.146,0.003,0.22,0.006C19.882,10.787,19.905,10.781,19.928,10.781z M23.008,22.72l-2.175,4.254l-0.344-2.77
		l0.537-0.438h-1.301h-1.188l0.537,0.438l-0.344,2.77l-2.171-4.254c-3.777,0.508-6.488,2.127-6.488,6.062h19.422
		C29.493,24.846,26.782,23.227,23.008,22.72z M6.267,24.815H4.908l1.703-1.703C2.804,23.486,0,24.936,0,28.781h8.343l-3.021-3.021
		L6.267,24.815z M12.36,16.973c-0.124,1.691-0.845,3.668-1.882,4.728h4.007v-4.47c0-4.674-2.472-6.449-5.521-6.449
		c-3.049,0-5.52,1.774-5.52,6.449v4.47H7.45c-1.002-1.023-1.715-2.909-1.873-4.562l0.039-0.003c1.725,0,3.214-0.714,4.033-1.769
		C10.248,16.139,11.208,16.715,12.36,16.973z M34.241,25.761l-3.021,3.021h8.342c0-3.846-2.803-5.295-6.61-5.669l1.703,1.703h-1.356
		L34.241,25.761z M29.915,15.367c0.818,1.054,2.31,1.769,4.033,1.769l0.039,0.003c-0.156,1.653-0.869,3.538-1.873,4.562h4.006v-4.47
		c0-4.674-2.471-6.449-5.521-6.449c-3.047,0-5.521,1.774-5.521,6.449v4.47h4.009c-1.037-1.06-1.761-3.036-1.884-4.728
		C28.356,16.715,29.317,16.139,29.915,15.367z"/>
</g>
</svg>