<?xml version="1.0" encoding="iso-8859-1"?>
<!-- Uploaded to: SVG Repo, www.svgrepo.com, Generator: SVG Repo Mixer Tools -->
<!DOCTYPE svg PUBLIC "-//W3C//DTD SVG 1.1//EN" "http://www.w3.org/Graphics/SVG/1.1/DTD/svg11.dtd">
<svg fill="#000000" version="1.1" id="Capa_1" xmlns="http://www.w3.org/2000/svg" xmlns:xlink="http://www.w3.org/1999/xlink" 
	 width="800px" height="800px" viewBox="0 0 57.387 57.386"
	 xml:space="preserve">
<g>
	<g>
		<path d="M54.965,6.296h-19.68c0.021-0.114,0.036-0.231,0.036-0.353c0-1.104-0.896-2-2-2h-9.255c-1.104,0-2,0.896-2,2
			c0,0.121,0.015,0.238,0.036,0.353H2.422C1.085,6.296,0,7.381,0,8.718c0,1.338,1.084,2.423,2.422,2.423h2.99v30.854
			c0,1.003,0.813,1.816,1.817,1.816h17.4l-5.951,5.95c-0.709,0.709-0.709,1.857,0,2.567c0.708,0.71,1.859,0.71,2.569,0l5.946-5.944
			v5.56c0,0.828,0.671,1.5,1.5,1.5c0.829,0,1.5-0.672,1.5-1.5v-5.101l5.945,5.945c0.354,0.355,0.818,0.532,1.283,0.532
			s0.93-0.177,1.285-0.532c0.709-0.709,0.709-1.859,0-2.568l-6.41-6.409h17.861c1.004,0,1.816-0.813,1.816-1.816V11.141h2.99
			c1.338,0,2.422-1.085,2.422-2.423C57.387,7.381,56.303,6.296,54.965,6.296z M48.342,40.177H9.044V11.141h39.298V40.177
			L48.342,40.177z"/>
		<path d="M11.988,35.277c0.496,0,0.993-0.184,1.38-0.555l6.036-5.76l4.961,4.178c0.414,0.35,0.949,0.52,1.489,0.461
			c0.538-0.055,1.031-0.324,1.367-0.747l6.542-8.249l3.143,2.021c0.846,0.544,1.966,0.375,2.613-0.396l3.469-4.13v1.511
			c0,1.104,0.896,2,2,2s2-0.896,2-2v-7c0-0.073-0.014-0.143-0.021-0.214c-0.004-0.041-0.005-0.082-0.013-0.123
			c-0.028-0.169-0.077-0.33-0.146-0.482c-0.004-0.008-0.004-0.018-0.008-0.025c-0.009-0.021-0.025-0.035-0.035-0.055
			c-0.066-0.13-0.146-0.25-0.235-0.36c-0.026-0.032-0.05-0.064-0.078-0.094c-0.112-0.121-0.235-0.229-0.374-0.32
			c-0.021-0.015-0.047-0.024-0.07-0.038c-0.121-0.072-0.252-0.131-0.389-0.177c-0.041-0.014-0.081-0.027-0.123-0.038
			c-0.163-0.043-0.331-0.073-0.508-0.073h-6.667c-1.104,0-2,0.896-2,2s0.896,2,2,2h2.375l-3.106,3.699l-3.187-2.049
			c-0.865-0.555-2.011-0.365-2.648,0.439l-6.387,8.054l-4.757-4.007c-0.781-0.657-1.931-0.622-2.669,0.083l-7.333,7
			c-0.799,0.763-0.829,2.028-0.066,2.827C10.933,35.069,11.46,35.277,11.988,35.277z"/>
	</g>
</g>
</svg>