<?xml version="1.0" encoding="UTF-8"?>
<svg width="40px" height="40px" viewBox="0 0 40 40" version="1.1" xmlns="http://www.w3.org/2000/svg" xmlns:xlink="http://www.w3.org/1999/xlink">
    <!-- Generator: Sketch 56.2 (81672) - https://sketch.com -->
    <title>doughnut chart</title>
    <desc>Created with Sketch.</desc>
    <g id="doughnut-chart" stroke="none" stroke-width="1" fill="none" fill-rule="evenodd" stroke-linecap="round" stroke-linejoin="round">
        <g id="Group-71" transform="translate(7.000000, 7.000000)">
            <g id="Group-70">
                <path d="M14.0996057,6.67482759 C15.2265713,7.00565517 16.2253299,7.62427586 17.0151919,8.44193103 L22.6033988,4.80372414 C20.5413299,2.25124138 17.5325023,0.485034483 14.0996057,8.34887715e-14 L14.0996057,6.67482759 Z" id="Stroke-1" stroke="#0073DC"></path>
                <path d="M18.0421919,10.569269 C18.2573644,11.203131 18.3792954,11.8800276 18.3792954,12.5865103 C18.3792954,14.0712 17.8610885,15.4330621 16.9995023,16.5080276 L20.8896402,21.5430621 C23.2117092,19.2649241 24.6551575,16.0956138 24.6551575,12.5865103 C24.6551575,10.5988552 24.1808816,8.72595862 23.3578471,7.05568276 L18.0421919,10.569269 Z" id="Stroke-2" stroke="#0073DC"></path>
                <path d="M15.3542402,18.1960552 C14.162723,18.7922621 12.7623092,19.0325379 11.2829988,18.7348828 C8.7152747,18.2175724 6.68996436,16.0640552 6.33582643,13.4694345 C5.85258505,9.92177931 8.33603332,6.85826207 11.6550678,6.38129655 L11.6550678,0.0803310345 C4.91658505,0.557296552 -0.355139092,6.33915862 0.0187229772,13.2820552 C0.357619529,19.5749517 5.51637815,24.7489517 11.8092747,25.1165379 C14.5455506,25.2761241 17.0953437,24.5445379 19.2228609,23.2050897 L15.3542402,18.1960552 Z" id="Stroke-3" stroke="#231F20"></path>
            </g>
        </g>
    </g>
</svg>