<?xml version="1.0" encoding="UTF-8"?>
<svg width="40px" height="40px" viewBox="0 0 40 40" version="1.1" xmlns="http://www.w3.org/2000/svg" xmlns:xlink="http://www.w3.org/1999/xlink">
    <!-- Generator: Sketch 56.2 (81672) - https://sketch.com -->
    <title>Line chart</title>
    <desc>Created with Sketch.</desc>
    <g id="Line-chart" stroke="none" stroke-width="1" fill="none" fill-rule="evenodd">
        <g id="Group-57" transform="translate(3.000000, 7.000000)" fill-rule="nonzero">
            <path d="M4.03054288,20.5467663 L9.30597518,11.5460506 C9.53557864,11.7921529 9.8060985,11.9995854 10.1066973,12.1575107 L4.98640649,20.8935306 C4.69490969,20.7269384 4.37277478,20.6078366 4.03054288,20.5467663 Z M14.1907185,10.8281728 L20.1688888,15.6114791 C19.9566321,15.8731566 19.7875482,16.1712759 19.6724802,16.4949936 L13.6034806,11.6390122 C13.8417307,11.4046953 14.0410132,11.1308789 14.1907185,10.8281728 Z M23.4987006,14.6702468 L28.5917567,5.81497495 C28.8482772,6.02666798 29.1405827,6.19654852 29.4582393,6.31418271 L24.372795,15.15622 C24.1132147,14.9485319 23.8183797,14.7830707 23.4987006,14.6702468 Z" id="Combined-Shape" fill="#131313"></path>
            <path d="M30.5,6.5 C32.1568542,6.5 33.5,5.15685425 33.5,3.5 C33.5,1.84314575 32.1568542,0.5 30.5,0.5 C28.8431458,0.5 27.5,1.84314575 27.5,3.5 C27.5,5.15685425 28.8431458,6.5 30.5,6.5 Z M30.5,5.5 C29.3954305,5.5 28.5,4.6045695 28.5,3.5 C28.5,2.3954305 29.3954305,1.5 30.5,1.5 C31.6045695,1.5 32.5,2.3954305 32.5,3.5 C32.5,4.6045695 31.6045695,5.5 30.5,5.5 Z" id="Oval" fill="#131313"></path>
            <path d="M22.5,20.5 C24.1568542,20.5 25.5,19.1568542 25.5,17.5 C25.5,15.8431458 24.1568542,14.5 22.5,14.5 C20.8431458,14.5 19.5,15.8431458 19.5,17.5 C19.5,19.1568542 20.8431458,20.5 22.5,20.5 Z M22.5,19.5 C21.3954305,19.5 20.5,18.6045695 20.5,17.5 C20.5,16.3954305 21.3954305,15.5 22.5,15.5 C23.6045695,15.5 24.5,16.3954305 24.5,17.5 C24.5,18.6045695 23.6045695,19.5 22.5,19.5 Z" id="Oval-Copy-13" fill="#131313"></path>
            <path d="M11.5,12.5 C13.1568542,12.5 14.5,11.1568542 14.5,9.5 C14.5,7.84314575 13.1568542,6.5 11.5,6.5 C9.84314575,6.5 8.5,7.84314575 8.5,9.5 C8.5,11.1568542 9.84314575,12.5 11.5,12.5 Z M11.5,11.5 C10.3954305,11.5 9.5,10.6045695 9.5,9.5 C9.5,8.3954305 10.3954305,7.5 11.5,7.5 C12.6045695,7.5 13.5,8.3954305 13.5,9.5 C13.5,10.6045695 12.6045695,11.5 11.5,11.5 Z" id="Oval-Copy-14" fill="#0074DC"></path>
            <path d="M3.5,26.5 C5.15685425,26.5 6.5,25.1568542 6.5,23.5 C6.5,21.8431458 5.15685425,20.5 3.5,20.5 C1.84314575,20.5 0.5,21.8431458 0.5,23.5 C0.5,25.1568542 1.84314575,26.5 3.5,26.5 Z M3.5,25.5 C2.3954305,25.5 1.5,24.6045695 1.5,23.5 C1.5,22.3954305 2.3954305,21.5 3.5,21.5 C4.6045695,21.5 5.5,22.3954305 5.5,23.5 C5.5,24.6045695 4.6045695,25.5 3.5,25.5 Z" id="Oval-Copy-15" fill="#131313"></path>
        </g>
    </g>
</svg>